%
M48
M72
T01C0.0236
T02C0.0400
T03C0.1250
%
T01
X4036Y4984
X4536Y6234
X6036Y5734
X6036Y6734
X7286Y6234
X7286Y5734
X7036Y5234
X7536Y7234
X8036Y7234
X7786Y8484
X8286Y8984
X9286Y7484
X9286Y6234
X11536Y7234
X12036Y6234
X11536Y4484
X14286Y6984
X15036Y6984
X15036Y6484
X15036Y5984
X15036Y5484
X15036Y4984
X15036Y4484
X17536Y2734
X16036Y1734
X19036Y2234
X19286Y4484
X19286Y5234
X19286Y5984
X19286Y6734
X19286Y7484
X19286Y8234
X19036Y8734
X18286Y7984
X16536Y8734
X15036Y7484
X12286Y9984
X12286Y10734
X12286Y11484
X12286Y12234
X12286Y12984
X12286Y13734
X12286Y14484
X11536Y14734
X11286Y16234
X10536Y16234
X10536Y17134
X10036Y18234
X9036Y18234
X10536Y19984
X11536Y19734
X12036Y19234
X12536Y19734
X14286Y19484
X15286Y19484
X15286Y19984
X16036Y19984
X16786Y19984
X17536Y19984
X18286Y19984
X19036Y19984
X19786Y19984
X21536Y21734
X20036Y24234
X14536Y23734
X12536Y22734
X12036Y21734
X10536Y22734
X11536Y24484
X8536Y25734
X8536Y22984
X7786Y22984
X7036Y22984
X6286Y22984
X5536Y22984
X4786Y22984
X4036Y22984
X2286Y22734
X4036Y20484
X4036Y19734
X4786Y20234
X5286Y20234
X5786Y20234
X6286Y20234
X6786Y20234
X7286Y20234
X7786Y20234
X9286Y20984
X5286Y18484
X4536Y18734
X4536Y17234
X4536Y15734
X6036Y16234
X7036Y16484
X8286Y15984
X8036Y13984
X8036Y13484
X8036Y12984
X8036Y12484
X8036Y11984
X8036Y11484
X8036Y10984
X6536Y12234
X5536Y11234
X5036Y11734
X6036Y10734
X4536Y9734
X3036Y10984
X2536Y10984
X1786Y10234
X3536Y11734
X6286Y14234
X10036Y9984
X10536Y8734
X12036Y8734
X15786Y15734
X16286Y15734
X16786Y15734
X17286Y15734
X17786Y15734
X18286Y15734
X18786Y15734
X19286Y17734
X13786Y17134
X20536Y10484
X19536Y9734
X23536Y8234
X23536Y5234
T02
X27536Y4734
X27536Y3734
X27536Y2734
X27536Y1734
X27536Y734
X27536Y5734
X27536Y6734
X27536Y7734
X27536Y8734
X27536Y10484
X26536Y10484
X25536Y10484
X24536Y10484
X23536Y10484
X22536Y10484
X22536Y12984
X23536Y12984
X24536Y12984
X25536Y12984
X26536Y12984
X27536Y12984
X27536Y15484
X26536Y15484
X25536Y15484
X24536Y15484
X23536Y15484
X22536Y15484
X22536Y17984
X21536Y17984
X23536Y17984
X24536Y17984
X25536Y17984
X26536Y17984
X27536Y17984
X27536Y20984
X26536Y20984
X25536Y20984
X24536Y20984
X23536Y20984
X23536Y24984
X24536Y24984
X25536Y24984
X26536Y24984
X27536Y24984
X26786Y28734
X26786Y29734
X26786Y30734
X26786Y31734
X26786Y32734
X26786Y33734
X26786Y34734
X23786Y34734
X23786Y33734
X23786Y32734
X23786Y31734
X23786Y30734
X23786Y29734
X23786Y28734
X23786Y27734
X23786Y26734
X20786Y27734
X20786Y28734
X20786Y29734
X20786Y30734
X20786Y31734
X20786Y32734
X20786Y33734
X20786Y34734
X16286Y34734
X16286Y33734
X16286Y32734
X16286Y31734
X16286Y30734
X16286Y29734
X16286Y28734
X14786Y28734
X14786Y27734
X14786Y29734
X14786Y30734
X14786Y31734
X14786Y32734
X14786Y33734
X14786Y34734
X12286Y34734
X11286Y34734
X10286Y34734
X9286Y34734
X8286Y34734
X7286Y34734
X6286Y34734
X6536Y31734
X5536Y31734
X7536Y31734
X8536Y31734
X9536Y31734
X10536Y31734
X1536Y31234
X1536Y30234
X1536Y29234
X1536Y28234
X1536Y27234
X1536Y26234
X1536Y25234
X1536Y24234
X1536Y23234
X1536Y22234
X1536Y21234
X1536Y20234
X1536Y32234
X1536Y33234
X1536Y34234
X1536Y7734
X1536Y6734
X2536Y6734
X2536Y7734
X2536Y5234
X1536Y5234
X1536Y4234
X1536Y3234
X2536Y3234
X2536Y4234
X4036Y1234
X5036Y1234
X6036Y1234
X7036Y1234
X8036Y1234
X9036Y1234
X13036Y3734
X13036Y4734
X13036Y5734
X18536Y734
X19536Y734
X21036Y734
X22036Y734
T03
X2286Y1484
X24286Y1734
X26286Y26734
X4536Y33734
M30
