G75*
G70*
%OFA0B0*%
%FSLAX24Y24*%
%IPPOS*%
%LPD*%
%AMOC8*
5,1,8,0,0,1.08239X$1,22.5*
%
%ADD10R,0.0200X0.0580*%
%ADD11R,0.0580X0.0200*%
%ADD12R,0.0394X0.0433*%
%ADD13R,0.0315X0.0315*%
%ADD14R,0.0276X0.0669*%
%ADD15R,0.0276X0.0354*%
%ADD16R,0.0630X0.0551*%
%ADD17R,0.0610X0.0512*%
%ADD18C,0.0740*%
%ADD19R,0.0354X0.0276*%
%ADD20R,0.0260X0.0800*%
%ADD21R,0.0800X0.0260*%
%ADD22R,0.0433X0.0394*%
%ADD23R,0.0740X0.0740*%
%ADD24R,0.0240X0.0870*%
%ADD25R,0.1560X0.1560*%
%ADD26R,0.1250X0.1250*%
%ADD27R,0.0750X0.0500*%
%ADD28R,0.1575X0.0630*%
%ADD29C,0.0100*%
%ADD30C,0.0396*%
%ADD31C,0.0200*%
D10*
X005936Y004614D03*
X006246Y004614D03*
X006566Y004614D03*
X006876Y004614D03*
X007196Y004614D03*
X007506Y004614D03*
X007826Y004614D03*
X008136Y004614D03*
X008136Y007854D03*
X007826Y007854D03*
X007506Y007854D03*
X007196Y007854D03*
X006876Y007854D03*
X006566Y007854D03*
X006246Y007854D03*
X005936Y007854D03*
D11*
X005416Y007334D03*
X005416Y007024D03*
X005416Y006704D03*
X005416Y006394D03*
X005416Y006074D03*
X005416Y005764D03*
X005416Y005444D03*
X005416Y005134D03*
X008656Y005134D03*
X008656Y005444D03*
X008656Y005764D03*
X008656Y006074D03*
X008656Y006394D03*
X008656Y006704D03*
X008656Y007024D03*
X008656Y007334D03*
D12*
X012036Y005569D03*
X012036Y004900D03*
X011621Y003734D03*
X010952Y003734D03*
X003371Y009734D03*
X002702Y009734D03*
X005286Y012900D03*
X005286Y013569D03*
X006036Y013569D03*
X006036Y012900D03*
X011536Y017900D03*
X011536Y018569D03*
X012536Y018569D03*
X012536Y017900D03*
X013536Y017900D03*
X013536Y018569D03*
X021536Y018900D03*
X021536Y019569D03*
X022536Y019569D03*
X022536Y018900D03*
X023536Y018900D03*
X023536Y019569D03*
X024536Y019569D03*
X024536Y018900D03*
X025536Y018900D03*
X025536Y019569D03*
X026536Y019569D03*
X026536Y018900D03*
X027536Y018900D03*
X027536Y019569D03*
X027536Y021900D03*
X027536Y022569D03*
X027536Y023400D03*
X027536Y024069D03*
X026536Y024069D03*
X026536Y023400D03*
X026536Y022569D03*
X026536Y021900D03*
X025536Y021900D03*
X025536Y022569D03*
X025536Y023400D03*
X025536Y024069D03*
X024536Y024069D03*
X024536Y023400D03*
X024536Y022569D03*
X024536Y021900D03*
X023536Y021900D03*
X023536Y022569D03*
X023536Y023400D03*
X023536Y024069D03*
X023536Y017069D03*
X023536Y016400D03*
X024536Y016400D03*
X024536Y017069D03*
X025536Y017069D03*
X025536Y016400D03*
X026536Y016400D03*
X026536Y017069D03*
X027536Y017069D03*
X027536Y016400D03*
X027536Y014569D03*
X027536Y013900D03*
X026536Y013900D03*
X026536Y014569D03*
X025536Y014569D03*
X025536Y013900D03*
X024536Y013900D03*
X024536Y014569D03*
X023536Y014569D03*
X023536Y013900D03*
X022536Y013900D03*
X022536Y014569D03*
X022536Y016400D03*
X022536Y017069D03*
X022536Y012069D03*
X022536Y011400D03*
X023536Y011400D03*
X023536Y012069D03*
X024536Y012069D03*
X024536Y011400D03*
X025536Y011400D03*
X025536Y012069D03*
X026536Y012069D03*
X026536Y011400D03*
X027536Y011400D03*
X027536Y012069D03*
X010536Y030150D03*
X010536Y030819D03*
X009536Y030819D03*
X009536Y030150D03*
X008536Y030150D03*
X008536Y030819D03*
X007536Y030819D03*
X007536Y030150D03*
X006536Y030150D03*
X006536Y030819D03*
X005536Y030819D03*
X005536Y030150D03*
X006286Y033150D03*
X006286Y033819D03*
X007286Y033819D03*
X007286Y033150D03*
X008286Y033150D03*
X008286Y033819D03*
X009286Y033819D03*
X009286Y033150D03*
X010286Y033150D03*
X010286Y033819D03*
X011286Y033819D03*
X011286Y033150D03*
X012286Y033150D03*
X012286Y033819D03*
D13*
X001786Y009529D03*
X001786Y008939D03*
D14*
X005564Y009234D03*
X006036Y009234D03*
X006509Y009234D03*
D15*
X006281Y003234D03*
X006792Y003234D03*
X014781Y008734D03*
X015292Y008734D03*
D16*
X013536Y008635D03*
X013536Y007533D03*
D17*
X013601Y002620D03*
X013601Y000848D03*
X010471Y000848D03*
X010471Y002620D03*
X010471Y019348D03*
X010471Y021120D03*
X010471Y022098D03*
X010471Y023870D03*
X010471Y024848D03*
X010471Y026620D03*
X013601Y026620D03*
X013601Y024848D03*
X013601Y023870D03*
X013601Y022098D03*
X013601Y021120D03*
X013601Y019348D03*
D18*
X021536Y017984D03*
X022536Y017984D03*
X023536Y017984D03*
X024536Y017984D03*
X025536Y017984D03*
X026536Y017984D03*
X026536Y015484D03*
X025536Y015484D03*
X024536Y015484D03*
X023536Y015484D03*
X022536Y015484D03*
X022536Y012984D03*
X023536Y012984D03*
X024536Y012984D03*
X025536Y012984D03*
X026536Y012984D03*
X027536Y012984D03*
X027536Y010484D03*
X026536Y010484D03*
X025536Y010484D03*
X024536Y010484D03*
X023536Y010484D03*
X022536Y010484D03*
X027536Y008734D03*
X027536Y007734D03*
X027536Y006734D03*
X027536Y005734D03*
X027536Y004734D03*
X027536Y003734D03*
X027536Y002734D03*
X027536Y001734D03*
X027536Y000734D03*
X022036Y000734D03*
X021036Y000734D03*
X019536Y000734D03*
X018536Y000734D03*
X013036Y003734D03*
X013036Y004734D03*
X013036Y005734D03*
X009036Y001234D03*
X008036Y001234D03*
X007036Y001234D03*
X006036Y001234D03*
X005036Y001234D03*
X004036Y001234D03*
X002536Y003234D03*
X002536Y004234D03*
X001536Y004234D03*
X001536Y003234D03*
X001536Y005234D03*
X002536Y005234D03*
X002536Y006734D03*
X002536Y007734D03*
X001536Y007734D03*
X001536Y006734D03*
X001536Y020234D03*
X001536Y021234D03*
X001536Y022234D03*
X001536Y024234D03*
X001536Y025234D03*
X001536Y026234D03*
X001536Y027234D03*
X001536Y029234D03*
X001536Y030234D03*
X001536Y031234D03*
X001536Y032234D03*
X001536Y033234D03*
X001536Y034234D03*
X005536Y031734D03*
X006536Y031734D03*
X007536Y031734D03*
X008536Y031734D03*
X009536Y031734D03*
X010536Y031734D03*
X010286Y034734D03*
X009286Y034734D03*
X008286Y034734D03*
X007286Y034734D03*
X006286Y034734D03*
X011286Y034734D03*
X012286Y034734D03*
X014786Y033734D03*
X014786Y032734D03*
X014786Y031734D03*
X016286Y031734D03*
X016286Y030734D03*
X016286Y029734D03*
X016286Y028734D03*
X014786Y028734D03*
X014786Y027734D03*
X014786Y029734D03*
X016286Y032734D03*
X016286Y033734D03*
X016286Y034734D03*
X020786Y034734D03*
X020786Y033734D03*
X020786Y032734D03*
X020786Y031734D03*
X020786Y030734D03*
X020786Y029734D03*
X020786Y028734D03*
X020786Y027734D03*
X023786Y027734D03*
X023786Y026734D03*
X023536Y024984D03*
X024536Y024984D03*
X025536Y024984D03*
X026536Y024984D03*
X027536Y024984D03*
X026786Y028734D03*
X026786Y029734D03*
X026786Y030734D03*
X026786Y031734D03*
X026786Y032734D03*
X026786Y033734D03*
X023786Y033734D03*
X023786Y032734D03*
X023786Y031734D03*
X023786Y030734D03*
X023786Y028734D03*
X023786Y034734D03*
X023536Y020984D03*
X024536Y020984D03*
X025536Y020984D03*
X026536Y020984D03*
X027536Y020984D03*
X027536Y015484D03*
D19*
X009786Y001990D03*
X009786Y001478D03*
D20*
X015786Y016524D03*
X016286Y016524D03*
X016786Y016524D03*
X017286Y016524D03*
X017786Y016524D03*
X018286Y016524D03*
X018786Y016524D03*
X019286Y016524D03*
X019286Y018944D03*
X018786Y018944D03*
X018286Y018944D03*
X017786Y018944D03*
X017286Y018944D03*
X016786Y018944D03*
X016286Y018944D03*
X015786Y018944D03*
X015786Y021304D03*
X016286Y021304D03*
X016786Y021304D03*
X017286Y021304D03*
X017786Y021304D03*
X018286Y021304D03*
X018786Y021304D03*
X019286Y021304D03*
X019286Y025164D03*
X018786Y025164D03*
X018286Y025164D03*
X017786Y025164D03*
X017286Y025164D03*
X016786Y025164D03*
X016286Y025164D03*
X015786Y025164D03*
X015286Y025164D03*
X015286Y021304D03*
X008286Y021944D03*
X007786Y021944D03*
X007286Y021944D03*
X006786Y021944D03*
X006286Y021944D03*
X005786Y021944D03*
X005286Y021944D03*
X004786Y021944D03*
X004786Y024304D03*
X004286Y024304D03*
X005286Y024304D03*
X005786Y024304D03*
X006286Y024304D03*
X006786Y024304D03*
X007286Y024304D03*
X007786Y024304D03*
X008286Y024304D03*
X008286Y028164D03*
X007786Y028164D03*
X007286Y028164D03*
X006786Y028164D03*
X006286Y028164D03*
X005786Y028164D03*
X005286Y028164D03*
X004786Y028164D03*
X004286Y028164D03*
X004786Y019524D03*
X005286Y019524D03*
X005786Y019524D03*
X006286Y019524D03*
X006786Y019524D03*
X007286Y019524D03*
X007786Y019524D03*
X008286Y019524D03*
D21*
X008826Y013984D03*
X008826Y013484D03*
X008826Y012984D03*
X008826Y012484D03*
X008826Y011984D03*
X008826Y011484D03*
X008826Y010984D03*
X008826Y010484D03*
X011246Y010484D03*
X011246Y010984D03*
X011246Y011484D03*
X011246Y011984D03*
X011246Y012484D03*
X011246Y012984D03*
X011246Y013484D03*
X011246Y013984D03*
X014606Y013984D03*
X014606Y013484D03*
X014606Y012984D03*
X014606Y012484D03*
X014606Y011984D03*
X014606Y011484D03*
X014606Y010984D03*
X014606Y010484D03*
X015826Y007484D03*
X015826Y006984D03*
X015826Y006484D03*
X015826Y005984D03*
X015826Y005484D03*
X015826Y004984D03*
X015826Y004484D03*
X015826Y003984D03*
X018246Y003984D03*
X018246Y004484D03*
X018246Y004984D03*
X018246Y005484D03*
X018246Y005984D03*
X018246Y006484D03*
X018246Y006984D03*
X018246Y007484D03*
X020356Y007234D03*
X020356Y006734D03*
X020356Y006234D03*
X020356Y005734D03*
X020356Y005234D03*
X020356Y007734D03*
X020356Y008234D03*
X020356Y008734D03*
X020356Y009234D03*
X018466Y010484D03*
X018466Y010984D03*
X018466Y011484D03*
X018466Y011984D03*
X018466Y012484D03*
X018466Y012984D03*
X018466Y013484D03*
X018466Y013984D03*
X018466Y014484D03*
X014606Y014484D03*
X024216Y009234D03*
X024216Y008734D03*
X024216Y008234D03*
X024216Y007734D03*
X024216Y007234D03*
X024216Y006734D03*
X024216Y006234D03*
X024216Y005734D03*
X024216Y005234D03*
D22*
X022871Y026734D03*
X022202Y026734D03*
X022202Y027734D03*
X022871Y027734D03*
X022871Y028734D03*
X022202Y028734D03*
X022202Y029734D03*
X022871Y029734D03*
X022871Y030734D03*
X022202Y030734D03*
X022202Y031734D03*
X022871Y031734D03*
X022871Y032734D03*
X022202Y032734D03*
X022202Y033734D03*
X022871Y033734D03*
X022871Y034734D03*
X022202Y034734D03*
X019871Y034734D03*
X019202Y034734D03*
X019202Y033734D03*
X019871Y033734D03*
X019871Y032734D03*
X019202Y032734D03*
X019202Y031734D03*
X019871Y031734D03*
X019871Y030734D03*
X019202Y030734D03*
X019202Y029734D03*
X019871Y029734D03*
X019871Y028734D03*
X019202Y028734D03*
X019202Y027734D03*
X019871Y027734D03*
X017871Y028734D03*
X017202Y028734D03*
X017202Y029734D03*
X017871Y029734D03*
X017871Y030734D03*
X017202Y030734D03*
X017202Y031734D03*
X017871Y031734D03*
X017871Y032734D03*
X017202Y032734D03*
X017202Y033734D03*
X017871Y033734D03*
X017871Y034734D03*
X017202Y034734D03*
X013871Y034734D03*
X013202Y034734D03*
X013202Y033734D03*
X013871Y033734D03*
X013871Y032734D03*
X013202Y032734D03*
X013202Y031734D03*
X013871Y031734D03*
X013871Y030734D03*
X013202Y030734D03*
X013202Y029734D03*
X013871Y029734D03*
X013871Y028734D03*
X013202Y028734D03*
X013202Y027734D03*
X013871Y027734D03*
X003121Y027234D03*
X002452Y027234D03*
X002452Y026234D03*
X003121Y026234D03*
X003121Y025234D03*
X002452Y025234D03*
X002452Y024234D03*
X003121Y024234D03*
X003121Y028234D03*
X002452Y028234D03*
X002452Y029234D03*
X003121Y029234D03*
X003121Y030234D03*
X002452Y030234D03*
X002452Y031234D03*
X003121Y031234D03*
X003121Y032234D03*
X002452Y032234D03*
X002452Y033234D03*
X003121Y033234D03*
X003121Y034234D03*
X002452Y034234D03*
X025202Y033734D03*
X025871Y033734D03*
X025871Y032734D03*
X025202Y032734D03*
X025202Y031734D03*
X025871Y031734D03*
X025871Y030734D03*
X025202Y030734D03*
X025202Y029734D03*
X025871Y029734D03*
X025871Y028734D03*
X025202Y028734D03*
X025202Y034734D03*
X025871Y034734D03*
X004121Y007734D03*
X003452Y007734D03*
X003452Y006484D03*
X004121Y006484D03*
D23*
X001536Y023234D03*
X001536Y028234D03*
X014786Y030734D03*
X014786Y034734D03*
X023786Y029734D03*
X026786Y034734D03*
X027536Y017984D03*
D24*
X006786Y017264D03*
X006286Y017264D03*
X005786Y017264D03*
X005286Y017264D03*
X005286Y015204D03*
X005786Y015204D03*
X006286Y015204D03*
X006786Y015204D03*
D25*
X002286Y015234D03*
D26*
X002286Y018334D03*
X002286Y012134D03*
D27*
X007661Y015134D03*
X008911Y015134D03*
X008911Y017334D03*
X007661Y017334D03*
D28*
X014639Y001734D03*
X017434Y001734D03*
D29*
X001486Y002204D02*
X001486Y002734D01*
X001636Y002734D01*
X001820Y002810D01*
X001960Y002951D01*
X002029Y003116D01*
X002029Y003112D01*
X002055Y003035D01*
X002092Y002962D01*
X002140Y002895D01*
X002198Y002838D01*
X002264Y002789D01*
X002337Y002752D01*
X002415Y002727D01*
X002486Y002716D01*
X002486Y003184D01*
X002586Y003184D01*
X002586Y002716D01*
X002658Y002727D01*
X002736Y002752D01*
X002809Y002789D01*
X002875Y002838D01*
X002933Y002895D01*
X002981Y002962D01*
X003018Y003035D01*
X003044Y003112D01*
X003055Y003184D01*
X002586Y003184D01*
X002586Y003284D01*
X003055Y003284D01*
X003044Y003356D01*
X003018Y003434D01*
X002981Y003507D01*
X002947Y003554D01*
X003111Y003554D01*
X003216Y003660D01*
X003991Y004434D01*
X005706Y004434D01*
X005706Y004270D01*
X005783Y004194D01*
X006066Y004194D01*
X006066Y004164D01*
X005462Y004164D01*
X005356Y004059D01*
X005356Y001660D01*
X005462Y001554D01*
X005579Y001437D01*
X005544Y001352D01*
X005544Y001356D01*
X005518Y001434D01*
X005481Y001507D01*
X005433Y001573D01*
X005375Y001631D01*
X005309Y001679D01*
X005236Y001716D01*
X005158Y001741D01*
X005086Y001753D01*
X005086Y001284D01*
X004986Y001284D01*
X004986Y001753D01*
X004915Y001741D01*
X004837Y001716D01*
X004764Y001679D01*
X004698Y001631D01*
X004640Y001573D01*
X004592Y001507D01*
X004555Y001434D01*
X004536Y001378D01*
X004518Y001434D01*
X004481Y001507D01*
X004433Y001573D01*
X004375Y001631D01*
X004309Y001679D01*
X004236Y001716D01*
X004158Y001741D01*
X004086Y001753D01*
X004086Y001284D01*
X003986Y001284D01*
X003986Y001184D01*
X003518Y001184D01*
X003529Y001112D01*
X003555Y001035D01*
X003592Y000962D01*
X003640Y000895D01*
X003698Y000838D01*
X003764Y000789D01*
X003837Y000752D01*
X003915Y000727D01*
X003986Y000716D01*
X003986Y001184D01*
X004086Y001184D01*
X004086Y000716D01*
X004158Y000727D01*
X004236Y000752D01*
X004309Y000789D01*
X004375Y000838D01*
X004433Y000895D01*
X004481Y000962D01*
X004518Y001035D01*
X004536Y001090D01*
X004555Y001035D01*
X004592Y000962D01*
X004640Y000895D01*
X004698Y000838D01*
X004764Y000789D01*
X004837Y000752D01*
X004915Y000727D01*
X004986Y000716D01*
X004986Y001184D01*
X005086Y001184D01*
X005086Y000716D01*
X005158Y000727D01*
X005236Y000752D01*
X005309Y000789D01*
X005375Y000838D01*
X005433Y000895D01*
X005481Y000962D01*
X005518Y001035D01*
X005544Y001112D01*
X005544Y001116D01*
X005613Y000951D01*
X005753Y000810D01*
X005937Y000734D01*
X006136Y000734D01*
X006320Y000810D01*
X006460Y000951D01*
X006536Y001135D01*
X006536Y001334D01*
X006460Y001517D01*
X006320Y001658D01*
X006136Y001734D01*
X005937Y001734D01*
X005834Y001691D01*
X005716Y001809D01*
X005716Y003804D01*
X006321Y003804D01*
X006426Y003910D01*
X006426Y004194D01*
X006634Y004194D01*
X006623Y004115D01*
X006612Y004105D01*
X006612Y004043D01*
X006604Y003982D01*
X006612Y003970D01*
X006612Y003541D01*
X006601Y003541D01*
X006547Y003488D01*
X006538Y003503D01*
X006510Y003531D01*
X006476Y003551D01*
X006438Y003561D01*
X006299Y003561D01*
X006299Y003253D01*
X006262Y003253D01*
X006262Y003561D01*
X006123Y003561D01*
X006085Y003551D01*
X006051Y003531D01*
X006023Y003503D01*
X006003Y003469D01*
X005993Y003431D01*
X005993Y003253D01*
X006262Y003253D01*
X006262Y003215D01*
X006299Y003215D01*
X006299Y002907D01*
X006438Y002907D01*
X006476Y002917D01*
X006510Y002937D01*
X006538Y002965D01*
X006547Y002980D01*
X006601Y002927D01*
X006984Y002927D01*
X007060Y003003D01*
X007060Y003465D01*
X006984Y003541D01*
X006972Y003541D01*
X006972Y004017D01*
X006998Y004194D01*
X007022Y004194D01*
X007039Y004184D01*
X007077Y004174D01*
X007196Y004174D01*
X007196Y004614D01*
X007196Y004614D01*
X007196Y004174D01*
X007196Y004174D01*
X007316Y004174D01*
X007354Y004184D01*
X007371Y004194D01*
X007660Y004194D01*
X007666Y004200D01*
X007673Y004194D01*
X007980Y004194D01*
X007981Y004195D01*
X007983Y004194D01*
X008290Y004194D01*
X008366Y004270D01*
X008366Y004904D01*
X009000Y004904D01*
X009076Y004980D01*
X009076Y005288D01*
X009075Y005289D01*
X009076Y005290D01*
X009076Y005598D01*
X009070Y005604D01*
X009076Y005610D01*
X009076Y005918D01*
X009075Y005919D01*
X009076Y005920D01*
X009076Y005980D01*
X009101Y005956D01*
X009221Y005906D01*
X009352Y005906D01*
X009472Y005956D01*
X009565Y006048D01*
X009606Y006149D01*
X009606Y004550D01*
X007201Y001707D01*
X007136Y001734D01*
X006937Y001734D01*
X006753Y001658D01*
X006613Y001517D01*
X006536Y001334D01*
X006536Y001135D01*
X006613Y000951D01*
X006753Y000810D01*
X006937Y000734D01*
X007136Y000734D01*
X007320Y000810D01*
X007460Y000951D01*
X007536Y001135D01*
X007536Y001334D01*
X007477Y001476D01*
X009856Y004288D01*
X009856Y003797D01*
X008188Y001712D01*
X008136Y001734D01*
X007937Y001734D01*
X007753Y001658D01*
X007613Y001517D01*
X007536Y001334D01*
X007536Y001135D01*
X007613Y000951D01*
X007753Y000810D01*
X007937Y000734D01*
X008136Y000734D01*
X008320Y000810D01*
X008460Y000951D01*
X008536Y001135D01*
X008536Y001334D01*
X008472Y001490D01*
X010171Y003614D01*
X010216Y003660D01*
X010216Y003671D01*
X010224Y003680D01*
X010216Y003744D01*
X010216Y006809D01*
X010111Y006914D01*
X009821Y007204D01*
X009468Y007204D01*
X009472Y007206D01*
X009565Y007298D01*
X009615Y007419D01*
X009615Y007549D01*
X009565Y007670D01*
X009560Y007674D01*
X009611Y007674D01*
X009716Y007780D01*
X009716Y007804D01*
X013071Y007804D01*
X013071Y007583D01*
X013486Y007583D01*
X013486Y007483D01*
X013071Y007483D01*
X013071Y007238D01*
X013082Y007200D01*
X013101Y007165D01*
X013129Y007137D01*
X013164Y007118D01*
X013202Y007107D01*
X013486Y007107D01*
X013486Y007483D01*
X013586Y007483D01*
X013586Y007107D01*
X013871Y007107D01*
X013909Y007118D01*
X013943Y007137D01*
X013971Y007165D01*
X013991Y007200D01*
X014001Y007238D01*
X014001Y007483D01*
X013586Y007483D01*
X013586Y007583D01*
X014001Y007583D01*
X014001Y007804D01*
X014952Y007804D01*
X014851Y007762D01*
X014758Y007670D01*
X014708Y007549D01*
X014708Y007419D01*
X014758Y007298D01*
X014822Y007234D01*
X014758Y007170D01*
X014708Y007049D01*
X014708Y006919D01*
X014758Y006798D01*
X014822Y006734D01*
X014758Y006670D01*
X014708Y006549D01*
X014708Y006419D01*
X014758Y006298D01*
X014822Y006234D01*
X014758Y006170D01*
X014708Y006049D01*
X014708Y005919D01*
X014758Y005798D01*
X014822Y005734D01*
X014758Y005670D01*
X014708Y005549D01*
X014708Y005419D01*
X014758Y005298D01*
X014822Y005234D01*
X014758Y005170D01*
X014708Y005049D01*
X014708Y004919D01*
X014758Y004798D01*
X014822Y004734D01*
X014758Y004670D01*
X014708Y004549D01*
X014708Y004419D01*
X014758Y004298D01*
X014851Y004206D01*
X014971Y004156D01*
X015102Y004156D01*
X015222Y004206D01*
X015307Y004290D01*
X015352Y004245D01*
X015334Y004234D01*
X015306Y004206D01*
X015287Y004172D01*
X015276Y004134D01*
X015276Y003999D01*
X015811Y003999D01*
X015811Y003969D01*
X015276Y003969D01*
X015276Y003834D01*
X015287Y003796D01*
X015306Y003762D01*
X015334Y003734D01*
X015369Y003714D01*
X015407Y003704D01*
X015811Y003704D01*
X015811Y003969D01*
X015841Y003969D01*
X015841Y003704D01*
X016246Y003704D01*
X016284Y003714D01*
X016319Y003734D01*
X016346Y003762D01*
X016366Y003796D01*
X016376Y003834D01*
X016376Y003969D01*
X015841Y003969D01*
X015841Y003999D01*
X016376Y003999D01*
X016376Y004134D01*
X016366Y004172D01*
X016346Y004206D01*
X016319Y004234D01*
X016301Y004245D01*
X016356Y004300D01*
X016356Y004668D01*
X016290Y004734D01*
X016356Y004800D01*
X016356Y005168D01*
X016290Y005234D01*
X016356Y005300D01*
X016356Y005668D01*
X016290Y005734D01*
X016356Y005800D01*
X016356Y006168D01*
X016290Y006234D01*
X016356Y006300D01*
X016356Y006668D01*
X016290Y006734D01*
X016356Y006800D01*
X016356Y007168D01*
X016290Y007234D01*
X016356Y007300D01*
X016356Y007668D01*
X016280Y007744D01*
X015373Y007744D01*
X015307Y007678D01*
X015222Y007762D01*
X015121Y007804D01*
X016356Y007804D01*
X016356Y004910D01*
X016462Y004804D01*
X017716Y004804D01*
X017716Y004800D01*
X017783Y004734D01*
X017716Y004668D01*
X017716Y004300D01*
X017783Y004234D01*
X017716Y004168D01*
X017716Y003800D01*
X017793Y003724D01*
X018700Y003724D01*
X018776Y003800D01*
X018776Y004168D01*
X018710Y004234D01*
X018776Y004300D01*
X018776Y004304D01*
X018861Y004304D01*
X018963Y004407D01*
X019008Y004298D01*
X019101Y004206D01*
X019221Y004156D01*
X019352Y004156D01*
X019472Y004206D01*
X019565Y004298D01*
X019615Y004419D01*
X019615Y004549D01*
X019582Y004627D01*
X019825Y005032D01*
X019836Y005012D01*
X019864Y004984D01*
X019899Y004964D01*
X019937Y004954D01*
X020341Y004954D01*
X020341Y005219D01*
X020371Y005219D01*
X020371Y004954D01*
X020776Y004954D01*
X020814Y004964D01*
X020849Y004984D01*
X020876Y005012D01*
X020896Y005046D01*
X020906Y005084D01*
X020906Y005219D01*
X020371Y005219D01*
X020371Y005249D01*
X020906Y005249D01*
X020906Y005384D01*
X020896Y005422D01*
X020876Y005456D01*
X020849Y005484D01*
X020831Y005495D01*
X020886Y005550D01*
X020886Y005918D01*
X020820Y005984D01*
X020886Y006050D01*
X020886Y006418D01*
X020820Y006484D01*
X020886Y006550D01*
X020886Y006918D01*
X020820Y006984D01*
X020886Y007050D01*
X020886Y007418D01*
X020820Y007484D01*
X020886Y007550D01*
X020886Y007918D01*
X020820Y007984D01*
X020886Y008050D01*
X020886Y008418D01*
X020820Y008484D01*
X020886Y008550D01*
X020886Y008918D01*
X020820Y008984D01*
X020886Y009050D01*
X020886Y009418D01*
X020810Y009494D01*
X019903Y009494D01*
X019826Y009418D01*
X019826Y009414D01*
X017466Y009414D01*
X017466Y009559D01*
X017361Y009664D01*
X012371Y009664D01*
X012472Y009706D01*
X012565Y009798D01*
X012615Y009919D01*
X012615Y010049D01*
X012612Y010055D01*
X013361Y010804D01*
X014076Y010804D01*
X014076Y010800D01*
X014132Y010745D01*
X014114Y010734D01*
X014086Y010706D01*
X014067Y010672D01*
X014056Y010634D01*
X014056Y010499D01*
X014591Y010499D01*
X014591Y010469D01*
X014056Y010469D01*
X014056Y010334D01*
X014067Y010296D01*
X014086Y010262D01*
X014114Y010234D01*
X014149Y010214D01*
X014187Y010204D01*
X014591Y010204D01*
X014591Y010469D01*
X014621Y010469D01*
X014621Y010204D01*
X015026Y010204D01*
X015064Y010214D01*
X015099Y010234D01*
X015126Y010262D01*
X015146Y010296D01*
X015156Y010334D01*
X015156Y010469D01*
X014621Y010469D01*
X014621Y010499D01*
X015156Y010499D01*
X015156Y010634D01*
X015146Y010672D01*
X015126Y010706D01*
X015099Y010734D01*
X015081Y010745D01*
X015136Y010800D01*
X015136Y011168D01*
X015070Y011234D01*
X015136Y011300D01*
X015136Y011668D01*
X015070Y011734D01*
X015136Y011800D01*
X015136Y012168D01*
X015070Y012234D01*
X015136Y012300D01*
X015136Y012668D01*
X015070Y012734D01*
X015136Y012800D01*
X015136Y013168D01*
X015070Y013234D01*
X015136Y013300D01*
X015136Y013668D01*
X015070Y013734D01*
X015136Y013800D01*
X015136Y014168D01*
X015070Y014234D01*
X015136Y014300D01*
X015136Y014668D01*
X015060Y014744D01*
X014153Y014744D01*
X014076Y014668D01*
X014076Y014664D01*
X013111Y014664D01*
X012466Y015309D01*
X012361Y015414D01*
X010466Y015414D01*
X010466Y015554D01*
X013856Y015554D01*
X013856Y015160D01*
X013962Y015054D01*
X020106Y015054D01*
X020106Y014664D01*
X018996Y014664D01*
X018996Y014668D01*
X018920Y014744D01*
X018013Y014744D01*
X017936Y014668D01*
X017936Y014300D01*
X018003Y014234D01*
X017936Y014168D01*
X017936Y013800D01*
X018003Y013734D01*
X017936Y013668D01*
X017936Y013300D01*
X018003Y013234D01*
X017936Y013168D01*
X017936Y012800D01*
X018003Y012734D01*
X017936Y012668D01*
X017936Y012300D01*
X018003Y012234D01*
X017936Y012168D01*
X017936Y011800D01*
X018003Y011734D01*
X017936Y011668D01*
X017936Y011300D01*
X018003Y011234D01*
X017936Y011168D01*
X017936Y010800D01*
X018003Y010734D01*
X017936Y010668D01*
X017936Y010300D01*
X018013Y010224D01*
X018920Y010224D01*
X018950Y010254D01*
X020302Y010254D01*
X020351Y010206D01*
X020471Y010156D01*
X020602Y010156D01*
X020722Y010206D01*
X020815Y010298D01*
X020865Y010419D01*
X020865Y010549D01*
X020815Y010670D01*
X020722Y010762D01*
X020621Y010804D01*
X021356Y010804D01*
X021356Y009660D01*
X021462Y009554D01*
X027356Y009554D01*
X027356Y009201D01*
X027253Y009158D01*
X027113Y009017D01*
X027036Y008834D01*
X027036Y008635D01*
X027113Y008451D01*
X027253Y008310D01*
X027437Y008234D01*
X027334Y008191D01*
X026111Y009414D01*
X024746Y009414D01*
X024746Y009418D01*
X024670Y009494D01*
X023763Y009494D01*
X023686Y009418D01*
X023686Y009050D01*
X023753Y008984D01*
X023686Y008918D01*
X023686Y008550D01*
X023753Y008484D01*
X023686Y008418D01*
X023686Y008050D01*
X023753Y007984D01*
X023686Y007918D01*
X023686Y007550D01*
X023753Y007484D01*
X023686Y007418D01*
X023686Y007050D01*
X023753Y006984D01*
X023686Y006918D01*
X023686Y006550D01*
X023753Y006484D01*
X023686Y006418D01*
X023686Y006050D01*
X023753Y005984D01*
X023686Y005918D01*
X023686Y005550D01*
X023753Y005484D01*
X023752Y005483D01*
X023722Y005512D01*
X023602Y005562D01*
X023471Y005562D01*
X023351Y005512D01*
X023258Y005420D01*
X023208Y005299D01*
X023208Y005169D01*
X023258Y005048D01*
X023351Y004956D01*
X023471Y004906D01*
X023602Y004906D01*
X023650Y004926D01*
X023654Y004923D01*
X023689Y004928D01*
X023722Y004915D01*
X023780Y004941D01*
X024018Y004974D01*
X024670Y004974D01*
X024746Y005050D01*
X024746Y005270D01*
X024856Y005160D01*
X024856Y003160D01*
X027079Y000937D01*
X027036Y000834D01*
X027036Y000684D01*
X024521Y000684D01*
X024701Y000732D01*
X024946Y000874D01*
X025147Y001074D01*
X025288Y001319D01*
X025361Y001593D01*
X025361Y001876D01*
X025288Y002149D01*
X025147Y002394D01*
X024946Y002594D01*
X024701Y002736D01*
X024428Y002809D01*
X024145Y002809D01*
X023871Y002736D01*
X023626Y002594D01*
X023426Y002394D01*
X023285Y002149D01*
X023211Y001876D01*
X023211Y001593D01*
X023285Y001319D01*
X023426Y001074D01*
X023626Y000874D01*
X023871Y000732D01*
X024052Y000684D01*
X022536Y000684D01*
X022536Y000834D01*
X022460Y001017D01*
X022320Y001158D01*
X022136Y001234D01*
X021937Y001234D01*
X021753Y001158D01*
X021613Y001017D01*
X021544Y000852D01*
X021544Y000856D01*
X021518Y000934D01*
X021481Y001007D01*
X021433Y001073D01*
X021375Y001131D01*
X021309Y001179D01*
X021236Y001216D01*
X021158Y001241D01*
X021086Y001253D01*
X021086Y000784D01*
X020986Y000784D01*
X020986Y000684D01*
X020518Y000684D01*
X020055Y000684D01*
X020055Y000684D01*
X019586Y000684D01*
X019586Y000784D01*
X019486Y000784D01*
X019486Y001253D01*
X019415Y001241D01*
X019337Y001216D01*
X019264Y001179D01*
X019198Y001131D01*
X019140Y001073D01*
X019092Y001007D01*
X019055Y000934D01*
X019029Y000856D01*
X019029Y000852D01*
X018960Y001017D01*
X018820Y001158D01*
X018636Y001234D01*
X018437Y001234D01*
X018384Y001212D01*
X018291Y001305D01*
X018351Y001365D01*
X018351Y001504D01*
X018632Y001504D01*
X019034Y001906D01*
X019102Y001906D01*
X019222Y001956D01*
X019315Y002048D01*
X019365Y002169D01*
X019365Y002299D01*
X019315Y002420D01*
X019222Y002512D01*
X019102Y002562D01*
X018971Y002562D01*
X018851Y002512D01*
X018758Y002420D01*
X018708Y002299D01*
X018708Y002231D01*
X018441Y001964D01*
X018351Y001964D01*
X018351Y002103D01*
X018275Y002179D01*
X017314Y002179D01*
X016029Y003464D01*
X014466Y003464D01*
X014466Y006704D01*
X014472Y006706D01*
X014565Y006798D01*
X014615Y006919D01*
X014615Y007049D01*
X014565Y007170D01*
X014472Y007262D01*
X014352Y007312D01*
X014221Y007312D01*
X014101Y007262D01*
X014008Y007170D01*
X013958Y007049D01*
X013958Y006919D01*
X013960Y006914D01*
X011462Y006914D01*
X011356Y006809D01*
X010772Y006224D01*
X010772Y004081D01*
X010701Y004081D01*
X010625Y004005D01*
X010625Y003464D01*
X010701Y003388D01*
X011202Y003388D01*
X011279Y003464D01*
X011279Y004005D01*
X011202Y004081D01*
X011132Y004081D01*
X011132Y006075D01*
X011611Y006554D01*
X011952Y006554D01*
X011851Y006512D01*
X011758Y006420D01*
X011708Y006299D01*
X011708Y006169D01*
X011758Y006048D01*
X011851Y005956D01*
X011856Y005954D01*
X011856Y005915D01*
X011786Y005915D01*
X011710Y005839D01*
X011710Y005298D01*
X011774Y005234D01*
X011710Y005170D01*
X011710Y004768D01*
X011602Y004812D01*
X011471Y004812D01*
X011351Y004762D01*
X011258Y004670D01*
X011208Y004549D01*
X011208Y004419D01*
X011258Y004298D01*
X011351Y004206D01*
X011356Y004204D01*
X011356Y004067D01*
X011294Y004005D01*
X011294Y003464D01*
X011370Y003388D01*
X011466Y003388D01*
X011508Y002800D01*
X010907Y002800D01*
X010907Y002930D01*
X010830Y003006D01*
X010112Y003006D01*
X010036Y002930D01*
X010036Y002800D01*
X009712Y002800D01*
X009606Y002695D01*
X009606Y002258D01*
X009555Y002258D01*
X009479Y002182D01*
X009479Y001798D01*
X009544Y001734D01*
X009479Y001670D01*
X009479Y001658D01*
X009319Y001658D01*
X009136Y001734D01*
X008937Y001734D01*
X008753Y001658D01*
X008613Y001517D01*
X008536Y001334D01*
X008536Y001135D01*
X008613Y000951D01*
X008753Y000810D01*
X008937Y000734D01*
X009136Y000734D01*
X009320Y000810D01*
X009460Y000951D01*
X009536Y001135D01*
X009536Y001229D01*
X009555Y001210D01*
X010017Y001210D01*
X010094Y001287D01*
X010094Y001670D01*
X010029Y001734D01*
X010094Y001798D01*
X010094Y002182D01*
X010017Y002258D01*
X009966Y002258D01*
X009966Y002440D01*
X010036Y002440D01*
X010036Y002310D01*
X010112Y002234D01*
X010830Y002234D01*
X010907Y002310D01*
X010907Y002440D01*
X011635Y002440D01*
X011640Y002435D01*
X011708Y002440D01*
X011776Y002440D01*
X011782Y002445D01*
X011789Y002446D01*
X011834Y002497D01*
X011882Y002545D01*
X011882Y002553D01*
X011887Y002559D01*
X011882Y002627D01*
X011882Y002695D01*
X011876Y002700D01*
X011827Y003388D01*
X011872Y003388D01*
X011948Y003464D01*
X011948Y004005D01*
X011872Y004081D01*
X011716Y004081D01*
X011716Y004204D01*
X011722Y004206D01*
X011815Y004298D01*
X011865Y004419D01*
X011865Y004549D01*
X011863Y004553D01*
X012287Y004553D01*
X012363Y004629D01*
X012363Y004720D01*
X012536Y004720D01*
X012536Y004635D01*
X012613Y004451D01*
X012753Y004310D01*
X012937Y004234D01*
X012753Y004158D01*
X012613Y004017D01*
X012536Y003834D01*
X012536Y003635D01*
X012613Y003451D01*
X012753Y003310D01*
X012937Y003234D01*
X013136Y003234D01*
X013189Y003256D01*
X013306Y003139D01*
X013439Y003006D01*
X013242Y003006D01*
X013166Y002930D01*
X013166Y002310D01*
X013242Y002234D01*
X013960Y002234D01*
X014036Y002310D01*
X014036Y002930D01*
X013962Y003004D01*
X015839Y003004D01*
X016664Y002179D01*
X016593Y002179D01*
X016517Y002103D01*
X016517Y001365D01*
X016593Y001289D01*
X017656Y001289D01*
X018058Y000887D01*
X018036Y000834D01*
X018036Y000684D01*
X014036Y000684D01*
X014036Y001158D01*
X013960Y001234D01*
X013242Y001234D01*
X013166Y001158D01*
X013166Y000684D01*
X010927Y000684D01*
X010927Y000798D01*
X010521Y000798D01*
X010521Y000898D01*
X010421Y000898D01*
X010421Y000798D01*
X010016Y000798D01*
X010016Y000684D01*
X003007Y000684D01*
X003147Y000824D01*
X003288Y001069D01*
X003361Y001343D01*
X003361Y001626D01*
X003288Y001899D01*
X003147Y002144D01*
X002946Y002344D01*
X002701Y002486D01*
X002428Y002559D01*
X002145Y002559D01*
X001871Y002486D01*
X001626Y002344D01*
X001486Y002204D01*
X001486Y002303D02*
X001585Y002303D01*
X001486Y002401D02*
X001725Y002401D01*
X001923Y002500D02*
X001486Y002500D01*
X001486Y002598D02*
X005356Y002598D01*
X005356Y002500D02*
X002650Y002500D01*
X002848Y002401D02*
X005356Y002401D01*
X005356Y002303D02*
X002988Y002303D01*
X003087Y002204D02*
X005356Y002204D01*
X005356Y002106D02*
X003169Y002106D01*
X003226Y002007D02*
X005356Y002007D01*
X005356Y001909D02*
X003283Y001909D01*
X003312Y001810D02*
X005356Y001810D01*
X005356Y001712D02*
X005245Y001712D01*
X005086Y001712D02*
X004986Y001712D01*
X004986Y001613D02*
X005086Y001613D01*
X005086Y001515D02*
X004986Y001515D01*
X004986Y001416D02*
X005086Y001416D01*
X005086Y001318D02*
X004986Y001318D01*
X004986Y001121D02*
X005086Y001121D01*
X005086Y001022D02*
X004986Y001022D01*
X004986Y000924D02*
X005086Y000924D01*
X005086Y000825D02*
X004986Y000825D01*
X004986Y000727D02*
X005086Y000727D01*
X005156Y000727D02*
X010016Y000727D01*
X010016Y000898D02*
X010421Y000898D01*
X010421Y001254D01*
X010147Y001254D01*
X010108Y001244D01*
X010074Y001224D01*
X010046Y001196D01*
X010027Y001162D01*
X010016Y001124D01*
X010016Y000898D01*
X010016Y000924D02*
X009433Y000924D01*
X009490Y001022D02*
X010016Y001022D01*
X010016Y001121D02*
X009531Y001121D01*
X009536Y001219D02*
X009547Y001219D01*
X009786Y001478D02*
X009036Y001478D01*
X009036Y001234D01*
X008571Y001416D02*
X008502Y001416D01*
X008491Y001515D02*
X008611Y001515D01*
X008570Y001613D02*
X008708Y001613D01*
X008649Y001712D02*
X008883Y001712D01*
X008728Y001810D02*
X009479Y001810D01*
X009479Y001909D02*
X008807Y001909D01*
X008885Y002007D02*
X009479Y002007D01*
X009479Y002106D02*
X008964Y002106D01*
X009043Y002204D02*
X009502Y002204D01*
X009606Y002303D02*
X009122Y002303D01*
X009201Y002401D02*
X009606Y002401D01*
X009606Y002500D02*
X009279Y002500D01*
X009358Y002598D02*
X009606Y002598D01*
X009609Y002697D02*
X009437Y002697D01*
X009516Y002795D02*
X009707Y002795D01*
X009595Y002894D02*
X010036Y002894D01*
X010099Y002992D02*
X009673Y002992D01*
X009752Y003091D02*
X011487Y003091D01*
X011480Y003189D02*
X009831Y003189D01*
X009910Y003288D02*
X011473Y003288D01*
X011466Y003386D02*
X009989Y003386D01*
X010067Y003485D02*
X010625Y003485D01*
X010625Y003583D02*
X010146Y003583D01*
X010223Y003682D02*
X010625Y003682D01*
X010625Y003780D02*
X010216Y003780D01*
X010216Y003879D02*
X010625Y003879D01*
X010625Y003977D02*
X010216Y003977D01*
X010216Y004076D02*
X010696Y004076D01*
X010772Y004174D02*
X010216Y004174D01*
X010216Y004273D02*
X010772Y004273D01*
X010772Y004371D02*
X010216Y004371D01*
X010216Y004470D02*
X010772Y004470D01*
X010772Y004568D02*
X010216Y004568D01*
X010216Y004667D02*
X010772Y004667D01*
X010772Y004765D02*
X010216Y004765D01*
X010216Y004864D02*
X010772Y004864D01*
X010772Y004962D02*
X010216Y004962D01*
X010216Y005061D02*
X010772Y005061D01*
X010772Y005159D02*
X010216Y005159D01*
X010216Y005258D02*
X010772Y005258D01*
X010772Y005356D02*
X010216Y005356D01*
X010216Y005455D02*
X010772Y005455D01*
X010772Y005553D02*
X010216Y005553D01*
X010216Y005652D02*
X010772Y005652D01*
X010772Y005750D02*
X010216Y005750D01*
X010216Y005849D02*
X010772Y005849D01*
X010772Y005947D02*
X010216Y005947D01*
X010216Y006046D02*
X010772Y006046D01*
X010772Y006144D02*
X010216Y006144D01*
X010216Y006243D02*
X010790Y006243D01*
X010889Y006341D02*
X010216Y006341D01*
X010216Y006440D02*
X010987Y006440D01*
X011086Y006538D02*
X010216Y006538D01*
X010216Y006637D02*
X011184Y006637D01*
X011283Y006735D02*
X010216Y006735D01*
X010191Y006834D02*
X011381Y006834D01*
X011536Y006734D02*
X014235Y006734D01*
X014286Y006785D01*
X014286Y003234D01*
X014106Y003464D02*
X013632Y003464D01*
X013514Y003581D01*
X013536Y003635D01*
X013536Y003834D01*
X013460Y004017D01*
X013320Y004158D01*
X013136Y004234D01*
X012937Y004234D01*
X013136Y004234D01*
X013320Y004310D01*
X013460Y004451D01*
X013536Y004635D01*
X013536Y004834D01*
X013460Y005017D01*
X013320Y005158D01*
X013155Y005226D01*
X013158Y005227D01*
X013236Y005252D01*
X013309Y005289D01*
X013375Y005338D01*
X013433Y005395D01*
X013481Y005462D01*
X013518Y005535D01*
X013544Y005612D01*
X013555Y005684D01*
X013086Y005684D01*
X013086Y005784D01*
X012986Y005784D01*
X012986Y005684D01*
X012518Y005684D01*
X012529Y005612D01*
X012555Y005535D01*
X012592Y005462D01*
X012640Y005395D01*
X012698Y005338D01*
X012764Y005289D01*
X012837Y005252D01*
X012915Y005227D01*
X012918Y005226D01*
X012753Y005158D01*
X012675Y005080D01*
X012363Y005080D01*
X012363Y005170D01*
X012299Y005234D01*
X012363Y005298D01*
X012363Y005839D01*
X012287Y005915D01*
X012216Y005915D01*
X012216Y005954D01*
X012222Y005956D01*
X012315Y006048D01*
X012365Y006169D01*
X012365Y006299D01*
X012315Y006420D01*
X012222Y006512D01*
X012121Y006554D01*
X014106Y006554D01*
X014106Y003464D01*
X014106Y003485D02*
X013611Y003485D01*
X013515Y003583D02*
X014106Y003583D01*
X014106Y003682D02*
X013536Y003682D01*
X013536Y003780D02*
X014106Y003780D01*
X014106Y003879D02*
X013518Y003879D01*
X013477Y003977D02*
X014106Y003977D01*
X014106Y004076D02*
X013402Y004076D01*
X013281Y004174D02*
X014106Y004174D01*
X014106Y004273D02*
X013229Y004273D01*
X013381Y004371D02*
X014106Y004371D01*
X014106Y004470D02*
X013468Y004470D01*
X013509Y004568D02*
X014106Y004568D01*
X014106Y004667D02*
X013536Y004667D01*
X013536Y004765D02*
X014106Y004765D01*
X014106Y004864D02*
X013524Y004864D01*
X013483Y004962D02*
X014106Y004962D01*
X014106Y005061D02*
X013417Y005061D01*
X013317Y005159D02*
X014106Y005159D01*
X014106Y005258D02*
X013247Y005258D01*
X013394Y005356D02*
X014106Y005356D01*
X014106Y005455D02*
X013476Y005455D01*
X013524Y005553D02*
X014106Y005553D01*
X014106Y005652D02*
X013550Y005652D01*
X013555Y005784D02*
X013086Y005784D01*
X013086Y006253D01*
X013158Y006241D01*
X013236Y006216D01*
X013309Y006179D01*
X013375Y006131D01*
X013433Y006073D01*
X013481Y006007D01*
X013518Y005934D01*
X013544Y005856D01*
X013555Y005784D01*
X013545Y005849D02*
X014106Y005849D01*
X014106Y005947D02*
X013511Y005947D01*
X013453Y006046D02*
X014106Y006046D01*
X014106Y006144D02*
X013357Y006144D01*
X013150Y006243D02*
X014106Y006243D01*
X014106Y006341D02*
X012347Y006341D01*
X012365Y006243D02*
X012923Y006243D01*
X012915Y006241D02*
X012837Y006216D01*
X012764Y006179D01*
X012698Y006131D01*
X012640Y006073D01*
X012592Y006007D01*
X012555Y005934D01*
X012529Y005856D01*
X012518Y005784D01*
X012986Y005784D01*
X012986Y006253D01*
X012915Y006241D01*
X012986Y006243D02*
X013086Y006243D01*
X013086Y006144D02*
X012986Y006144D01*
X012986Y006046D02*
X013086Y006046D01*
X013086Y005947D02*
X012986Y005947D01*
X012986Y005849D02*
X013086Y005849D01*
X013086Y005750D02*
X014106Y005750D01*
X014466Y005750D02*
X014806Y005750D01*
X014751Y005652D02*
X014466Y005652D01*
X014466Y005553D02*
X014710Y005553D01*
X014708Y005455D02*
X014466Y005455D01*
X014466Y005356D02*
X014734Y005356D01*
X014799Y005258D02*
X014466Y005258D01*
X014466Y005159D02*
X014754Y005159D01*
X014713Y005061D02*
X014466Y005061D01*
X014466Y004962D02*
X014708Y004962D01*
X014731Y004864D02*
X014466Y004864D01*
X014466Y004765D02*
X014791Y004765D01*
X014757Y004667D02*
X014466Y004667D01*
X014466Y004568D02*
X014716Y004568D01*
X014708Y004470D02*
X014466Y004470D01*
X014466Y004371D02*
X014728Y004371D01*
X014784Y004273D02*
X014466Y004273D01*
X014466Y004174D02*
X014927Y004174D01*
X015145Y004174D02*
X015288Y004174D01*
X015289Y004273D02*
X015324Y004273D01*
X015276Y004076D02*
X014466Y004076D01*
X014466Y003977D02*
X015811Y003977D01*
X015841Y003977D02*
X017716Y003977D01*
X017716Y003879D02*
X016376Y003879D01*
X016357Y003780D02*
X017737Y003780D01*
X017716Y004076D02*
X016376Y004076D01*
X016365Y004174D02*
X017723Y004174D01*
X017744Y004273D02*
X016329Y004273D01*
X016356Y004371D02*
X017716Y004371D01*
X017716Y004470D02*
X016356Y004470D01*
X016356Y004568D02*
X017716Y004568D01*
X017716Y004667D02*
X016356Y004667D01*
X016321Y004765D02*
X017752Y004765D01*
X018246Y004984D02*
X016536Y004984D01*
X016536Y007984D01*
X009536Y007984D01*
X009536Y011484D01*
X009536Y020984D01*
X009286Y020984D01*
X007286Y020984D01*
X007286Y021944D01*
X007786Y021944D02*
X007786Y022484D01*
X009536Y022484D01*
X009536Y023234D01*
X014286Y023234D01*
X014286Y019484D01*
X014286Y017900D01*
X013536Y017900D01*
X012536Y017900D01*
X011536Y017900D01*
X011210Y017866D02*
X010966Y017866D01*
X010966Y017964D02*
X011210Y017964D01*
X011210Y018063D02*
X010966Y018063D01*
X010966Y018161D02*
X011210Y018161D01*
X011210Y018170D02*
X011210Y017664D01*
X010966Y017664D01*
X010966Y018809D01*
X010861Y018914D01*
X009966Y018914D01*
X009966Y022019D01*
X009861Y022124D01*
X008546Y022124D01*
X008546Y022304D01*
X009611Y022304D01*
X009716Y022410D01*
X009716Y023054D01*
X010452Y023054D01*
X010351Y023012D01*
X010258Y022920D01*
X010208Y022799D01*
X010208Y022669D01*
X010258Y022548D01*
X010322Y022484D01*
X010112Y022484D01*
X010036Y022408D01*
X010036Y021789D01*
X010112Y021712D01*
X010830Y021712D01*
X010907Y021789D01*
X010907Y022408D01*
X010830Y022484D01*
X010751Y022484D01*
X010815Y022548D01*
X010817Y022554D01*
X012256Y022554D01*
X012258Y022548D01*
X012351Y022456D01*
X012471Y022406D01*
X012602Y022406D01*
X012722Y022456D01*
X012815Y022548D01*
X012817Y022554D01*
X013421Y022554D01*
X013421Y022484D01*
X013242Y022484D01*
X013166Y022408D01*
X013166Y021789D01*
X013242Y021712D01*
X013960Y021712D01*
X014036Y021789D01*
X014036Y022408D01*
X013960Y022484D01*
X013781Y022484D01*
X013781Y022809D01*
X013676Y022914D01*
X012817Y022914D01*
X012815Y022920D01*
X012722Y023012D01*
X012621Y023054D01*
X014106Y023054D01*
X014106Y019765D01*
X014101Y019762D01*
X014016Y019678D01*
X013960Y019734D01*
X013716Y019734D01*
X013716Y020309D01*
X013611Y020414D01*
X010712Y020414D01*
X010608Y020310D01*
X010602Y020312D01*
X010471Y020312D01*
X010351Y020262D01*
X010258Y020170D01*
X010208Y020049D01*
X010208Y019919D01*
X010258Y019798D01*
X010322Y019734D01*
X010112Y019734D01*
X010036Y019658D01*
X010036Y019039D01*
X010112Y018962D01*
X010830Y018962D01*
X010907Y019039D01*
X010907Y019658D01*
X010830Y019734D01*
X010751Y019734D01*
X010815Y019798D01*
X010865Y019919D01*
X010865Y020049D01*
X010863Y020054D01*
X011452Y020054D01*
X011351Y020012D01*
X011258Y019920D01*
X011208Y019799D01*
X011208Y019669D01*
X011258Y019548D01*
X011351Y019456D01*
X011356Y019454D01*
X011356Y018915D01*
X011286Y018915D01*
X011210Y018839D01*
X011210Y018298D01*
X011274Y018234D01*
X011210Y018170D01*
X011248Y018260D02*
X010966Y018260D01*
X010966Y018358D02*
X011210Y018358D01*
X011210Y018457D02*
X010966Y018457D01*
X010966Y018555D02*
X011210Y018555D01*
X011210Y018654D02*
X010966Y018654D01*
X010966Y018752D02*
X011210Y018752D01*
X011221Y018851D02*
X010924Y018851D01*
X010786Y018734D02*
X009786Y018734D01*
X009786Y021944D01*
X008286Y021944D01*
X008546Y022200D02*
X010036Y022200D01*
X010036Y022298D02*
X008546Y022298D01*
X008621Y022664D02*
X008722Y022706D01*
X008815Y022798D01*
X008865Y022919D01*
X008865Y023049D01*
X008815Y023170D01*
X008722Y023262D01*
X008602Y023312D01*
X008471Y023312D01*
X008465Y023310D01*
X007986Y023790D01*
X008026Y023830D01*
X008036Y023812D01*
X008064Y023784D01*
X008099Y023764D01*
X008137Y023754D01*
X008271Y023754D01*
X008271Y024289D01*
X008301Y024289D01*
X008301Y023754D01*
X008436Y023754D01*
X008474Y023764D01*
X008509Y023784D01*
X008536Y023812D01*
X008556Y023846D01*
X008566Y023884D01*
X008566Y024289D01*
X008301Y024289D01*
X008301Y024319D01*
X008271Y024319D01*
X008271Y024854D01*
X008137Y024854D01*
X008099Y024844D01*
X008064Y024824D01*
X008036Y024796D01*
X008026Y024778D01*
X007970Y024834D01*
X007603Y024834D01*
X007536Y024768D01*
X007470Y024834D01*
X007103Y024834D01*
X007036Y024768D01*
X006970Y024834D01*
X006603Y024834D01*
X006536Y024768D01*
X006470Y024834D01*
X006103Y024834D01*
X006036Y024768D01*
X005970Y024834D01*
X005603Y024834D01*
X005536Y024768D01*
X005470Y024834D01*
X005103Y024834D01*
X005036Y024768D01*
X004970Y024834D01*
X004603Y024834D01*
X004536Y024768D01*
X004470Y024834D01*
X004103Y024834D01*
X004026Y024758D01*
X004026Y023979D01*
X003212Y023164D01*
X003106Y023059D01*
X003106Y022914D01*
X002567Y022914D01*
X002565Y022920D01*
X002472Y023012D01*
X002352Y023062D01*
X002221Y023062D01*
X002101Y023012D01*
X002036Y022948D01*
X002036Y023658D01*
X001960Y023734D01*
X001486Y023734D01*
X001486Y023734D01*
X001636Y023734D01*
X001820Y023810D01*
X001960Y023951D01*
X002003Y024054D01*
X002105Y024054D01*
X002105Y023983D01*
X002181Y023907D01*
X002722Y023907D01*
X002786Y023972D01*
X002851Y023907D01*
X003391Y023907D01*
X003468Y023983D01*
X003468Y024485D01*
X003391Y024561D01*
X003301Y024561D01*
X003301Y024907D01*
X003391Y024907D01*
X003468Y024983D01*
X003468Y025054D01*
X004361Y025054D01*
X004466Y025160D01*
X004466Y027634D01*
X004470Y027634D01*
X004536Y027700D01*
X004603Y027634D01*
X004970Y027634D01*
X005036Y027700D01*
X005103Y027634D01*
X005470Y027634D01*
X005536Y027700D01*
X005603Y027634D01*
X005970Y027634D01*
X006036Y027700D01*
X006103Y027634D01*
X006470Y027634D01*
X006536Y027700D01*
X006603Y027634D01*
X006970Y027634D01*
X007036Y027700D01*
X007103Y027634D01*
X007470Y027634D01*
X007536Y027700D01*
X007603Y027634D01*
X007970Y027634D01*
X008036Y027700D01*
X008103Y027634D01*
X008165Y027634D01*
X008290Y025951D01*
X008258Y025920D01*
X008208Y025799D01*
X008208Y025669D01*
X008258Y025548D01*
X008351Y025456D01*
X008471Y025406D01*
X008602Y025406D01*
X008722Y025456D01*
X008815Y025548D01*
X008865Y025669D01*
X008865Y025799D01*
X008815Y025920D01*
X008748Y025986D01*
X008586Y028173D01*
X008586Y028259D01*
X008579Y028266D01*
X008579Y028276D01*
X008546Y028304D01*
X008546Y028554D01*
X011729Y028554D01*
X012855Y027759D01*
X012855Y027483D01*
X012931Y027407D01*
X013472Y027407D01*
X013536Y027472D01*
X013601Y027407D01*
X014141Y027407D01*
X014218Y027483D01*
X014218Y027554D01*
X014320Y027554D01*
X014363Y027451D01*
X014503Y027310D01*
X014687Y027234D01*
X014886Y027234D01*
X015070Y027310D01*
X015106Y027347D01*
X015106Y025694D01*
X015103Y025694D01*
X015026Y025618D01*
X015026Y024710D01*
X015103Y024634D01*
X015470Y024634D01*
X015536Y024700D01*
X015603Y024634D01*
X015970Y024634D01*
X016036Y024700D01*
X016103Y024634D01*
X016470Y024634D01*
X016536Y024700D01*
X016603Y024634D01*
X016970Y024634D01*
X017036Y024700D01*
X017103Y024634D01*
X017470Y024634D01*
X017536Y024700D01*
X017603Y024634D01*
X017970Y024634D01*
X018036Y024700D01*
X018103Y024634D01*
X018470Y024634D01*
X018536Y024700D01*
X018603Y024634D01*
X018970Y024634D01*
X019036Y024700D01*
X019095Y024642D01*
X019126Y024226D01*
X019126Y024139D01*
X019133Y024132D01*
X019134Y024122D01*
X019200Y024065D01*
X019261Y024004D01*
X019271Y024004D01*
X019279Y023998D01*
X019365Y024004D01*
X019802Y024004D01*
X019851Y023956D01*
X019971Y023906D01*
X020102Y023906D01*
X020222Y023956D01*
X020315Y024048D01*
X020365Y024169D01*
X020365Y024299D01*
X020315Y024420D01*
X020222Y024512D01*
X020102Y024562D01*
X019971Y024562D01*
X019851Y024512D01*
X019802Y024464D01*
X019570Y024464D01*
X019546Y024774D01*
X019546Y025554D01*
X025111Y025554D01*
X025216Y025660D01*
X025216Y026574D01*
X025285Y026319D01*
X025426Y026074D01*
X025626Y025874D01*
X025871Y025732D01*
X026145Y025659D01*
X026428Y025659D01*
X026701Y025732D01*
X026946Y025874D01*
X027147Y026074D01*
X027288Y026319D01*
X027361Y026593D01*
X027361Y026876D01*
X027288Y027149D01*
X027147Y027394D01*
X026946Y027594D01*
X026701Y027736D01*
X026428Y027809D01*
X026145Y027809D01*
X025871Y027736D01*
X025626Y027594D01*
X025426Y027394D01*
X025285Y027149D01*
X025216Y026894D01*
X025216Y028407D01*
X025472Y028407D01*
X025536Y028472D01*
X025601Y028407D01*
X026141Y028407D01*
X026218Y028483D01*
X026218Y028554D01*
X026320Y028554D01*
X026363Y028451D01*
X026503Y028310D01*
X026687Y028234D01*
X026886Y028234D01*
X027070Y028310D01*
X027210Y028451D01*
X027286Y028635D01*
X027286Y028834D01*
X027210Y029017D01*
X027070Y029158D01*
X026886Y029234D01*
X026687Y029234D01*
X026503Y029158D01*
X026363Y029017D01*
X026320Y028914D01*
X026218Y028914D01*
X026218Y028985D01*
X026141Y029061D01*
X025601Y029061D01*
X025536Y028997D01*
X025472Y029061D01*
X025382Y029061D01*
X025382Y029407D01*
X025472Y029407D01*
X025536Y029472D01*
X025601Y029407D01*
X026141Y029407D01*
X026218Y029483D01*
X026218Y029554D01*
X026320Y029554D01*
X026363Y029451D01*
X026503Y029310D01*
X026687Y029234D01*
X026886Y029234D01*
X027070Y029310D01*
X027210Y029451D01*
X027286Y029635D01*
X027286Y029834D01*
X027210Y030017D01*
X027070Y030158D01*
X026886Y030234D01*
X026687Y030234D01*
X026503Y030158D01*
X026363Y030017D01*
X026320Y029914D01*
X026218Y029914D01*
X026218Y029985D01*
X026141Y030061D01*
X025601Y030061D01*
X025536Y029997D01*
X025472Y030061D01*
X025382Y030061D01*
X025382Y030407D01*
X025472Y030407D01*
X025536Y030472D01*
X025601Y030407D01*
X026141Y030407D01*
X026218Y030483D01*
X026218Y030554D01*
X026320Y030554D01*
X026363Y030451D01*
X026503Y030310D01*
X026687Y030234D01*
X026886Y030234D01*
X027070Y030310D01*
X027210Y030451D01*
X027286Y030635D01*
X027286Y030834D01*
X027210Y031017D01*
X027070Y031158D01*
X026886Y031234D01*
X026687Y031234D01*
X026503Y031158D01*
X026363Y031017D01*
X026320Y030914D01*
X026218Y030914D01*
X026218Y030985D01*
X026141Y031061D01*
X025601Y031061D01*
X025536Y030997D01*
X025472Y031061D01*
X024931Y031061D01*
X024855Y030985D01*
X024855Y030483D01*
X024931Y030407D01*
X025022Y030407D01*
X025022Y030061D01*
X024931Y030061D01*
X024855Y029985D01*
X024855Y029483D01*
X024931Y029407D01*
X025022Y029407D01*
X025022Y029061D01*
X024931Y029061D01*
X024855Y028985D01*
X024855Y028483D01*
X024856Y028482D01*
X024856Y025914D01*
X024716Y025914D01*
X024716Y031554D01*
X024855Y031554D01*
X024855Y031483D01*
X024931Y031407D01*
X025472Y031407D01*
X025536Y031472D01*
X025601Y031407D01*
X026141Y031407D01*
X026218Y031483D01*
X026218Y031554D01*
X026320Y031554D01*
X026363Y031451D01*
X026503Y031310D01*
X026687Y031234D01*
X026886Y031234D01*
X027070Y031310D01*
X027210Y031451D01*
X027286Y031635D01*
X027286Y031834D01*
X027210Y032017D01*
X027070Y032158D01*
X026886Y032234D01*
X026687Y032234D01*
X026503Y032158D01*
X026363Y032017D01*
X026320Y031914D01*
X026218Y031914D01*
X026218Y031985D01*
X026141Y032061D01*
X025601Y032061D01*
X025536Y031997D01*
X025472Y032061D01*
X025382Y032061D01*
X025382Y032407D01*
X025472Y032407D01*
X025536Y032472D01*
X025601Y032407D01*
X026141Y032407D01*
X026218Y032483D01*
X026218Y032554D01*
X026320Y032554D01*
X026363Y032451D01*
X026503Y032310D01*
X026687Y032234D01*
X026886Y032234D01*
X027070Y032310D01*
X027210Y032451D01*
X027286Y032635D01*
X027286Y032834D01*
X027210Y033017D01*
X027070Y033158D01*
X026886Y033234D01*
X026687Y033234D01*
X026503Y033158D01*
X026363Y033017D01*
X026320Y032914D01*
X026218Y032914D01*
X026218Y032985D01*
X026141Y033061D01*
X025601Y033061D01*
X025536Y032997D01*
X025472Y033061D01*
X025382Y033061D01*
X025382Y033407D01*
X025472Y033407D01*
X025536Y033472D01*
X025601Y033407D01*
X026141Y033407D01*
X026218Y033483D01*
X026218Y033554D01*
X026320Y033554D01*
X026363Y033451D01*
X026503Y033310D01*
X026687Y033234D01*
X026886Y033234D01*
X027070Y033310D01*
X027210Y033451D01*
X027286Y033635D01*
X027286Y033834D01*
X027210Y034017D01*
X027070Y034158D01*
X026886Y034234D01*
X026687Y034234D01*
X026503Y034158D01*
X026363Y034017D01*
X026320Y033914D01*
X026218Y033914D01*
X026218Y033985D01*
X026141Y034061D01*
X025601Y034061D01*
X025536Y033997D01*
X025472Y034061D01*
X025382Y034061D01*
X025382Y034407D01*
X025472Y034407D01*
X025536Y034472D01*
X025601Y034407D01*
X026141Y034407D01*
X026218Y034483D01*
X026218Y034554D01*
X026286Y034554D01*
X026286Y034310D01*
X026363Y034234D01*
X027210Y034234D01*
X027286Y034310D01*
X027286Y034784D01*
X027586Y034784D01*
X027586Y025484D01*
X027437Y025484D01*
X027253Y025408D01*
X027113Y025267D01*
X027036Y025084D01*
X026960Y025267D01*
X026820Y025408D01*
X026636Y025484D01*
X026437Y025484D01*
X026253Y025408D01*
X026113Y025267D01*
X026036Y025084D01*
X025960Y025267D01*
X025820Y025408D01*
X025636Y025484D01*
X025437Y025484D01*
X025253Y025408D01*
X025113Y025267D01*
X025036Y025084D01*
X024960Y025267D01*
X024820Y025408D01*
X024636Y025484D01*
X024437Y025484D01*
X024253Y025408D01*
X024113Y025267D01*
X024036Y025084D01*
X023960Y025267D01*
X023820Y025408D01*
X023636Y025484D01*
X023437Y025484D01*
X023253Y025408D01*
X023113Y025267D01*
X023036Y025084D01*
X023036Y024885D01*
X023113Y024701D01*
X023253Y024560D01*
X023356Y024518D01*
X023356Y024415D01*
X023286Y024415D01*
X023210Y024339D01*
X023210Y023798D01*
X023274Y023734D01*
X023210Y023670D01*
X023210Y023580D01*
X022462Y023580D01*
X022356Y023474D01*
X022356Y020664D01*
X020212Y020664D01*
X020106Y020559D01*
X020106Y020069D01*
X020065Y020170D01*
X019972Y020262D01*
X019852Y020312D01*
X019721Y020312D01*
X019715Y020310D01*
X019271Y020754D01*
X019271Y020754D01*
X019271Y021289D01*
X019301Y021289D01*
X019301Y020754D01*
X019436Y020754D01*
X019474Y020764D01*
X019509Y020784D01*
X019536Y020812D01*
X019556Y020846D01*
X019566Y020884D01*
X019566Y021289D01*
X019301Y021289D01*
X019301Y021319D01*
X019271Y021319D01*
X019271Y021854D01*
X019137Y021854D01*
X019099Y021844D01*
X019064Y021824D01*
X019036Y021796D01*
X019026Y021778D01*
X018970Y021834D01*
X018603Y021834D01*
X018536Y021768D01*
X018470Y021834D01*
X018103Y021834D01*
X018036Y021768D01*
X017970Y021834D01*
X017603Y021834D01*
X017536Y021768D01*
X017470Y021834D01*
X017103Y021834D01*
X017036Y021768D01*
X016970Y021834D01*
X016603Y021834D01*
X016536Y021768D01*
X016470Y021834D01*
X016103Y021834D01*
X016036Y021768D01*
X015970Y021834D01*
X015603Y021834D01*
X015536Y021768D01*
X015470Y021834D01*
X015103Y021834D01*
X015026Y021758D01*
X015026Y020850D01*
X015087Y020790D01*
X014712Y020414D01*
X014606Y020309D01*
X014606Y019569D01*
X014565Y019670D01*
X014472Y019762D01*
X014466Y019765D01*
X014466Y023309D01*
X014361Y023414D01*
X009462Y023414D01*
X009356Y023309D01*
X009356Y022664D01*
X008621Y022664D01*
X008689Y022692D02*
X009356Y022692D01*
X009356Y022791D02*
X008807Y022791D01*
X008852Y022889D02*
X009356Y022889D01*
X009356Y022988D02*
X008865Y022988D01*
X008849Y023086D02*
X009356Y023086D01*
X009356Y023185D02*
X008800Y023185D01*
X008672Y023283D02*
X009356Y023283D01*
X009429Y023382D02*
X008393Y023382D01*
X008295Y023480D02*
X013228Y023480D01*
X013238Y023474D02*
X013277Y023464D01*
X013551Y023464D01*
X013551Y023820D01*
X013146Y023820D01*
X013146Y023594D01*
X013156Y023556D01*
X013176Y023522D01*
X013204Y023494D01*
X013238Y023474D01*
X013150Y023579D02*
X010907Y023579D01*
X010907Y023560D02*
X010907Y024180D01*
X010830Y024256D01*
X010112Y024256D01*
X010036Y024180D01*
X010036Y023560D01*
X010112Y023484D01*
X010830Y023484D01*
X010907Y023560D01*
X010907Y023677D02*
X013146Y023677D01*
X013146Y023776D02*
X010907Y023776D01*
X010907Y023874D02*
X013551Y023874D01*
X013551Y023920D02*
X013551Y023820D01*
X013651Y023820D01*
X013651Y023464D01*
X013926Y023464D01*
X013964Y023474D01*
X013999Y023494D01*
X014027Y023522D01*
X014046Y023556D01*
X014056Y023594D01*
X014056Y023820D01*
X013651Y023820D01*
X013651Y023920D01*
X013551Y023920D01*
X013146Y023920D01*
X013146Y024146D01*
X013156Y024184D01*
X013176Y024218D01*
X013204Y024246D01*
X013238Y024266D01*
X013277Y024276D01*
X013551Y024276D01*
X013551Y023920D01*
X013551Y023973D02*
X013651Y023973D01*
X013651Y023920D02*
X013651Y024276D01*
X013926Y024276D01*
X013964Y024266D01*
X013999Y024246D01*
X014027Y024218D01*
X014046Y024184D01*
X014056Y024146D01*
X014056Y023920D01*
X013651Y023920D01*
X013651Y023874D02*
X023210Y023874D01*
X023210Y023973D02*
X020239Y023973D01*
X020324Y024071D02*
X023210Y024071D01*
X023210Y024170D02*
X020365Y024170D01*
X020365Y024268D02*
X023210Y024268D01*
X023237Y024367D02*
X020337Y024367D01*
X020269Y024465D02*
X023356Y024465D01*
X023250Y024564D02*
X019562Y024564D01*
X019555Y024662D02*
X023151Y024662D01*
X023088Y024761D02*
X019547Y024761D01*
X019546Y024859D02*
X023047Y024859D01*
X023036Y024958D02*
X019546Y024958D01*
X019546Y025056D02*
X023036Y025056D01*
X023066Y025155D02*
X019546Y025155D01*
X019546Y025253D02*
X023107Y025253D01*
X023197Y025352D02*
X019546Y025352D01*
X019546Y025450D02*
X023355Y025450D01*
X023718Y025450D02*
X024355Y025450D01*
X024197Y025352D02*
X023876Y025352D01*
X023966Y025253D02*
X024107Y025253D01*
X024066Y025155D02*
X024007Y025155D01*
X024036Y025084D02*
X024036Y024885D01*
X023960Y024701D01*
X023820Y024560D01*
X023716Y024518D01*
X023716Y024415D01*
X023787Y024415D01*
X023863Y024339D01*
X023863Y023798D01*
X023799Y023734D01*
X023863Y023670D01*
X023863Y023580D01*
X024210Y023580D01*
X024210Y023670D01*
X024274Y023734D01*
X024210Y023798D01*
X024210Y024339D01*
X024286Y024415D01*
X024356Y024415D01*
X024356Y024518D01*
X024253Y024560D01*
X024113Y024701D01*
X024036Y024885D01*
X024036Y025084D01*
X024036Y025056D02*
X024036Y025056D01*
X024036Y024958D02*
X024036Y024958D01*
X024026Y024859D02*
X024047Y024859D01*
X024088Y024761D02*
X023985Y024761D01*
X023922Y024662D02*
X024151Y024662D01*
X024250Y024564D02*
X023823Y024564D01*
X023716Y024465D02*
X024356Y024465D01*
X024237Y024367D02*
X023836Y024367D01*
X023863Y024268D02*
X024210Y024268D01*
X024210Y024170D02*
X023863Y024170D01*
X023863Y024071D02*
X024210Y024071D01*
X024210Y023973D02*
X023863Y023973D01*
X023863Y023874D02*
X024210Y023874D01*
X024232Y023776D02*
X023841Y023776D01*
X023856Y023677D02*
X024217Y023677D01*
X024536Y023400D02*
X025536Y023400D01*
X026536Y023400D01*
X027536Y023400D01*
X027210Y023580D02*
X026863Y023580D01*
X026863Y023670D01*
X026799Y023734D01*
X026863Y023798D01*
X026863Y024339D01*
X026787Y024415D01*
X026716Y024415D01*
X026716Y024518D01*
X026820Y024560D01*
X026960Y024701D01*
X027036Y024885D01*
X027036Y025084D01*
X027036Y024885D01*
X027113Y024701D01*
X027253Y024560D01*
X027356Y024518D01*
X027356Y024415D01*
X027286Y024415D01*
X027210Y024339D01*
X027210Y023798D01*
X027274Y023734D01*
X027210Y023670D01*
X027210Y023580D01*
X027217Y023677D02*
X026856Y023677D01*
X026841Y023776D02*
X027232Y023776D01*
X027210Y023874D02*
X026863Y023874D01*
X026863Y023973D02*
X027210Y023973D01*
X027210Y024071D02*
X026863Y024071D01*
X026863Y024170D02*
X027210Y024170D01*
X027210Y024268D02*
X026863Y024268D01*
X026836Y024367D02*
X027237Y024367D01*
X027356Y024465D02*
X026716Y024465D01*
X026823Y024564D02*
X027250Y024564D01*
X027151Y024662D02*
X026922Y024662D01*
X026985Y024761D02*
X027088Y024761D01*
X027047Y024859D02*
X027026Y024859D01*
X027036Y024958D02*
X027036Y024958D01*
X027036Y025056D02*
X027036Y025056D01*
X027007Y025155D02*
X027066Y025155D01*
X027107Y025253D02*
X026966Y025253D01*
X026876Y025352D02*
X027197Y025352D01*
X027355Y025450D02*
X026718Y025450D01*
X026724Y025746D02*
X027586Y025746D01*
X027586Y025844D02*
X026895Y025844D01*
X027015Y025943D02*
X027586Y025943D01*
X027586Y026041D02*
X027114Y026041D01*
X027185Y026140D02*
X027586Y026140D01*
X027586Y026238D02*
X027241Y026238D01*
X027293Y026337D02*
X027586Y026337D01*
X027586Y026435D02*
X027319Y026435D01*
X027346Y026534D02*
X027586Y026534D01*
X027586Y026632D02*
X027361Y026632D01*
X027361Y026731D02*
X027586Y026731D01*
X027586Y026829D02*
X027361Y026829D01*
X027347Y026928D02*
X027586Y026928D01*
X027586Y027026D02*
X027321Y027026D01*
X027295Y027125D02*
X027586Y027125D01*
X027586Y027223D02*
X027245Y027223D01*
X027188Y027322D02*
X027586Y027322D01*
X027586Y027420D02*
X027121Y027420D01*
X027022Y027519D02*
X027586Y027519D01*
X027586Y027617D02*
X026907Y027617D01*
X026736Y027716D02*
X027586Y027716D01*
X027586Y027814D02*
X025216Y027814D01*
X025216Y027716D02*
X025837Y027716D01*
X025666Y027617D02*
X025216Y027617D01*
X025216Y027519D02*
X025551Y027519D01*
X025452Y027420D02*
X025216Y027420D01*
X025216Y027322D02*
X025384Y027322D01*
X025327Y027223D02*
X025216Y027223D01*
X025216Y027125D02*
X025278Y027125D01*
X025252Y027026D02*
X025216Y027026D01*
X025216Y026928D02*
X025225Y026928D01*
X024856Y026928D02*
X024716Y026928D01*
X024716Y027026D02*
X024856Y027026D01*
X024856Y027125D02*
X024716Y027125D01*
X024716Y027223D02*
X024856Y027223D01*
X024856Y027322D02*
X024716Y027322D01*
X024716Y027420D02*
X024856Y027420D01*
X024856Y027519D02*
X024716Y027519D01*
X024716Y027617D02*
X024856Y027617D01*
X024856Y027716D02*
X024716Y027716D01*
X024716Y027814D02*
X024856Y027814D01*
X024856Y027913D02*
X024716Y027913D01*
X024716Y028011D02*
X024856Y028011D01*
X024856Y028110D02*
X024716Y028110D01*
X024716Y028208D02*
X024856Y028208D01*
X024856Y028307D02*
X024716Y028307D01*
X024716Y028405D02*
X024856Y028405D01*
X024855Y028504D02*
X024716Y028504D01*
X024716Y028602D02*
X024855Y028602D01*
X024855Y028701D02*
X024716Y028701D01*
X024716Y028799D02*
X024855Y028799D01*
X024855Y028898D02*
X024716Y028898D01*
X024716Y028996D02*
X024867Y028996D01*
X024716Y029095D02*
X025022Y029095D01*
X025022Y029193D02*
X024716Y029193D01*
X024716Y029292D02*
X025022Y029292D01*
X025022Y029390D02*
X024716Y029390D01*
X024716Y029489D02*
X024855Y029489D01*
X024855Y029587D02*
X024716Y029587D01*
X024716Y029686D02*
X024855Y029686D01*
X024855Y029784D02*
X024716Y029784D01*
X024716Y029883D02*
X024855Y029883D01*
X024855Y029981D02*
X024716Y029981D01*
X024716Y030080D02*
X025022Y030080D01*
X025022Y030178D02*
X024716Y030178D01*
X024716Y030277D02*
X025022Y030277D01*
X025022Y030375D02*
X024716Y030375D01*
X024716Y030474D02*
X024865Y030474D01*
X024855Y030572D02*
X024716Y030572D01*
X024716Y030671D02*
X024855Y030671D01*
X024855Y030769D02*
X024716Y030769D01*
X024716Y030868D02*
X024855Y030868D01*
X024855Y030966D02*
X024716Y030966D01*
X024716Y031065D02*
X026410Y031065D01*
X026341Y030966D02*
X026218Y030966D01*
X026516Y031163D02*
X024716Y031163D01*
X024716Y031262D02*
X026620Y031262D01*
X026453Y031360D02*
X024716Y031360D01*
X024716Y031459D02*
X024880Y031459D01*
X025202Y031734D02*
X024536Y031734D01*
X024536Y025984D01*
X018286Y025984D01*
X018286Y025164D01*
X017786Y025164D02*
X017786Y026234D01*
X022202Y026234D01*
X022202Y026734D01*
X022202Y027734D01*
X022202Y028734D01*
X022202Y029734D01*
X022871Y029734D02*
X023786Y029734D01*
X023786Y030734D02*
X022871Y030734D01*
X022202Y030734D02*
X021536Y030734D01*
X021536Y026484D01*
X017286Y026484D01*
X017286Y025164D01*
X016786Y025164D02*
X016786Y026734D01*
X019202Y026734D01*
X019202Y027734D01*
X019202Y028734D01*
X019202Y029734D01*
X019871Y029734D02*
X020786Y029734D01*
X020786Y030734D02*
X019871Y030734D01*
X019202Y030734D02*
X018786Y030734D01*
X018786Y026984D01*
X016286Y026984D01*
X016286Y025164D01*
X015786Y025164D02*
X015786Y027234D01*
X018536Y027234D01*
X018536Y033734D01*
X019202Y033734D01*
X019202Y034734D01*
X019871Y034734D02*
X020786Y034734D01*
X020786Y033734D02*
X019871Y033734D01*
X019871Y032734D02*
X020786Y032734D01*
X020786Y031734D02*
X019871Y031734D01*
X019202Y031734D02*
X019202Y032734D01*
X019202Y031734D02*
X019202Y030734D01*
X017871Y030734D02*
X017871Y029734D01*
X017871Y028734D01*
X017871Y027484D01*
X015286Y027484D01*
X015286Y025164D01*
X015026Y025155D02*
X014036Y025155D01*
X014036Y025158D02*
X013960Y025234D01*
X013242Y025234D01*
X013166Y025158D01*
X013166Y025028D01*
X011462Y025028D01*
X011356Y024923D01*
X011356Y024765D01*
X011351Y024762D01*
X011258Y024670D01*
X011208Y024549D01*
X011208Y024419D01*
X011258Y024298D01*
X011351Y024206D01*
X011471Y024156D01*
X011602Y024156D01*
X011722Y024206D01*
X011815Y024298D01*
X011865Y024419D01*
X011865Y024549D01*
X011815Y024668D01*
X013166Y024668D01*
X013166Y024539D01*
X013242Y024462D01*
X013960Y024462D01*
X014036Y024539D01*
X014036Y025158D01*
X014036Y025056D02*
X015026Y025056D01*
X015026Y024958D02*
X014036Y024958D01*
X014036Y024859D02*
X015026Y024859D01*
X015026Y024761D02*
X014036Y024761D01*
X014036Y024662D02*
X015075Y024662D01*
X015498Y024662D02*
X015575Y024662D01*
X015998Y024662D02*
X016075Y024662D01*
X016498Y024662D02*
X016575Y024662D01*
X016998Y024662D02*
X017075Y024662D01*
X017498Y024662D02*
X017575Y024662D01*
X017998Y024662D02*
X018075Y024662D01*
X018498Y024662D02*
X018575Y024662D01*
X018998Y024662D02*
X019075Y024662D01*
X019101Y024564D02*
X014036Y024564D01*
X013963Y024465D02*
X019108Y024465D01*
X019116Y024367D02*
X011843Y024367D01*
X011865Y024465D02*
X013240Y024465D01*
X013166Y024564D02*
X011859Y024564D01*
X011818Y024662D02*
X013166Y024662D01*
X013166Y025056D02*
X010907Y025056D01*
X010907Y024958D02*
X011391Y024958D01*
X011356Y024859D02*
X010907Y024859D01*
X010907Y024761D02*
X011349Y024761D01*
X011255Y024662D02*
X010907Y024662D01*
X010907Y024564D02*
X011214Y024564D01*
X011208Y024465D02*
X010833Y024465D01*
X010830Y024462D02*
X010907Y024539D01*
X010907Y025158D01*
X010830Y025234D01*
X010112Y025234D01*
X010036Y025158D01*
X010036Y024539D01*
X010112Y024462D01*
X010830Y024462D01*
X010907Y024170D02*
X011438Y024170D01*
X011288Y024268D02*
X008566Y024268D01*
X008566Y024319D02*
X008566Y024724D01*
X008556Y024762D01*
X008536Y024796D01*
X008509Y024824D01*
X008474Y024844D01*
X008436Y024854D01*
X008301Y024854D01*
X008301Y024319D01*
X008566Y024319D01*
X008566Y024367D02*
X011230Y024367D01*
X011536Y024484D02*
X011536Y024848D01*
X013601Y024848D01*
X013166Y025155D02*
X010907Y025155D01*
X010036Y025155D02*
X004462Y025155D01*
X004466Y025253D02*
X015026Y025253D01*
X015026Y025352D02*
X004466Y025352D01*
X004466Y025450D02*
X008365Y025450D01*
X008258Y025549D02*
X004466Y025549D01*
X004466Y025647D02*
X008217Y025647D01*
X008208Y025746D02*
X004466Y025746D01*
X004466Y025844D02*
X008227Y025844D01*
X008281Y025943D02*
X004466Y025943D01*
X004466Y026041D02*
X008283Y026041D01*
X008276Y026140D02*
X004466Y026140D01*
X004466Y026238D02*
X008268Y026238D01*
X008261Y026337D02*
X004466Y026337D01*
X004466Y026435D02*
X008254Y026435D01*
X008247Y026534D02*
X004466Y026534D01*
X004466Y026632D02*
X008239Y026632D01*
X008232Y026731D02*
X004466Y026731D01*
X004466Y026829D02*
X008225Y026829D01*
X008217Y026928D02*
X004466Y026928D01*
X004466Y027026D02*
X008210Y027026D01*
X008203Y027125D02*
X004466Y027125D01*
X004466Y027223D02*
X008195Y027223D01*
X008188Y027322D02*
X004466Y027322D01*
X004466Y027420D02*
X008181Y027420D01*
X008174Y027519D02*
X004466Y027519D01*
X004466Y027617D02*
X008166Y027617D01*
X007786Y028164D02*
X007786Y028734D01*
X011786Y028734D01*
X013202Y027734D01*
X013202Y028734D01*
X013202Y029734D01*
X013202Y030734D01*
X013871Y030734D02*
X014786Y030734D01*
X014786Y029734D02*
X013871Y029734D01*
X013871Y028734D02*
X014786Y028734D01*
X014786Y027734D02*
X013871Y027734D01*
X014218Y027519D02*
X014334Y027519D01*
X014393Y027420D02*
X014154Y027420D01*
X014492Y027322D02*
X008649Y027322D01*
X008642Y027420D02*
X012918Y027420D01*
X012855Y027519D02*
X008635Y027519D01*
X008628Y027617D02*
X012855Y027617D01*
X012855Y027716D02*
X008620Y027716D01*
X008613Y027814D02*
X012777Y027814D01*
X012637Y027913D02*
X008606Y027913D01*
X008598Y028011D02*
X012498Y028011D01*
X012358Y028110D02*
X008591Y028110D01*
X008586Y028208D02*
X012219Y028208D01*
X012079Y028307D02*
X008546Y028307D01*
X008546Y028405D02*
X011940Y028405D01*
X011801Y028504D02*
X008546Y028504D01*
X008657Y027223D02*
X015106Y027223D01*
X015106Y027125D02*
X008664Y027125D01*
X008671Y027026D02*
X015106Y027026D01*
X015106Y026928D02*
X014048Y026928D01*
X014046Y026934D02*
X014027Y026968D01*
X013999Y026996D01*
X013964Y027016D01*
X013926Y027026D01*
X013651Y027026D01*
X013651Y026670D01*
X013551Y026670D01*
X013551Y026570D01*
X013146Y026570D01*
X013146Y026344D01*
X013156Y026306D01*
X013176Y026272D01*
X013204Y026244D01*
X013238Y026224D01*
X013277Y026214D01*
X013551Y026214D01*
X013551Y026570D01*
X013651Y026570D01*
X013651Y026214D01*
X013926Y026214D01*
X013964Y026224D01*
X013999Y026244D01*
X014027Y026272D01*
X014046Y026306D01*
X014056Y026344D01*
X014056Y026570D01*
X013651Y026570D01*
X013651Y026670D01*
X014056Y026670D01*
X014056Y026896D01*
X014046Y026934D01*
X014056Y026829D02*
X015106Y026829D01*
X015106Y026731D02*
X014056Y026731D01*
X014056Y026534D02*
X015106Y026534D01*
X015106Y026632D02*
X013651Y026632D01*
X013651Y026534D02*
X013551Y026534D01*
X013551Y026632D02*
X010907Y026632D01*
X010907Y026534D02*
X013146Y026534D01*
X013146Y026435D02*
X010907Y026435D01*
X010907Y026337D02*
X013148Y026337D01*
X013214Y026238D02*
X010835Y026238D01*
X010830Y026234D02*
X010907Y026310D01*
X010907Y026930D01*
X010830Y027006D01*
X010112Y027006D01*
X010036Y026930D01*
X010036Y026310D01*
X010112Y026234D01*
X010830Y026234D01*
X010907Y026731D02*
X013146Y026731D01*
X013146Y026670D02*
X013146Y026896D01*
X013156Y026934D01*
X013176Y026968D01*
X013204Y026996D01*
X013238Y027016D01*
X013277Y027026D01*
X013551Y027026D01*
X013551Y026670D01*
X013146Y026670D01*
X013146Y026829D02*
X010907Y026829D01*
X010907Y026928D02*
X013155Y026928D01*
X013551Y026928D02*
X013651Y026928D01*
X013651Y026829D02*
X013551Y026829D01*
X013551Y026731D02*
X013651Y026731D01*
X013651Y026435D02*
X013551Y026435D01*
X013551Y026337D02*
X013651Y026337D01*
X013651Y026238D02*
X013551Y026238D01*
X013989Y026238D02*
X015106Y026238D01*
X015106Y026140D02*
X008737Y026140D01*
X008730Y026238D02*
X010108Y026238D01*
X010036Y026337D02*
X008722Y026337D01*
X008715Y026435D02*
X010036Y026435D01*
X010036Y026534D02*
X008708Y026534D01*
X008701Y026632D02*
X010036Y026632D01*
X010036Y026731D02*
X008693Y026731D01*
X008686Y026829D02*
X010036Y026829D01*
X010036Y026928D02*
X008679Y026928D01*
X008744Y026041D02*
X015106Y026041D01*
X015106Y025943D02*
X008792Y025943D01*
X008846Y025844D02*
X015106Y025844D01*
X015106Y025746D02*
X008865Y025746D01*
X008856Y025647D02*
X015056Y025647D01*
X015026Y025549D02*
X008815Y025549D01*
X008708Y025450D02*
X015026Y025450D01*
X015106Y026337D02*
X014054Y026337D01*
X014056Y026435D02*
X015106Y026435D01*
X015081Y027322D02*
X015106Y027322D01*
X016286Y028734D02*
X017202Y028734D01*
X017202Y029734D02*
X016286Y029734D01*
X016286Y030734D02*
X017202Y030734D01*
X017871Y030734D02*
X017871Y031734D01*
X017871Y032734D01*
X017871Y033734D01*
X017871Y034734D01*
X017202Y034734D02*
X016286Y034734D01*
X016286Y033734D02*
X017202Y033734D01*
X017202Y032734D02*
X016286Y032734D01*
X016286Y031734D02*
X017202Y031734D01*
X014786Y031734D02*
X013871Y031734D01*
X013202Y031734D02*
X012036Y031734D01*
X012036Y029234D01*
X007286Y029234D01*
X007286Y028164D01*
X006786Y028164D02*
X006702Y028164D01*
X006702Y030150D01*
X006536Y030150D01*
X005536Y030150D01*
X005536Y030819D02*
X005536Y031734D01*
X006536Y031734D02*
X006536Y030819D01*
X006536Y030150D02*
X007536Y030150D01*
X008536Y030150D01*
X009536Y030150D01*
X010536Y030150D01*
X010536Y030819D02*
X010536Y031734D01*
X009536Y031734D02*
X009536Y030819D01*
X008536Y030819D02*
X008536Y031734D01*
X007536Y031734D02*
X007536Y030819D01*
X006286Y029484D02*
X004286Y029484D01*
X004286Y032150D01*
X006286Y033150D01*
X007286Y033150D01*
X008286Y033150D01*
X009286Y033150D01*
X010286Y033150D01*
X011286Y033150D01*
X012286Y033150D01*
X012286Y033819D02*
X012286Y034734D01*
X013202Y034734D02*
X013202Y033734D01*
X013202Y032734D01*
X013202Y031734D01*
X013871Y032734D02*
X014786Y032734D01*
X014786Y033734D02*
X013871Y033734D01*
X013871Y034734D02*
X014786Y034734D01*
X011286Y034734D02*
X011286Y033819D01*
X010286Y033819D02*
X010286Y034734D01*
X009286Y034734D02*
X009286Y033819D01*
X008286Y033819D02*
X008286Y034734D01*
X007286Y034734D02*
X007286Y033819D01*
X006286Y033819D02*
X006286Y034734D01*
X003786Y032234D02*
X003786Y029234D01*
X005786Y029234D01*
X005786Y028164D01*
X005286Y028164D02*
X005286Y028984D01*
X003536Y028984D01*
X003536Y028234D01*
X003121Y028234D01*
X003121Y029234D01*
X003121Y030234D01*
X003121Y031234D01*
X002452Y031234D02*
X001536Y031234D01*
X001536Y030234D02*
X002452Y030234D01*
X002452Y029234D02*
X001536Y029234D01*
X001536Y028234D02*
X002452Y028234D01*
X002452Y027234D02*
X001536Y027234D01*
X001536Y026234D02*
X002452Y026234D01*
X003121Y026234D02*
X003121Y027234D01*
X003121Y026234D02*
X003786Y026234D01*
X003786Y028734D01*
X004786Y028734D01*
X004786Y028164D01*
X004286Y028164D02*
X004286Y025234D01*
X003121Y025234D01*
X003121Y024234D01*
X003468Y024268D02*
X004026Y024268D01*
X004026Y024170D02*
X003468Y024170D01*
X003468Y024071D02*
X004026Y024071D01*
X004020Y023973D02*
X003457Y023973D01*
X003468Y024367D02*
X004026Y024367D01*
X004026Y024465D02*
X003468Y024465D01*
X003301Y024564D02*
X004026Y024564D01*
X004026Y024662D02*
X003301Y024662D01*
X003301Y024761D02*
X004029Y024761D01*
X004363Y025056D02*
X010036Y025056D01*
X010036Y024958D02*
X003442Y024958D01*
X003301Y024859D02*
X010036Y024859D01*
X010036Y024761D02*
X008557Y024761D01*
X008566Y024662D02*
X010036Y024662D01*
X010036Y024564D02*
X008566Y024564D01*
X008566Y024465D02*
X010110Y024465D01*
X010036Y024170D02*
X008566Y024170D01*
X008566Y024071D02*
X010036Y024071D01*
X010036Y023973D02*
X008566Y023973D01*
X008564Y023874D02*
X010036Y023874D01*
X010036Y023776D02*
X008494Y023776D01*
X008301Y023776D02*
X008271Y023776D01*
X008271Y023874D02*
X008301Y023874D01*
X008301Y023973D02*
X008271Y023973D01*
X008271Y024071D02*
X008301Y024071D01*
X008301Y024170D02*
X008271Y024170D01*
X008271Y024268D02*
X008301Y024268D01*
X008301Y024367D02*
X008271Y024367D01*
X008271Y024465D02*
X008301Y024465D01*
X008301Y024564D02*
X008271Y024564D01*
X008271Y024662D02*
X008301Y024662D01*
X008301Y024761D02*
X008271Y024761D01*
X007786Y024304D02*
X007786Y023734D01*
X008536Y022984D01*
X008196Y023579D02*
X010036Y023579D01*
X010036Y023677D02*
X008098Y023677D01*
X008079Y023776D02*
X007999Y023776D01*
X007286Y023484D02*
X007786Y022984D01*
X007786Y022484D02*
X004786Y022484D01*
X004786Y021944D01*
X005286Y021944D02*
X005286Y021234D01*
X003286Y021234D01*
X003286Y022984D01*
X004286Y023984D01*
X004286Y024304D01*
X004786Y024304D02*
X004786Y023734D01*
X004036Y022984D01*
X003528Y023480D02*
X002036Y023480D01*
X002036Y023382D02*
X003429Y023382D01*
X003331Y023283D02*
X002036Y023283D01*
X002036Y023185D02*
X003232Y023185D01*
X003134Y023086D02*
X002036Y023086D01*
X002036Y022988D02*
X002076Y022988D01*
X001958Y022734D02*
X001958Y022669D01*
X002008Y022548D01*
X002101Y022456D01*
X002221Y022406D01*
X002352Y022406D01*
X002472Y022456D01*
X002565Y022548D01*
X002567Y022554D01*
X002856Y022554D01*
X002856Y020910D01*
X002962Y020804D01*
X005861Y020804D01*
X005966Y020910D01*
X005966Y021414D01*
X005970Y021414D01*
X006026Y021470D01*
X006036Y021452D01*
X006064Y021424D01*
X006099Y021404D01*
X006137Y021394D01*
X006271Y021394D01*
X006271Y021929D01*
X006301Y021929D01*
X006301Y021394D01*
X006436Y021394D01*
X006474Y021404D01*
X006509Y021424D01*
X006536Y021452D01*
X006547Y021470D01*
X006603Y021414D01*
X006606Y021414D01*
X006606Y020660D01*
X006709Y020557D01*
X006601Y020512D01*
X006536Y020448D01*
X006472Y020512D01*
X006352Y020562D01*
X006221Y020562D01*
X006101Y020512D01*
X006036Y020448D01*
X005972Y020512D01*
X005852Y020562D01*
X005721Y020562D01*
X005601Y020512D01*
X005536Y020448D01*
X005472Y020512D01*
X005352Y020562D01*
X005221Y020562D01*
X005101Y020512D01*
X005036Y020448D01*
X004972Y020512D01*
X004852Y020562D01*
X004721Y020562D01*
X004601Y020512D01*
X004508Y020420D01*
X004458Y020299D01*
X004458Y020169D01*
X004508Y020048D01*
X004552Y020004D01*
X004526Y019978D01*
X004526Y019070D01*
X004534Y019062D01*
X004471Y019062D01*
X004351Y019012D01*
X004258Y018920D01*
X004256Y018914D01*
X004103Y018914D01*
X002409Y020366D01*
X002361Y020414D01*
X002353Y020414D01*
X002347Y020419D01*
X002280Y020414D01*
X002003Y020414D01*
X001960Y020517D01*
X001820Y020658D01*
X001636Y020734D01*
X001486Y020734D01*
X001486Y020734D01*
X001636Y020734D01*
X001820Y020810D01*
X001960Y020951D01*
X001997Y021039D01*
X003708Y019755D01*
X003708Y019669D01*
X003758Y019548D01*
X003851Y019456D01*
X003971Y019406D01*
X004102Y019406D01*
X004222Y019456D01*
X004315Y019548D01*
X004365Y019669D01*
X004365Y019799D01*
X004315Y019920D01*
X004222Y020012D01*
X004102Y020062D01*
X003971Y020062D01*
X003925Y020043D01*
X002155Y021370D01*
X002111Y021414D01*
X002096Y021414D01*
X002085Y021423D01*
X002024Y021414D01*
X002003Y021414D01*
X001960Y021517D01*
X001820Y021658D01*
X001655Y021726D01*
X001658Y021727D01*
X001736Y021752D01*
X001809Y021789D01*
X001875Y021838D01*
X001933Y021895D01*
X001981Y021962D01*
X002018Y022035D01*
X002044Y022112D01*
X002055Y022184D01*
X001586Y022184D01*
X001586Y022284D01*
X002055Y022284D01*
X002044Y022356D01*
X002018Y022434D01*
X001981Y022507D01*
X001933Y022573D01*
X001875Y022631D01*
X001809Y022679D01*
X001736Y022716D01*
X001680Y022734D01*
X001958Y022734D01*
X001958Y022692D02*
X001783Y022692D01*
X001912Y022594D02*
X001989Y022594D01*
X001987Y022495D02*
X002061Y022495D01*
X002030Y022397D02*
X002856Y022397D01*
X002856Y022495D02*
X002511Y022495D01*
X002286Y022734D02*
X003036Y022734D01*
X003036Y020984D01*
X005786Y020984D01*
X005786Y021944D01*
X006271Y021904D02*
X006301Y021904D01*
X006301Y021806D02*
X006271Y021806D01*
X006271Y021707D02*
X006301Y021707D01*
X006301Y021609D02*
X006271Y021609D01*
X006271Y021510D02*
X006301Y021510D01*
X006301Y021412D02*
X006271Y021412D01*
X006086Y021412D02*
X005966Y021412D01*
X005966Y021313D02*
X006606Y021313D01*
X006606Y021215D02*
X005966Y021215D01*
X005966Y021116D02*
X006606Y021116D01*
X006606Y021018D02*
X005966Y021018D01*
X005966Y020919D02*
X006606Y020919D01*
X006606Y020821D02*
X005878Y020821D01*
X005941Y020525D02*
X006132Y020525D01*
X006441Y020525D02*
X006632Y020525D01*
X006642Y020624D02*
X003150Y020624D01*
X003019Y020722D02*
X006606Y020722D01*
X006786Y020734D02*
X009036Y020734D01*
X009036Y018234D01*
X008733Y018358D02*
X008167Y018358D01*
X008216Y018309D02*
X008111Y018414D01*
X006212Y018414D01*
X006106Y018309D01*
X006106Y017823D01*
X006036Y017753D01*
X005966Y017823D01*
X005966Y018059D01*
X005861Y018164D01*
X003962Y018164D01*
X003856Y018059D01*
X003856Y012314D01*
X003041Y012314D01*
X003041Y012813D01*
X002965Y012889D01*
X001608Y012889D01*
X001531Y012813D01*
X001531Y011455D01*
X001608Y011379D01*
X002965Y011379D01*
X003041Y011455D01*
X003041Y011954D01*
X003292Y011954D01*
X003258Y011920D01*
X003208Y011799D01*
X003208Y011669D01*
X003258Y011548D01*
X003351Y011456D01*
X003471Y011406D01*
X003602Y011406D01*
X003722Y011456D01*
X003815Y011548D01*
X003817Y011554D01*
X004756Y011554D01*
X004758Y011548D01*
X004851Y011456D01*
X004952Y011414D01*
X003962Y011414D01*
X003712Y011164D01*
X003317Y011164D01*
X003315Y011170D01*
X003222Y011262D01*
X003102Y011312D01*
X002971Y011312D01*
X002851Y011262D01*
X002786Y011198D01*
X002722Y011262D01*
X002602Y011312D01*
X002471Y011312D01*
X002351Y011262D01*
X002258Y011170D01*
X002208Y011049D01*
X002208Y010919D01*
X002258Y010798D01*
X002351Y010706D01*
X002471Y010656D01*
X002602Y010656D01*
X002608Y010658D01*
X002852Y010414D01*
X002067Y010414D01*
X002065Y010420D01*
X001972Y010512D01*
X001852Y010562D01*
X001721Y010562D01*
X001601Y010512D01*
X001508Y010420D01*
X001486Y010367D01*
X001486Y014304D01*
X001487Y014304D01*
X002236Y014304D01*
X002236Y015184D01*
X002336Y015184D01*
X002336Y014304D01*
X003086Y014304D01*
X003124Y014314D01*
X003159Y014334D01*
X003186Y014362D01*
X003206Y014396D01*
X003216Y014434D01*
X003216Y015184D01*
X002336Y015184D01*
X002336Y015284D01*
X002236Y015284D01*
X002236Y016164D01*
X001487Y016164D01*
X001486Y016164D01*
X001486Y019734D01*
X001636Y019734D01*
X001820Y019810D01*
X001960Y019951D01*
X002003Y020054D01*
X002220Y020054D01*
X003914Y018602D01*
X003962Y018554D01*
X003970Y018554D01*
X003976Y018549D01*
X004043Y018554D01*
X004256Y018554D01*
X004258Y018548D01*
X004351Y018456D01*
X004471Y018406D01*
X004602Y018406D01*
X004722Y018456D01*
X004815Y018548D01*
X004865Y018669D01*
X004865Y018799D01*
X004815Y018920D01*
X004740Y018994D01*
X004970Y018994D01*
X005036Y019060D01*
X005103Y018994D01*
X005470Y018994D01*
X005536Y019060D01*
X005603Y018994D01*
X005970Y018994D01*
X006036Y019060D01*
X006103Y018994D01*
X006470Y018994D01*
X006536Y019060D01*
X006603Y018994D01*
X006970Y018994D01*
X007036Y019060D01*
X007103Y018994D01*
X007470Y018994D01*
X007536Y019060D01*
X007603Y018994D01*
X007970Y018994D01*
X008026Y019050D01*
X008036Y019032D01*
X008064Y019004D01*
X008099Y018984D01*
X008137Y018974D01*
X008271Y018974D01*
X008271Y019509D01*
X008301Y019509D01*
X008301Y018974D01*
X008436Y018974D01*
X008474Y018984D01*
X008509Y019004D01*
X008536Y019032D01*
X008556Y019066D01*
X008566Y019104D01*
X008566Y019509D01*
X008301Y019509D01*
X008301Y019539D01*
X008271Y019539D01*
X008271Y020074D01*
X008137Y020074D01*
X008099Y020064D01*
X008064Y020044D01*
X008036Y020016D01*
X008026Y019998D01*
X008020Y020004D01*
X008065Y020048D01*
X008115Y020169D01*
X008115Y020299D01*
X008065Y020420D01*
X007972Y020512D01*
X007871Y020554D01*
X008856Y020554D01*
X008856Y018515D01*
X008851Y018512D01*
X008758Y018420D01*
X008708Y018299D01*
X008708Y018169D01*
X008758Y018048D01*
X008851Y017956D01*
X008971Y017906D01*
X009102Y017906D01*
X009222Y017956D01*
X009315Y018048D01*
X009356Y018149D01*
X009356Y017698D01*
X009340Y017714D01*
X008811Y017714D01*
X008216Y018309D01*
X008265Y018260D02*
X008708Y018260D01*
X008711Y018161D02*
X008364Y018161D01*
X008462Y018063D02*
X008752Y018063D01*
X008842Y017964D02*
X008561Y017964D01*
X008659Y017866D02*
X009356Y017866D01*
X009356Y017964D02*
X009230Y017964D01*
X009321Y018063D02*
X009356Y018063D01*
X009356Y017767D02*
X008758Y017767D01*
X008406Y017610D02*
X008406Y017030D01*
X008483Y016954D01*
X009340Y016954D01*
X009356Y016970D01*
X009356Y015498D01*
X009340Y015514D01*
X008483Y015514D01*
X008406Y015438D01*
X008406Y014830D01*
X008483Y014754D01*
X009340Y014754D01*
X009356Y014770D01*
X009356Y010689D01*
X009346Y010706D01*
X009319Y010734D01*
X009301Y010745D01*
X009356Y010800D01*
X009356Y011168D01*
X009290Y011234D01*
X009356Y011300D01*
X009356Y011668D01*
X009290Y011734D01*
X009356Y011800D01*
X009356Y012168D01*
X009290Y012234D01*
X009356Y012300D01*
X009356Y012668D01*
X009290Y012734D01*
X009356Y012800D01*
X009356Y013168D01*
X009290Y013234D01*
X009356Y013300D01*
X009356Y013668D01*
X009290Y013734D01*
X009356Y013800D01*
X009356Y014168D01*
X009280Y014244D01*
X008373Y014244D01*
X008307Y014178D01*
X008222Y014262D01*
X008102Y014312D01*
X007971Y014312D01*
X007851Y014262D01*
X007758Y014170D01*
X007708Y014049D01*
X007708Y013919D01*
X007758Y013798D01*
X007822Y013734D01*
X007758Y013670D01*
X007708Y013549D01*
X007708Y013419D01*
X007758Y013298D01*
X007822Y013234D01*
X007758Y013170D01*
X007708Y013049D01*
X007708Y012919D01*
X007758Y012798D01*
X007822Y012734D01*
X007758Y012670D01*
X007708Y012549D01*
X007708Y012419D01*
X007758Y012298D01*
X007822Y012234D01*
X007758Y012170D01*
X007708Y012049D01*
X007708Y011919D01*
X007758Y011798D01*
X007822Y011734D01*
X007758Y011670D01*
X007708Y011549D01*
X007708Y011419D01*
X007758Y011298D01*
X007822Y011234D01*
X007758Y011170D01*
X007708Y011049D01*
X007708Y010919D01*
X007758Y010798D01*
X007851Y010706D01*
X007971Y010656D01*
X008102Y010656D01*
X008222Y010706D01*
X008307Y010790D01*
X008352Y010745D01*
X008334Y010734D01*
X008306Y010706D01*
X008287Y010672D01*
X008276Y010634D01*
X008276Y010499D01*
X008811Y010499D01*
X008811Y010469D01*
X008276Y010469D01*
X008276Y010334D01*
X008287Y010296D01*
X008306Y010262D01*
X008334Y010234D01*
X008369Y010214D01*
X008407Y010204D01*
X008811Y010204D01*
X008811Y010469D01*
X008841Y010469D01*
X008841Y010204D01*
X009246Y010204D01*
X009284Y010214D01*
X009319Y010234D01*
X009346Y010262D01*
X009356Y010279D01*
X009356Y008034D01*
X008366Y008034D01*
X008366Y008198D01*
X008290Y008274D01*
X008040Y008274D01*
X008065Y008298D01*
X008115Y008419D01*
X008115Y008549D01*
X008065Y008670D01*
X007972Y008762D01*
X007852Y008812D01*
X007721Y008812D01*
X007601Y008762D01*
X007508Y008670D01*
X007458Y008549D01*
X007458Y008419D01*
X007508Y008298D01*
X007512Y008294D01*
X007506Y008294D01*
X007387Y008294D01*
X007349Y008284D01*
X007332Y008274D01*
X007051Y008274D01*
X007034Y008284D01*
X006996Y008294D01*
X006876Y008294D01*
X006757Y008294D01*
X006719Y008284D01*
X006702Y008274D01*
X006510Y008274D01*
X006604Y008770D01*
X006701Y008770D01*
X006777Y008846D01*
X006777Y009623D01*
X006701Y009699D01*
X006317Y009699D01*
X006287Y009668D01*
X006266Y009689D01*
X006232Y009709D01*
X006194Y009719D01*
X006055Y009719D01*
X006055Y009253D01*
X006018Y009253D01*
X006018Y009719D01*
X005879Y009719D01*
X005841Y009709D01*
X005807Y009689D01*
X005786Y009668D01*
X005756Y009699D01*
X005372Y009699D01*
X005296Y009623D01*
X005296Y008846D01*
X005372Y008770D01*
X005503Y008770D01*
X005706Y008016D01*
X004716Y008016D01*
X004716Y008114D02*
X005680Y008114D01*
X005706Y008016D02*
X005706Y007564D01*
X005073Y007564D01*
X004996Y007488D01*
X004996Y007180D01*
X004998Y007179D01*
X004996Y007178D01*
X004996Y007029D01*
X004716Y007309D01*
X004611Y007414D01*
X004398Y007414D01*
X004468Y007483D01*
X004468Y007554D01*
X004611Y007554D01*
X004716Y007660D01*
X004716Y009454D01*
X004722Y009456D01*
X004815Y009548D01*
X004865Y009669D01*
X004865Y009799D01*
X004815Y009920D01*
X004722Y010012D01*
X004621Y010054D01*
X006732Y010054D01*
X008028Y009190D01*
X008008Y009170D01*
X007958Y009049D01*
X007958Y008919D01*
X008008Y008798D01*
X008101Y008706D01*
X008221Y008656D01*
X008352Y008656D01*
X008472Y008706D01*
X008565Y008798D01*
X008615Y008919D01*
X008615Y009049D01*
X008565Y009170D01*
X008472Y009262D01*
X008466Y009265D01*
X008466Y009309D01*
X008452Y009323D01*
X008448Y009343D01*
X008401Y009374D01*
X008361Y009414D01*
X008341Y009414D01*
X006901Y010374D01*
X006861Y010414D01*
X006841Y010414D01*
X006824Y010425D01*
X006769Y010414D01*
X006121Y010414D01*
X006222Y010456D01*
X006315Y010548D01*
X006365Y010669D01*
X006365Y010799D01*
X006315Y010920D01*
X006222Y011012D01*
X006102Y011062D01*
X005971Y011062D01*
X005851Y011012D01*
X005758Y010920D01*
X005756Y010914D01*
X005621Y010914D01*
X005722Y010956D01*
X005815Y011048D01*
X005865Y011169D01*
X005865Y011299D01*
X005815Y011420D01*
X005722Y011512D01*
X005602Y011562D01*
X005471Y011562D01*
X005351Y011512D01*
X005258Y011420D01*
X005256Y011414D01*
X005121Y011414D01*
X005222Y011456D01*
X005315Y011548D01*
X005365Y011669D01*
X005365Y011799D01*
X005315Y011920D01*
X005222Y012012D01*
X005121Y012054D01*
X006256Y012054D01*
X006258Y012048D01*
X006351Y011956D01*
X005279Y011956D01*
X005341Y011857D02*
X007734Y011857D01*
X007708Y011956D02*
X006722Y011956D01*
X006815Y012048D01*
X006865Y012169D01*
X006865Y012299D01*
X006815Y012420D01*
X006722Y012512D01*
X006602Y012562D01*
X006471Y012562D01*
X006351Y012512D01*
X006258Y012420D01*
X006256Y012414D01*
X004716Y012414D01*
X004716Y013389D01*
X004960Y013389D01*
X004960Y013298D01*
X005024Y013234D01*
X004960Y013170D01*
X004960Y012629D01*
X005036Y012553D01*
X005537Y012553D01*
X005613Y012629D01*
X005613Y012720D01*
X005710Y012720D01*
X005710Y012629D01*
X005786Y012553D01*
X006287Y012553D01*
X006363Y012629D01*
X006363Y012720D01*
X006861Y012720D01*
X006966Y012825D01*
X006966Y014645D01*
X007036Y014715D01*
X007036Y015693D01*
X006987Y015742D01*
X006990Y015804D01*
X008006Y015804D01*
X008008Y015798D01*
X008101Y015706D01*
X008221Y015656D01*
X008352Y015656D01*
X008472Y015706D01*
X008565Y015798D01*
X008615Y015919D01*
X008615Y016049D01*
X008565Y016170D01*
X008472Y016262D01*
X008352Y016312D01*
X008221Y016312D01*
X008101Y016262D01*
X008008Y016170D01*
X008006Y016164D01*
X006891Y016164D01*
X006641Y016414D01*
X006317Y016414D01*
X006315Y016420D01*
X006222Y016512D01*
X006102Y016562D01*
X005971Y016562D01*
X005851Y016512D01*
X005758Y016420D01*
X005713Y016312D01*
X005611Y016414D01*
X004716Y016414D01*
X004716Y016954D01*
X004722Y016956D01*
X004815Y017048D01*
X004865Y017169D01*
X004865Y017299D01*
X004815Y017420D01*
X004722Y017512D01*
X004602Y017562D01*
X004471Y017562D01*
X004351Y017512D01*
X004258Y017420D01*
X004216Y017319D01*
X004216Y017804D01*
X005059Y017804D01*
X005046Y017791D01*
X005027Y017757D01*
X005016Y017719D01*
X005016Y017274D01*
X005276Y017274D01*
X005276Y017254D01*
X005016Y017254D01*
X005016Y016809D01*
X005027Y016771D01*
X005046Y016737D01*
X005074Y016709D01*
X005109Y016689D01*
X005147Y016679D01*
X005276Y016679D01*
X005276Y017254D01*
X005296Y017254D01*
X005296Y016679D01*
X005426Y016679D01*
X005464Y016689D01*
X005499Y016709D01*
X005526Y016737D01*
X005544Y016768D01*
X005613Y016699D01*
X005960Y016699D01*
X006036Y016775D01*
X006036Y017753D01*
X006036Y016775D01*
X006113Y016699D01*
X006460Y016699D01*
X006536Y016775D01*
X006536Y017753D01*
X006466Y017823D01*
X006466Y018054D01*
X007962Y018054D01*
X008406Y017610D01*
X008406Y017570D02*
X008166Y017570D01*
X008166Y017638D02*
X008090Y017714D01*
X007233Y017714D01*
X007156Y017638D01*
X007156Y017444D01*
X007036Y017444D01*
X007036Y017753D01*
X006960Y017829D01*
X006613Y017829D01*
X006536Y017753D01*
X006536Y016775D01*
X006613Y016699D01*
X006960Y016699D01*
X007036Y016775D01*
X007036Y017084D01*
X007156Y017084D01*
X007156Y017030D01*
X007233Y016954D01*
X008090Y016954D01*
X008166Y017030D01*
X008166Y017638D01*
X008136Y017669D02*
X008347Y017669D01*
X008249Y017767D02*
X007022Y017767D01*
X007036Y017669D02*
X007187Y017669D01*
X007156Y017570D02*
X007036Y017570D01*
X007036Y017472D02*
X007156Y017472D01*
X007156Y017078D02*
X007036Y017078D01*
X007036Y016979D02*
X007208Y016979D01*
X007036Y016881D02*
X009356Y016881D01*
X009356Y016782D02*
X007036Y016782D01*
X006667Y016388D02*
X009356Y016388D01*
X009356Y016290D02*
X008406Y016290D01*
X008543Y016191D02*
X009356Y016191D01*
X009356Y016093D02*
X008597Y016093D01*
X008615Y015994D02*
X009356Y015994D01*
X009356Y015896D02*
X008605Y015896D01*
X008563Y015797D02*
X009356Y015797D01*
X009356Y015699D02*
X008455Y015699D01*
X008470Y015502D02*
X008103Y015502D01*
X008090Y015514D02*
X007233Y015514D01*
X007156Y015438D01*
X007156Y014830D01*
X007233Y014754D01*
X008090Y014754D01*
X008166Y014830D01*
X008166Y015438D01*
X008090Y015514D01*
X008166Y015403D02*
X008406Y015403D01*
X008406Y015305D02*
X008166Y015305D01*
X008166Y015206D02*
X008406Y015206D01*
X008406Y015108D02*
X008166Y015108D01*
X008166Y015009D02*
X008406Y015009D01*
X008406Y014911D02*
X008166Y014911D01*
X008148Y014812D02*
X008425Y014812D01*
X008350Y014221D02*
X008263Y014221D01*
X008036Y013984D02*
X008826Y013984D01*
X008826Y013484D02*
X008036Y013484D01*
X007817Y013729D02*
X006966Y013729D01*
X006966Y013827D02*
X007746Y013827D01*
X007708Y013926D02*
X006966Y013926D01*
X006966Y014024D02*
X007708Y014024D01*
X007739Y014123D02*
X006966Y014123D01*
X006966Y014221D02*
X007809Y014221D01*
X007742Y013630D02*
X006966Y013630D01*
X006966Y013532D02*
X007708Y013532D01*
X007708Y013433D02*
X006966Y013433D01*
X006966Y013335D02*
X007743Y013335D01*
X007820Y013236D02*
X006966Y013236D01*
X006966Y013138D02*
X007745Y013138D01*
X007708Y013039D02*
X006966Y013039D01*
X006966Y012941D02*
X007708Y012941D01*
X007740Y012842D02*
X006966Y012842D01*
X006885Y012744D02*
X007813Y012744D01*
X007748Y012645D02*
X006363Y012645D01*
X006434Y012547D02*
X004716Y012547D01*
X004716Y012645D02*
X004960Y012645D01*
X004960Y012744D02*
X004716Y012744D01*
X004716Y012842D02*
X004960Y012842D01*
X004960Y012941D02*
X004716Y012941D01*
X004716Y013039D02*
X004960Y013039D01*
X004960Y013138D02*
X004716Y013138D01*
X004716Y013236D02*
X005022Y013236D01*
X004960Y013335D02*
X004716Y013335D01*
X004536Y013569D02*
X005286Y013569D01*
X005286Y015204D01*
X005286Y015734D01*
X004536Y015734D01*
X004248Y015896D02*
X004216Y015896D01*
X004258Y015920D02*
X004216Y015819D01*
X004216Y017149D01*
X004258Y017048D01*
X004351Y016956D01*
X004356Y016954D01*
X004356Y016160D01*
X004459Y016057D01*
X004351Y016012D01*
X004258Y015920D01*
X004216Y015994D02*
X004332Y015994D01*
X004423Y016093D02*
X004216Y016093D01*
X004216Y016191D02*
X004356Y016191D01*
X004356Y016290D02*
X004216Y016290D01*
X004216Y016388D02*
X004356Y016388D01*
X004356Y016487D02*
X004216Y016487D01*
X004216Y016585D02*
X004356Y016585D01*
X004356Y016684D02*
X004216Y016684D01*
X004216Y016782D02*
X004356Y016782D01*
X004356Y016881D02*
X004216Y016881D01*
X004216Y016979D02*
X004327Y016979D01*
X004246Y017078D02*
X004216Y017078D01*
X004216Y017373D02*
X004239Y017373D01*
X004216Y017472D02*
X004310Y017472D01*
X004216Y017570D02*
X005016Y017570D01*
X005016Y017472D02*
X004763Y017472D01*
X004834Y017373D02*
X005016Y017373D01*
X005016Y017275D02*
X004865Y017275D01*
X004865Y017176D02*
X005016Y017176D01*
X005016Y017078D02*
X004827Y017078D01*
X004745Y016979D02*
X005016Y016979D01*
X005016Y016881D02*
X004716Y016881D01*
X004716Y016782D02*
X005024Y016782D01*
X005130Y016684D02*
X004716Y016684D01*
X004716Y016585D02*
X009356Y016585D01*
X009356Y016487D02*
X006248Y016487D01*
X006036Y016234D02*
X006566Y016234D01*
X006816Y015984D01*
X008286Y015984D01*
X008167Y016290D02*
X006765Y016290D01*
X006864Y016191D02*
X008029Y016191D01*
X008009Y015797D02*
X006989Y015797D01*
X007031Y015699D02*
X008118Y015699D01*
X007220Y015502D02*
X007036Y015502D01*
X007036Y015600D02*
X009356Y015600D01*
X009353Y015502D02*
X009356Y015502D01*
X009966Y015502D02*
X010106Y015502D01*
X010106Y015600D02*
X009966Y015600D01*
X009966Y015699D02*
X010106Y015699D01*
X010106Y015797D02*
X009966Y015797D01*
X009966Y015896D02*
X010193Y015896D01*
X010212Y015914D02*
X010106Y015809D01*
X010106Y012910D01*
X010212Y012804D01*
X010361Y012804D01*
X010716Y012804D01*
X010716Y012800D01*
X010772Y012745D01*
X010754Y012734D01*
X010726Y012706D01*
X010707Y012672D01*
X010696Y012634D01*
X010696Y012499D01*
X011231Y012499D01*
X011231Y012469D01*
X010696Y012469D01*
X010696Y012334D01*
X010707Y012296D01*
X010726Y012262D01*
X010754Y012234D01*
X010772Y012224D01*
X010716Y012168D01*
X010716Y012164D01*
X009966Y012164D01*
X009966Y016554D01*
X011202Y016554D01*
X011101Y016512D01*
X011008Y016420D01*
X010958Y016299D01*
X010958Y016169D01*
X011008Y016048D01*
X011101Y015956D01*
X011202Y015914D01*
X010212Y015914D01*
X010286Y015734D02*
X010286Y012984D01*
X011246Y012984D01*
X011246Y013484D02*
X010536Y013484D01*
X010536Y015234D01*
X012286Y015234D01*
X013036Y014484D01*
X014606Y014484D01*
X014606Y013984D02*
X012786Y013984D01*
X012286Y014484D01*
X011786Y013984D02*
X011536Y013984D01*
X011536Y014734D01*
X011536Y013984D02*
X011246Y013984D01*
X011786Y013984D02*
X011786Y010984D01*
X011246Y010984D01*
X010536Y010984D01*
X010536Y008734D01*
X010774Y008508D02*
X011798Y008508D01*
X011758Y008548D02*
X011851Y008456D01*
X011952Y008414D01*
X010621Y008414D01*
X010722Y008456D01*
X010815Y008548D01*
X010865Y008669D01*
X010865Y008799D01*
X010815Y008920D01*
X010722Y009012D01*
X010716Y009015D01*
X010716Y010804D01*
X010716Y010804D01*
X010716Y010800D01*
X010783Y010734D01*
X010716Y010668D01*
X010716Y010300D01*
X010793Y010224D01*
X011066Y010224D01*
X011066Y009410D01*
X011172Y009304D01*
X011321Y009304D01*
X017106Y009304D01*
X017106Y006410D01*
X017212Y006304D01*
X017716Y006304D01*
X017716Y006300D01*
X017772Y006245D01*
X017754Y006234D01*
X017726Y006206D01*
X017707Y006172D01*
X017696Y006134D01*
X017696Y005999D01*
X018231Y005999D01*
X018231Y005969D01*
X017696Y005969D01*
X017696Y005834D01*
X017707Y005796D01*
X017726Y005762D01*
X017754Y005734D01*
X017772Y005724D01*
X017716Y005668D01*
X017716Y005664D01*
X016966Y005664D01*
X016966Y008309D01*
X016861Y008414D01*
X015477Y008414D01*
X015488Y008417D01*
X015522Y008437D01*
X015550Y008465D01*
X015570Y008499D01*
X015580Y008537D01*
X015580Y008715D01*
X015311Y008715D01*
X015311Y008753D01*
X015273Y008753D01*
X015273Y009061D01*
X015135Y009061D01*
X015097Y009051D01*
X015062Y009031D01*
X015034Y009003D01*
X015026Y008988D01*
X014972Y009041D01*
X014589Y009041D01*
X014513Y008965D01*
X014513Y008815D01*
X013981Y008815D01*
X013981Y008965D01*
X013905Y009041D01*
X013168Y009041D01*
X013091Y008965D01*
X013091Y008914D01*
X012317Y008914D01*
X012315Y008920D01*
X012222Y009012D01*
X012102Y009062D01*
X011971Y009062D01*
X011851Y009012D01*
X011758Y008920D01*
X011708Y008799D01*
X011708Y008669D01*
X011758Y008548D01*
X011734Y008607D02*
X010839Y008607D01*
X010865Y008705D02*
X011708Y008705D01*
X011710Y008804D02*
X010863Y008804D01*
X010822Y008902D02*
X011751Y008902D01*
X011839Y009001D02*
X010734Y009001D01*
X010716Y009099D02*
X017106Y009099D01*
X017106Y009001D02*
X015552Y009001D01*
X015550Y009003D02*
X015522Y009031D01*
X015488Y009051D01*
X015450Y009061D01*
X015311Y009061D01*
X015311Y008753D01*
X015580Y008753D01*
X015580Y008931D01*
X015570Y008969D01*
X015550Y009003D01*
X015580Y008902D02*
X017106Y008902D01*
X017106Y008804D02*
X015580Y008804D01*
X015580Y008705D02*
X017106Y008705D01*
X017106Y008607D02*
X015580Y008607D01*
X015572Y008508D02*
X017106Y008508D01*
X017106Y008410D02*
X016865Y008410D01*
X016964Y008311D02*
X017106Y008311D01*
X017106Y008213D02*
X016966Y008213D01*
X016966Y008114D02*
X017106Y008114D01*
X017106Y008016D02*
X016966Y008016D01*
X016966Y007917D02*
X017106Y007917D01*
X017106Y007819D02*
X016966Y007819D01*
X016966Y007720D02*
X017106Y007720D01*
X017106Y007622D02*
X016966Y007622D01*
X016966Y007523D02*
X017106Y007523D01*
X017106Y007425D02*
X016966Y007425D01*
X016966Y007326D02*
X017106Y007326D01*
X017106Y007228D02*
X016966Y007228D01*
X016966Y007129D02*
X017106Y007129D01*
X017106Y007031D02*
X016966Y007031D01*
X016966Y006932D02*
X017106Y006932D01*
X017106Y006834D02*
X016966Y006834D01*
X016966Y006735D02*
X017106Y006735D01*
X017106Y006637D02*
X016966Y006637D01*
X016966Y006538D02*
X017106Y006538D01*
X017106Y006440D02*
X016966Y006440D01*
X016966Y006341D02*
X017175Y006341D01*
X017286Y006484D02*
X017286Y009484D01*
X011246Y009484D01*
X011246Y010484D01*
X011066Y010183D02*
X010716Y010183D01*
X010716Y010281D02*
X010736Y010281D01*
X010716Y010380D02*
X010716Y010380D01*
X010716Y010478D02*
X010716Y010478D01*
X010716Y010577D02*
X010716Y010577D01*
X010716Y010675D02*
X010724Y010675D01*
X010716Y010774D02*
X010743Y010774D01*
X010716Y010084D02*
X011066Y010084D01*
X011066Y009986D02*
X010716Y009986D01*
X010716Y009887D02*
X011066Y009887D01*
X011066Y009789D02*
X010716Y009789D01*
X010716Y009690D02*
X011066Y009690D01*
X011066Y009592D02*
X010716Y009592D01*
X010716Y009493D02*
X011066Y009493D01*
X011081Y009395D02*
X010716Y009395D01*
X010716Y009296D02*
X017106Y009296D01*
X017106Y009198D02*
X010716Y009198D01*
X010036Y009984D02*
X010036Y008234D01*
X016786Y008234D01*
X016786Y005484D01*
X018246Y005484D01*
X017738Y005750D02*
X016966Y005750D01*
X016966Y005849D02*
X017696Y005849D01*
X017696Y005947D02*
X016966Y005947D01*
X016966Y006046D02*
X017696Y006046D01*
X017699Y006144D02*
X016966Y006144D01*
X016966Y006243D02*
X017769Y006243D01*
X018246Y006484D02*
X017286Y006484D01*
X017536Y006984D02*
X018246Y006984D01*
X018246Y007484D02*
X018286Y007484D01*
X018286Y007984D01*
X018246Y007484D02*
X018786Y007484D01*
X018786Y004484D01*
X018246Y004484D01*
X018749Y004273D02*
X019034Y004273D01*
X018978Y004371D02*
X018928Y004371D01*
X018770Y004174D02*
X019177Y004174D01*
X019395Y004174D02*
X024856Y004174D01*
X024856Y004076D02*
X018776Y004076D01*
X018776Y003977D02*
X024856Y003977D01*
X024856Y003879D02*
X018776Y003879D01*
X018756Y003780D02*
X024856Y003780D01*
X024856Y003682D02*
X014466Y003682D01*
X014466Y003780D02*
X015296Y003780D01*
X015276Y003879D02*
X014466Y003879D01*
X014466Y003583D02*
X024856Y003583D01*
X024856Y003485D02*
X014466Y003485D01*
X013974Y002992D02*
X015851Y002992D01*
X015949Y002894D02*
X014036Y002894D01*
X014036Y002795D02*
X016048Y002795D01*
X016146Y002697D02*
X014036Y002697D01*
X014036Y002598D02*
X016245Y002598D01*
X016343Y002500D02*
X014036Y002500D01*
X014036Y002401D02*
X016442Y002401D01*
X016540Y002303D02*
X014029Y002303D01*
X013832Y002199D02*
X013793Y002189D01*
X013759Y002169D01*
X013731Y002141D01*
X013712Y002107D01*
X013701Y002069D01*
X013701Y001784D01*
X014589Y001784D01*
X014589Y001684D01*
X014689Y001684D01*
X014689Y001784D01*
X015576Y001784D01*
X015576Y002069D01*
X015566Y002107D01*
X015546Y002141D01*
X015518Y002169D01*
X015484Y002189D01*
X015446Y002199D01*
X014689Y002199D01*
X014689Y001784D01*
X014589Y001784D01*
X014589Y002199D01*
X013832Y002199D01*
X013711Y002106D02*
X010094Y002106D01*
X010094Y002007D02*
X013701Y002007D01*
X013701Y001909D02*
X010094Y001909D01*
X010094Y001810D02*
X013701Y001810D01*
X013701Y001684D02*
X013701Y001399D01*
X013712Y001361D01*
X013731Y001327D01*
X013759Y001299D01*
X013793Y001279D01*
X013832Y001269D01*
X014589Y001269D01*
X014589Y001684D01*
X013701Y001684D01*
X013701Y001613D02*
X010094Y001613D01*
X010094Y001515D02*
X013701Y001515D01*
X013701Y001416D02*
X010094Y001416D01*
X010094Y001318D02*
X013741Y001318D01*
X013975Y001219D02*
X017726Y001219D01*
X017825Y001121D02*
X014036Y001121D01*
X014036Y001022D02*
X017923Y001022D01*
X018022Y000924D02*
X014036Y000924D01*
X014036Y000825D02*
X018036Y000825D01*
X018036Y000727D02*
X014036Y000727D01*
X014589Y001318D02*
X014689Y001318D01*
X014689Y001269D02*
X015446Y001269D01*
X015484Y001279D01*
X015518Y001299D01*
X015546Y001327D01*
X015566Y001361D01*
X015576Y001399D01*
X015576Y001684D01*
X014689Y001684D01*
X014689Y001269D01*
X014689Y001416D02*
X014589Y001416D01*
X014589Y001515D02*
X014689Y001515D01*
X014689Y001613D02*
X014589Y001613D01*
X014589Y001712D02*
X010052Y001712D01*
X009786Y001990D02*
X009786Y002620D01*
X010471Y002620D01*
X011702Y002620D01*
X011621Y003734D01*
X011536Y003900D01*
X011536Y004484D01*
X011228Y004371D02*
X011132Y004371D01*
X011132Y004273D02*
X011284Y004273D01*
X011356Y004174D02*
X011132Y004174D01*
X011207Y004076D02*
X011356Y004076D01*
X011294Y003977D02*
X011279Y003977D01*
X011279Y003879D02*
X011294Y003879D01*
X011294Y003780D02*
X011279Y003780D01*
X011279Y003682D02*
X011294Y003682D01*
X011294Y003583D02*
X011279Y003583D01*
X011279Y003485D02*
X011294Y003485D01*
X010952Y003734D02*
X010952Y006150D01*
X011536Y006734D01*
X011595Y006538D02*
X011913Y006538D01*
X011778Y006440D02*
X011496Y006440D01*
X011398Y006341D02*
X011726Y006341D01*
X011708Y006243D02*
X011299Y006243D01*
X011201Y006144D02*
X011719Y006144D01*
X011761Y006046D02*
X011132Y006046D01*
X011132Y005947D02*
X011856Y005947D01*
X011719Y005849D02*
X011132Y005849D01*
X011132Y005750D02*
X011710Y005750D01*
X011710Y005652D02*
X011132Y005652D01*
X011132Y005553D02*
X011710Y005553D01*
X011710Y005455D02*
X011132Y005455D01*
X011132Y005356D02*
X011710Y005356D01*
X011750Y005258D02*
X011132Y005258D01*
X011132Y005159D02*
X011710Y005159D01*
X011710Y005061D02*
X011132Y005061D01*
X011132Y004962D02*
X011710Y004962D01*
X011710Y004864D02*
X011132Y004864D01*
X011132Y004765D02*
X011357Y004765D01*
X011257Y004667D02*
X011132Y004667D01*
X011132Y004568D02*
X011216Y004568D01*
X011208Y004470D02*
X011132Y004470D01*
X011716Y004174D02*
X012792Y004174D01*
X012844Y004273D02*
X011789Y004273D01*
X011845Y004371D02*
X012692Y004371D01*
X012605Y004470D02*
X011865Y004470D01*
X011877Y004076D02*
X012671Y004076D01*
X012596Y003977D02*
X011948Y003977D01*
X011948Y003879D02*
X012555Y003879D01*
X012536Y003780D02*
X011948Y003780D01*
X011948Y003682D02*
X012536Y003682D01*
X012558Y003583D02*
X011948Y003583D01*
X011948Y003485D02*
X012599Y003485D01*
X012677Y003386D02*
X011827Y003386D01*
X011834Y003288D02*
X012808Y003288D01*
X013256Y003189D02*
X011841Y003189D01*
X011848Y003091D02*
X013355Y003091D01*
X013229Y002992D02*
X011855Y002992D01*
X011862Y002894D02*
X013166Y002894D01*
X013166Y002795D02*
X011870Y002795D01*
X011880Y002697D02*
X013166Y002697D01*
X013166Y002598D02*
X011884Y002598D01*
X011836Y002500D02*
X013166Y002500D01*
X013166Y002401D02*
X010907Y002401D01*
X010899Y002303D02*
X013174Y002303D01*
X013227Y001219D02*
X010874Y001219D01*
X010869Y001224D02*
X010834Y001244D01*
X010796Y001254D01*
X010521Y001254D01*
X010521Y000898D01*
X010927Y000898D01*
X010927Y001124D01*
X010916Y001162D01*
X010897Y001196D01*
X010869Y001224D01*
X010927Y001121D02*
X013166Y001121D01*
X013166Y001022D02*
X010927Y001022D01*
X010927Y000924D02*
X013166Y000924D01*
X013166Y000825D02*
X010521Y000825D01*
X010521Y000924D02*
X010421Y000924D01*
X010421Y001022D02*
X010521Y001022D01*
X010521Y001121D02*
X010421Y001121D01*
X010421Y001219D02*
X010521Y001219D01*
X010421Y000825D02*
X009335Y000825D01*
X008738Y000825D02*
X008335Y000825D01*
X008433Y000924D02*
X008640Y000924D01*
X008583Y001022D02*
X008490Y001022D01*
X008531Y001121D02*
X008542Y001121D01*
X008536Y001219D02*
X008536Y001219D01*
X008536Y001318D02*
X008536Y001318D01*
X008036Y001234D02*
X010036Y003734D01*
X010036Y006734D01*
X009746Y007024D01*
X008656Y007024D01*
X008656Y007334D02*
X009136Y007334D01*
X009286Y007484D01*
X009585Y007622D02*
X013071Y007622D01*
X013071Y007720D02*
X009657Y007720D01*
X009536Y007854D02*
X009536Y007984D01*
X009536Y007854D02*
X008136Y007854D01*
X007826Y007854D02*
X007786Y007854D01*
X007786Y008484D01*
X007482Y008607D02*
X006573Y008607D01*
X006591Y008705D02*
X007543Y008705D01*
X007700Y008804D02*
X006735Y008804D01*
X006777Y008902D02*
X007965Y008902D01*
X007958Y009001D02*
X006777Y009001D01*
X006777Y009099D02*
X007979Y009099D01*
X008017Y009198D02*
X006777Y009198D01*
X006777Y009296D02*
X007869Y009296D01*
X007721Y009395D02*
X006777Y009395D01*
X006777Y009493D02*
X007573Y009493D01*
X007426Y009592D02*
X006777Y009592D01*
X006709Y009690D02*
X007278Y009690D01*
X007130Y009789D02*
X004865Y009789D01*
X004865Y009690D02*
X005364Y009690D01*
X005296Y009592D02*
X004833Y009592D01*
X004759Y009493D02*
X005296Y009493D01*
X005296Y009395D02*
X004716Y009395D01*
X004716Y009296D02*
X005296Y009296D01*
X005296Y009198D02*
X004716Y009198D01*
X004716Y009099D02*
X005296Y009099D01*
X005296Y009001D02*
X004716Y009001D01*
X004716Y008902D02*
X005296Y008902D01*
X005338Y008804D02*
X004716Y008804D01*
X004716Y008705D02*
X005520Y008705D01*
X005547Y008607D02*
X004716Y008607D01*
X004716Y008508D02*
X005573Y008508D01*
X005600Y008410D02*
X004716Y008410D01*
X004716Y008311D02*
X005627Y008311D01*
X005653Y008213D02*
X004716Y008213D01*
X004716Y007917D02*
X005706Y007917D01*
X005706Y007819D02*
X004716Y007819D01*
X004716Y007720D02*
X005706Y007720D01*
X005706Y007622D02*
X004678Y007622D01*
X004536Y007734D02*
X004536Y009734D01*
X003371Y009734D01*
X002702Y009734D02*
X002082Y009734D01*
X001786Y009529D01*
X001786Y010234D02*
X006786Y010234D01*
X008286Y009234D01*
X008286Y008984D01*
X008594Y009099D02*
X009356Y009099D01*
X009356Y009001D02*
X008615Y009001D01*
X008608Y008902D02*
X009356Y008902D01*
X009356Y008804D02*
X008567Y008804D01*
X008470Y008705D02*
X009356Y008705D01*
X009356Y008607D02*
X008091Y008607D01*
X008103Y008705D02*
X008029Y008705D01*
X008006Y008804D02*
X007872Y008804D01*
X008115Y008508D02*
X009356Y008508D01*
X009356Y008410D02*
X008111Y008410D01*
X008070Y008311D02*
X009356Y008311D01*
X009356Y008213D02*
X008352Y008213D01*
X008366Y008114D02*
X009356Y008114D01*
X009615Y007523D02*
X013486Y007523D01*
X013486Y007425D02*
X013586Y007425D01*
X013586Y007523D02*
X014708Y007523D01*
X014708Y007425D02*
X014001Y007425D01*
X014001Y007326D02*
X014747Y007326D01*
X014816Y007228D02*
X014507Y007228D01*
X014581Y007129D02*
X014741Y007129D01*
X014708Y007031D02*
X014615Y007031D01*
X014615Y006932D02*
X014708Y006932D01*
X014744Y006834D02*
X014579Y006834D01*
X014501Y006735D02*
X014821Y006735D01*
X014744Y006637D02*
X014466Y006637D01*
X014466Y006538D02*
X014708Y006538D01*
X014708Y006440D02*
X014466Y006440D01*
X014466Y006341D02*
X014741Y006341D01*
X014814Y006243D02*
X014466Y006243D01*
X014466Y006144D02*
X014748Y006144D01*
X014708Y006046D02*
X014466Y006046D01*
X014466Y005947D02*
X014708Y005947D01*
X014737Y005849D02*
X014466Y005849D01*
X015036Y005984D02*
X015826Y005984D01*
X015826Y005484D02*
X015036Y005484D01*
X015036Y004984D02*
X015826Y004984D01*
X016314Y005258D02*
X016356Y005258D01*
X016356Y005356D02*
X016356Y005356D01*
X016356Y005455D02*
X016356Y005455D01*
X016356Y005553D02*
X016356Y005553D01*
X016356Y005652D02*
X016356Y005652D01*
X016356Y005750D02*
X016306Y005750D01*
X016356Y005849D02*
X016356Y005849D01*
X016356Y005947D02*
X016356Y005947D01*
X016356Y006046D02*
X016356Y006046D01*
X016356Y006144D02*
X016356Y006144D01*
X016356Y006243D02*
X016299Y006243D01*
X016356Y006341D02*
X016356Y006341D01*
X016356Y006440D02*
X016356Y006440D01*
X016356Y006538D02*
X016356Y006538D01*
X016356Y006637D02*
X016356Y006637D01*
X016356Y006735D02*
X016291Y006735D01*
X016356Y006834D02*
X016356Y006834D01*
X016356Y006932D02*
X016356Y006932D01*
X016356Y007031D02*
X016356Y007031D01*
X016356Y007129D02*
X016356Y007129D01*
X016356Y007228D02*
X016297Y007228D01*
X016356Y007326D02*
X016356Y007326D01*
X016356Y007425D02*
X016356Y007425D01*
X016356Y007523D02*
X016356Y007523D01*
X016356Y007622D02*
X016356Y007622D01*
X016356Y007720D02*
X016304Y007720D01*
X015826Y007484D02*
X015036Y007484D01*
X014808Y007720D02*
X014001Y007720D01*
X014001Y007622D02*
X014738Y007622D01*
X015264Y007720D02*
X015349Y007720D01*
X015036Y006984D02*
X015826Y006984D01*
X015826Y006484D02*
X015036Y006484D01*
X014286Y006785D02*
X014286Y006984D01*
X014066Y007228D02*
X013999Y007228D01*
X013991Y007129D02*
X013929Y007129D01*
X013958Y007031D02*
X009994Y007031D01*
X009896Y007129D02*
X013144Y007129D01*
X013074Y007228D02*
X009494Y007228D01*
X009576Y007326D02*
X013071Y007326D01*
X013071Y007425D02*
X009615Y007425D01*
X010093Y006932D02*
X013958Y006932D01*
X013586Y007129D02*
X013486Y007129D01*
X013486Y007228D02*
X013586Y007228D01*
X013586Y007326D02*
X013486Y007326D01*
X014106Y006538D02*
X012160Y006538D01*
X012295Y006440D02*
X014106Y006440D01*
X012986Y005750D02*
X012363Y005750D01*
X012363Y005652D02*
X012523Y005652D01*
X012548Y005553D02*
X012363Y005553D01*
X012363Y005455D02*
X012597Y005455D01*
X012679Y005356D02*
X012363Y005356D01*
X012323Y005258D02*
X012826Y005258D01*
X012756Y005159D02*
X012363Y005159D01*
X012036Y004900D02*
X013036Y004900D01*
X013036Y004734D01*
X012564Y004568D02*
X012302Y004568D01*
X012363Y004667D02*
X012536Y004667D01*
X012036Y005569D02*
X012036Y006234D01*
X012354Y006144D02*
X012716Y006144D01*
X012620Y006046D02*
X012312Y006046D01*
X012216Y005947D02*
X012561Y005947D01*
X012528Y005849D02*
X012354Y005849D01*
X009856Y004273D02*
X009843Y004273D01*
X009856Y004174D02*
X009760Y004174D01*
X009677Y004076D02*
X009856Y004076D01*
X009856Y003977D02*
X009593Y003977D01*
X009510Y003879D02*
X009856Y003879D01*
X009843Y003780D02*
X009427Y003780D01*
X009343Y003682D02*
X009764Y003682D01*
X009685Y003583D02*
X009260Y003583D01*
X009176Y003485D02*
X009606Y003485D01*
X009528Y003386D02*
X009093Y003386D01*
X009010Y003288D02*
X009449Y003288D01*
X009370Y003189D02*
X008926Y003189D01*
X008843Y003091D02*
X009291Y003091D01*
X009212Y002992D02*
X008760Y002992D01*
X008676Y002894D02*
X009134Y002894D01*
X009055Y002795D02*
X008593Y002795D01*
X008510Y002697D02*
X008976Y002697D01*
X008897Y002598D02*
X008426Y002598D01*
X008343Y002500D02*
X008818Y002500D01*
X008740Y002401D02*
X008260Y002401D01*
X008176Y002303D02*
X008661Y002303D01*
X008582Y002204D02*
X008093Y002204D01*
X008010Y002106D02*
X008503Y002106D01*
X008424Y002007D02*
X007926Y002007D01*
X007843Y001909D02*
X008346Y001909D01*
X008267Y001810D02*
X007760Y001810D01*
X007676Y001712D02*
X007883Y001712D01*
X007708Y001613D02*
X007593Y001613D01*
X007611Y001515D02*
X007510Y001515D01*
X007502Y001416D02*
X007571Y001416D01*
X007536Y001318D02*
X007536Y001318D01*
X007536Y001219D02*
X007536Y001219D01*
X007531Y001121D02*
X007542Y001121D01*
X007583Y001022D02*
X007490Y001022D01*
X007433Y000924D02*
X007640Y000924D01*
X007738Y000825D02*
X007335Y000825D01*
X007036Y001234D02*
X009786Y004484D01*
X009786Y006484D01*
X009566Y006704D01*
X008656Y006704D01*
X008656Y006394D02*
X009286Y006394D01*
X009286Y006234D01*
X009122Y005947D02*
X009076Y005947D01*
X009076Y005849D02*
X009606Y005849D01*
X009606Y005947D02*
X009451Y005947D01*
X009562Y006046D02*
X009606Y006046D01*
X009604Y006144D02*
X009606Y006144D01*
X009606Y005750D02*
X009076Y005750D01*
X009076Y005652D02*
X009606Y005652D01*
X009606Y005553D02*
X009076Y005553D01*
X009076Y005455D02*
X009606Y005455D01*
X009606Y005356D02*
X009076Y005356D01*
X009076Y005258D02*
X009606Y005258D01*
X009606Y005159D02*
X009076Y005159D01*
X009076Y005061D02*
X009606Y005061D01*
X009606Y004962D02*
X009058Y004962D01*
X008656Y005134D02*
X008386Y005134D01*
X007286Y006234D01*
X007286Y005734D02*
X008136Y004884D01*
X008136Y004614D01*
X008366Y004568D02*
X009606Y004568D01*
X009606Y004667D02*
X008366Y004667D01*
X008366Y004765D02*
X009606Y004765D01*
X009606Y004864D02*
X008366Y004864D01*
X008366Y004470D02*
X009538Y004470D01*
X009455Y004371D02*
X008366Y004371D01*
X008366Y004273D02*
X009372Y004273D01*
X009288Y004174D02*
X007316Y004174D01*
X007196Y004273D02*
X007196Y004273D01*
X007196Y004371D02*
X007196Y004371D01*
X007196Y004470D02*
X007196Y004470D01*
X007196Y004568D02*
X007196Y004568D01*
X006876Y004614D02*
X006792Y004030D01*
X006792Y003234D01*
X007060Y003189D02*
X008455Y003189D01*
X008372Y003091D02*
X007060Y003091D01*
X007049Y002992D02*
X008288Y002992D01*
X008205Y002894D02*
X005716Y002894D01*
X005716Y002992D02*
X006007Y002992D01*
X006003Y002999D02*
X006023Y002965D01*
X006051Y002937D01*
X006085Y002917D01*
X006123Y002907D01*
X006262Y002907D01*
X006262Y003215D01*
X005993Y003215D01*
X005993Y003037D01*
X006003Y002999D01*
X005993Y003091D02*
X005716Y003091D01*
X005716Y003189D02*
X005993Y003189D01*
X005993Y003288D02*
X005716Y003288D01*
X005716Y003386D02*
X005993Y003386D01*
X006012Y003485D02*
X005716Y003485D01*
X005716Y003583D02*
X006612Y003583D01*
X006612Y003682D02*
X005716Y003682D01*
X005716Y003780D02*
X006612Y003780D01*
X006612Y003879D02*
X006395Y003879D01*
X006426Y003977D02*
X006607Y003977D01*
X006612Y004076D02*
X006426Y004076D01*
X006426Y004174D02*
X006631Y004174D01*
X006981Y004076D02*
X009205Y004076D01*
X009122Y003977D02*
X006972Y003977D01*
X006972Y003879D02*
X009038Y003879D01*
X008955Y003780D02*
X006972Y003780D01*
X006972Y003682D02*
X008872Y003682D01*
X008788Y003583D02*
X006972Y003583D01*
X007041Y003485D02*
X008705Y003485D01*
X008622Y003386D02*
X007060Y003386D01*
X007060Y003288D02*
X008538Y003288D01*
X008121Y002795D02*
X005716Y002795D01*
X005716Y002697D02*
X008038Y002697D01*
X007955Y002598D02*
X005716Y002598D01*
X005716Y002500D02*
X007871Y002500D01*
X007788Y002401D02*
X005716Y002401D01*
X005716Y002303D02*
X007705Y002303D01*
X007621Y002204D02*
X005716Y002204D01*
X005716Y002106D02*
X007538Y002106D01*
X007455Y002007D02*
X005716Y002007D01*
X005716Y001909D02*
X007371Y001909D01*
X007288Y001810D02*
X005716Y001810D01*
X005813Y001712D02*
X005883Y001712D01*
X006190Y001712D02*
X006883Y001712D01*
X006708Y001613D02*
X006365Y001613D01*
X006461Y001515D02*
X006611Y001515D01*
X006571Y001416D02*
X006502Y001416D01*
X006536Y001318D02*
X006536Y001318D01*
X006536Y001219D02*
X006536Y001219D01*
X006531Y001121D02*
X006542Y001121D01*
X006583Y001022D02*
X006490Y001022D01*
X006433Y000924D02*
X006640Y000924D01*
X006738Y000825D02*
X006335Y000825D01*
X006036Y001234D02*
X005536Y001734D01*
X005536Y003984D01*
X006246Y003984D01*
X006246Y004614D01*
X006246Y005024D01*
X006036Y005234D01*
X006036Y005734D01*
X005416Y005444D02*
X003746Y005444D01*
X002536Y004234D01*
X002036Y003734D02*
X001536Y004234D01*
X002036Y003734D02*
X003036Y003734D01*
X003916Y004614D01*
X005936Y004614D01*
X006246Y004614D02*
X006566Y007854D01*
X006566Y007514D01*
X006786Y007234D01*
X007036Y007234D01*
X007196Y007324D01*
X007196Y007854D01*
X007506Y007854D02*
X007506Y008294D01*
X007506Y007854D01*
X007506Y007854D01*
X007506Y007917D02*
X007506Y007917D01*
X007506Y008016D02*
X007506Y008016D01*
X007506Y008114D02*
X007506Y008114D01*
X007506Y008213D02*
X007506Y008213D01*
X007503Y008311D02*
X006517Y008311D01*
X006535Y008410D02*
X007462Y008410D01*
X007458Y008508D02*
X006554Y008508D01*
X006876Y008294D02*
X006876Y007854D01*
X006876Y007854D01*
X006876Y008294D01*
X006876Y008213D02*
X006876Y008213D01*
X006876Y008114D02*
X006876Y008114D01*
X006876Y008016D02*
X006876Y008016D01*
X006876Y007917D02*
X006876Y007917D01*
X006246Y007854D02*
X006509Y009234D01*
X006055Y009296D02*
X006018Y009296D01*
X006018Y009395D02*
X006055Y009395D01*
X006055Y009493D02*
X006018Y009493D01*
X006018Y009592D02*
X006055Y009592D01*
X006055Y009690D02*
X006018Y009690D01*
X005809Y009690D02*
X005764Y009690D01*
X005564Y009234D02*
X005936Y007854D01*
X005836Y007434D02*
X006090Y007434D01*
X006091Y007435D01*
X006093Y007434D01*
X006344Y007434D01*
X006295Y006939D01*
X006222Y007012D01*
X006102Y007062D01*
X005971Y007062D01*
X005965Y007060D01*
X005836Y007189D01*
X005836Y007434D01*
X005836Y007425D02*
X006343Y007425D01*
X006333Y007326D02*
X005836Y007326D01*
X005836Y007228D02*
X006324Y007228D01*
X006314Y007129D02*
X005896Y007129D01*
X005746Y007024D02*
X006036Y006734D01*
X006178Y007031D02*
X006304Y007031D01*
X005746Y007024D02*
X005416Y007024D01*
X005416Y006704D02*
X005066Y006704D01*
X004536Y007234D01*
X003452Y007234D01*
X003452Y007734D01*
X002536Y007734D01*
X002536Y006734D02*
X003452Y006484D01*
X003452Y006984D01*
X004536Y006984D01*
X004876Y006394D01*
X005416Y006394D01*
X004996Y007031D02*
X004994Y007031D01*
X004996Y007129D02*
X004896Y007129D01*
X004797Y007228D02*
X004996Y007228D01*
X004996Y007326D02*
X004699Y007326D01*
X004468Y007523D02*
X005032Y007523D01*
X004996Y007425D02*
X004409Y007425D01*
X004536Y007734D02*
X004121Y007734D01*
X004121Y006484D02*
X004536Y006234D01*
X004186Y005134D02*
X004036Y004984D01*
X004186Y005134D02*
X005416Y005134D01*
X005706Y004371D02*
X003928Y004371D01*
X003829Y004273D02*
X005706Y004273D01*
X006066Y004174D02*
X003731Y004174D01*
X003632Y004076D02*
X005373Y004076D01*
X005356Y003977D02*
X003534Y003977D01*
X003435Y003879D02*
X005356Y003879D01*
X005356Y003780D02*
X003337Y003780D01*
X003238Y003682D02*
X005356Y003682D01*
X005356Y003583D02*
X003140Y003583D01*
X002992Y003485D02*
X005356Y003485D01*
X005356Y003386D02*
X003034Y003386D01*
X003054Y003288D02*
X005356Y003288D01*
X005356Y003189D02*
X002586Y003189D01*
X002586Y003091D02*
X002486Y003091D01*
X002486Y002992D02*
X002586Y002992D01*
X002586Y002894D02*
X002486Y002894D01*
X002486Y002795D02*
X002586Y002795D01*
X002817Y002795D02*
X005356Y002795D01*
X005356Y002697D02*
X001486Y002697D01*
X001783Y002795D02*
X002256Y002795D01*
X002142Y002894D02*
X001903Y002894D01*
X001977Y002992D02*
X002076Y002992D01*
X002036Y003091D02*
X002018Y003091D01*
X002931Y002894D02*
X005356Y002894D01*
X005356Y002992D02*
X002997Y002992D01*
X003037Y003091D02*
X005356Y003091D01*
X006262Y003091D02*
X006299Y003091D01*
X006299Y003189D02*
X006262Y003189D01*
X006262Y003288D02*
X006299Y003288D01*
X006299Y003386D02*
X006262Y003386D01*
X006262Y003485D02*
X006299Y003485D01*
X006299Y002992D02*
X006262Y002992D01*
X006995Y004174D02*
X007077Y004174D01*
X007786Y004654D02*
X007786Y004984D01*
X007036Y005234D01*
X007786Y004654D02*
X007826Y004614D01*
X008006Y005764D02*
X007536Y007234D01*
X008036Y007234D02*
X008196Y006074D01*
X008656Y006074D01*
X008656Y005764D02*
X008006Y005764D01*
X008537Y009198D02*
X009356Y009198D01*
X009356Y009296D02*
X008466Y009296D01*
X008380Y009395D02*
X009356Y009395D01*
X009356Y009493D02*
X008222Y009493D01*
X008075Y009592D02*
X009356Y009592D01*
X009356Y009690D02*
X007927Y009690D01*
X007779Y009789D02*
X009356Y009789D01*
X009356Y009887D02*
X007631Y009887D01*
X007484Y009986D02*
X009356Y009986D01*
X009356Y010084D02*
X007336Y010084D01*
X007188Y010183D02*
X009356Y010183D01*
X008841Y010281D02*
X008811Y010281D01*
X008811Y010380D02*
X008841Y010380D01*
X008811Y010478D02*
X006244Y010478D01*
X006326Y010577D02*
X008276Y010577D01*
X008288Y010675D02*
X008148Y010675D01*
X008290Y010774D02*
X008323Y010774D01*
X008036Y010984D02*
X008826Y010984D01*
X008826Y011484D02*
X008036Y011484D01*
X007731Y011365D02*
X005837Y011365D01*
X005865Y011266D02*
X007790Y011266D01*
X007757Y011168D02*
X005864Y011168D01*
X005823Y011069D02*
X007716Y011069D01*
X007708Y010971D02*
X006264Y010971D01*
X006334Y010872D02*
X007728Y010872D01*
X007783Y010774D02*
X006365Y010774D01*
X006365Y010675D02*
X007925Y010675D01*
X008276Y010380D02*
X006895Y010380D01*
X007040Y010281D02*
X008295Y010281D01*
X009330Y010774D02*
X009356Y010774D01*
X009356Y010872D02*
X009356Y010872D01*
X009356Y010971D02*
X009356Y010971D01*
X009356Y011069D02*
X009356Y011069D01*
X009356Y011168D02*
X009356Y011168D01*
X009356Y011266D02*
X009322Y011266D01*
X009356Y011365D02*
X009356Y011365D01*
X009356Y011463D02*
X009356Y011463D01*
X009356Y011562D02*
X009356Y011562D01*
X009356Y011660D02*
X009356Y011660D01*
X009356Y011759D02*
X009315Y011759D01*
X009356Y011857D02*
X009356Y011857D01*
X009356Y011956D02*
X009356Y011956D01*
X009356Y012054D02*
X009356Y012054D01*
X009356Y012153D02*
X009356Y012153D01*
X009356Y012251D02*
X009307Y012251D01*
X009356Y012350D02*
X009356Y012350D01*
X009356Y012448D02*
X009356Y012448D01*
X009356Y012547D02*
X009356Y012547D01*
X009356Y012645D02*
X009356Y012645D01*
X009356Y012744D02*
X009300Y012744D01*
X009356Y012842D02*
X009356Y012842D01*
X009356Y012941D02*
X009356Y012941D01*
X009356Y013039D02*
X009356Y013039D01*
X009356Y013138D02*
X009356Y013138D01*
X009356Y013236D02*
X009292Y013236D01*
X009356Y013335D02*
X009356Y013335D01*
X009356Y013433D02*
X009356Y013433D01*
X009356Y013532D02*
X009356Y013532D01*
X009356Y013630D02*
X009356Y013630D01*
X009356Y013729D02*
X009296Y013729D01*
X009356Y013827D02*
X009356Y013827D01*
X009356Y013926D02*
X009356Y013926D01*
X009356Y014024D02*
X009356Y014024D01*
X009356Y014123D02*
X009356Y014123D01*
X009356Y014221D02*
X009303Y014221D01*
X009356Y014320D02*
X006966Y014320D01*
X006966Y014418D02*
X009356Y014418D01*
X009356Y014517D02*
X006966Y014517D01*
X006966Y014615D02*
X009356Y014615D01*
X009356Y014714D02*
X007035Y014714D01*
X007036Y014812D02*
X007175Y014812D01*
X007156Y014911D02*
X007036Y014911D01*
X007036Y015009D02*
X007156Y015009D01*
X007156Y015108D02*
X007036Y015108D01*
X007036Y015206D02*
X007156Y015206D01*
X007156Y015305D02*
X007036Y015305D01*
X007036Y015403D02*
X007156Y015403D01*
X006786Y015204D02*
X006816Y015984D01*
X006536Y016782D02*
X006536Y016782D01*
X006536Y016881D02*
X006536Y016881D01*
X006536Y016979D02*
X006536Y016979D01*
X006536Y017078D02*
X006536Y017078D01*
X006536Y017176D02*
X006536Y017176D01*
X006536Y017275D02*
X006536Y017275D01*
X006536Y017373D02*
X006536Y017373D01*
X006536Y017472D02*
X006536Y017472D01*
X006536Y017570D02*
X006536Y017570D01*
X006536Y017669D02*
X006536Y017669D01*
X006522Y017767D02*
X006551Y017767D01*
X006466Y017866D02*
X008150Y017866D01*
X008052Y017964D02*
X006466Y017964D01*
X006286Y018234D02*
X006286Y017264D01*
X006036Y017275D02*
X006036Y017275D01*
X006036Y017373D02*
X006036Y017373D01*
X006036Y017472D02*
X006036Y017472D01*
X006036Y017570D02*
X006036Y017570D01*
X006036Y017669D02*
X006036Y017669D01*
X006022Y017767D02*
X006051Y017767D01*
X006106Y017866D02*
X005966Y017866D01*
X005966Y017964D02*
X006106Y017964D01*
X006106Y018063D02*
X005962Y018063D01*
X005864Y018161D02*
X006106Y018161D01*
X006106Y018260D02*
X003041Y018260D01*
X003041Y018358D02*
X006156Y018358D01*
X006286Y018234D02*
X008036Y018234D01*
X008911Y017359D01*
X008911Y017334D01*
X009356Y016684D02*
X005443Y016684D01*
X005296Y016684D02*
X005276Y016684D01*
X005276Y016782D02*
X005296Y016782D01*
X005296Y016881D02*
X005276Y016881D01*
X005276Y016979D02*
X005296Y016979D01*
X005296Y017078D02*
X005276Y017078D01*
X005276Y017176D02*
X005296Y017176D01*
X005786Y017264D02*
X005786Y017984D01*
X004036Y017984D01*
X004036Y012134D01*
X002286Y012134D01*
X001531Y012153D02*
X001486Y012153D01*
X001486Y012251D02*
X001531Y012251D01*
X001531Y012350D02*
X001486Y012350D01*
X001486Y012448D02*
X001531Y012448D01*
X001531Y012547D02*
X001486Y012547D01*
X001486Y012645D02*
X001531Y012645D01*
X001531Y012744D02*
X001486Y012744D01*
X001486Y012842D02*
X001561Y012842D01*
X001486Y012941D02*
X003856Y012941D01*
X003856Y013039D02*
X001486Y013039D01*
X001486Y013138D02*
X003856Y013138D01*
X003856Y013236D02*
X001486Y013236D01*
X001486Y013335D02*
X003856Y013335D01*
X003856Y013433D02*
X001486Y013433D01*
X001486Y013532D02*
X003856Y013532D01*
X003856Y013630D02*
X001486Y013630D01*
X001486Y013729D02*
X003856Y013729D01*
X003856Y013827D02*
X001486Y013827D01*
X001486Y013926D02*
X003856Y013926D01*
X003856Y014024D02*
X001486Y014024D01*
X001486Y014123D02*
X003856Y014123D01*
X003856Y014221D02*
X001486Y014221D01*
X002236Y014320D02*
X002336Y014320D01*
X002336Y014418D02*
X002236Y014418D01*
X002236Y014517D02*
X002336Y014517D01*
X002336Y014615D02*
X002236Y014615D01*
X002236Y014714D02*
X002336Y014714D01*
X002336Y014812D02*
X002236Y014812D01*
X002236Y014911D02*
X002336Y014911D01*
X002336Y015009D02*
X002236Y015009D01*
X002236Y015108D02*
X002336Y015108D01*
X002336Y015206D02*
X003856Y015206D01*
X003856Y015108D02*
X003216Y015108D01*
X003216Y015009D02*
X003856Y015009D01*
X003856Y014911D02*
X003216Y014911D01*
X003216Y014812D02*
X003856Y014812D01*
X003856Y014714D02*
X003216Y014714D01*
X003216Y014615D02*
X003856Y014615D01*
X003856Y014517D02*
X003216Y014517D01*
X003212Y014418D02*
X003856Y014418D01*
X003856Y014320D02*
X003134Y014320D01*
X003216Y015284D02*
X002336Y015284D01*
X002336Y016164D01*
X003086Y016164D01*
X003124Y016154D01*
X003159Y016134D01*
X003186Y016106D01*
X003206Y016072D01*
X003216Y016034D01*
X003216Y015284D01*
X003216Y015305D02*
X003856Y015305D01*
X003856Y015403D02*
X003216Y015403D01*
X003216Y015502D02*
X003856Y015502D01*
X003856Y015600D02*
X003216Y015600D01*
X003216Y015699D02*
X003856Y015699D01*
X003856Y015797D02*
X003216Y015797D01*
X003216Y015896D02*
X003856Y015896D01*
X003856Y015994D02*
X003216Y015994D01*
X003194Y016093D02*
X003856Y016093D01*
X003856Y016191D02*
X001486Y016191D01*
X001486Y016290D02*
X003856Y016290D01*
X003856Y016388D02*
X001486Y016388D01*
X001486Y016487D02*
X003856Y016487D01*
X003856Y016585D02*
X001486Y016585D01*
X001486Y016684D02*
X003856Y016684D01*
X003856Y016782D02*
X001486Y016782D01*
X001486Y016881D02*
X003856Y016881D01*
X003856Y016979D02*
X001486Y016979D01*
X001486Y017078D02*
X003856Y017078D01*
X003856Y017176D02*
X001486Y017176D01*
X001486Y017275D02*
X003856Y017275D01*
X003856Y017373D02*
X001486Y017373D01*
X001486Y017472D02*
X003856Y017472D01*
X003856Y017570D02*
X001486Y017570D01*
X001531Y017655D02*
X001608Y017579D01*
X002965Y017579D01*
X003041Y017655D01*
X003041Y019013D01*
X002965Y019089D01*
X001608Y019089D01*
X001531Y019013D01*
X001531Y017655D01*
X001531Y017669D02*
X001486Y017669D01*
X001486Y017767D02*
X001531Y017767D01*
X001531Y017866D02*
X001486Y017866D01*
X001486Y017964D02*
X001531Y017964D01*
X001531Y018063D02*
X001486Y018063D01*
X001486Y018161D02*
X001531Y018161D01*
X001531Y018260D02*
X001486Y018260D01*
X001486Y018358D02*
X001531Y018358D01*
X001531Y018457D02*
X001486Y018457D01*
X001486Y018555D02*
X001531Y018555D01*
X001531Y018654D02*
X001486Y018654D01*
X001486Y018752D02*
X001531Y018752D01*
X001531Y018851D02*
X001486Y018851D01*
X001486Y018949D02*
X001531Y018949D01*
X001566Y019048D02*
X001486Y019048D01*
X001486Y019146D02*
X003279Y019146D01*
X003394Y019048D02*
X003007Y019048D01*
X003041Y018949D02*
X003509Y018949D01*
X003624Y018851D02*
X003041Y018851D01*
X003041Y018752D02*
X003739Y018752D01*
X003854Y018654D02*
X003041Y018654D01*
X003041Y018555D02*
X003961Y018555D01*
X004036Y018734D02*
X002286Y020234D01*
X001536Y020234D01*
X001854Y020624D02*
X002550Y020624D01*
X002419Y020722D02*
X001665Y020722D01*
X001830Y020821D02*
X002288Y020821D01*
X002156Y020919D02*
X001929Y020919D01*
X001988Y021018D02*
X002025Y021018D01*
X002036Y021234D02*
X001536Y021234D01*
X001701Y021707D02*
X002856Y021707D01*
X002856Y021609D02*
X001869Y021609D01*
X001963Y021510D02*
X002856Y021510D01*
X002856Y021412D02*
X002113Y021412D01*
X002231Y021313D02*
X002856Y021313D01*
X002856Y021215D02*
X002362Y021215D01*
X002494Y021116D02*
X002856Y021116D01*
X002856Y021018D02*
X002625Y021018D01*
X002756Y020919D02*
X002856Y020919D01*
X002888Y020821D02*
X002945Y020821D01*
X002682Y020525D02*
X001952Y020525D01*
X001998Y020427D02*
X002813Y020427D01*
X002944Y020328D02*
X002453Y020328D01*
X002568Y020230D02*
X003076Y020230D01*
X003207Y020131D02*
X002683Y020131D01*
X002798Y020033D02*
X003338Y020033D01*
X003470Y019934D02*
X002913Y019934D01*
X003028Y019836D02*
X003601Y019836D01*
X003708Y019737D02*
X003143Y019737D01*
X003258Y019639D02*
X003721Y019639D01*
X003766Y019540D02*
X003373Y019540D01*
X003488Y019442D02*
X003885Y019442D01*
X003717Y019245D02*
X004526Y019245D01*
X004526Y019343D02*
X003602Y019343D01*
X003832Y019146D02*
X004526Y019146D01*
X004436Y019048D02*
X003947Y019048D01*
X004062Y018949D02*
X004287Y018949D01*
X004536Y018734D02*
X004036Y018734D01*
X004350Y018457D02*
X003041Y018457D01*
X003041Y018161D02*
X003959Y018161D01*
X003860Y018063D02*
X003041Y018063D01*
X003041Y017964D02*
X003856Y017964D01*
X003856Y017866D02*
X003041Y017866D01*
X003041Y017767D02*
X003856Y017767D01*
X003856Y017669D02*
X003041Y017669D01*
X004216Y017669D02*
X005016Y017669D01*
X005033Y017767D02*
X004216Y017767D01*
X004536Y017234D02*
X004536Y016234D01*
X005536Y016234D01*
X005786Y015984D01*
X005786Y015204D01*
X005786Y014319D01*
X005837Y014168D01*
X005903Y014234D01*
X006286Y014234D01*
X005837Y014168D02*
X006036Y013569D01*
X006036Y012900D02*
X005286Y012900D01*
X005613Y012645D02*
X005710Y012645D01*
X006036Y012900D02*
X006786Y012900D01*
X006786Y015204D01*
X005745Y016388D02*
X005637Y016388D01*
X005825Y016487D02*
X004716Y016487D01*
X006036Y016782D02*
X006036Y016782D01*
X006036Y016881D02*
X006036Y016881D01*
X006036Y016979D02*
X006036Y016979D01*
X006036Y017078D02*
X006036Y017078D01*
X006036Y017176D02*
X006036Y017176D01*
X006786Y017264D02*
X007591Y017264D01*
X007661Y017334D01*
X008166Y017373D02*
X008406Y017373D01*
X008406Y017275D02*
X008166Y017275D01*
X008166Y017176D02*
X008406Y017176D01*
X008406Y017078D02*
X008166Y017078D01*
X008115Y016979D02*
X008458Y016979D01*
X008406Y017472D02*
X008166Y017472D01*
X008795Y018457D02*
X004723Y018457D01*
X004817Y018555D02*
X008856Y018555D01*
X008856Y018654D02*
X004858Y018654D01*
X004865Y018752D02*
X008856Y018752D01*
X008856Y018851D02*
X004843Y018851D01*
X004785Y018949D02*
X008856Y018949D01*
X008856Y019048D02*
X008545Y019048D01*
X008566Y019146D02*
X008856Y019146D01*
X008856Y019245D02*
X008566Y019245D01*
X008566Y019343D02*
X008856Y019343D01*
X008856Y019442D02*
X008566Y019442D01*
X008566Y019539D02*
X008301Y019539D01*
X008301Y020074D01*
X008436Y020074D01*
X008474Y020064D01*
X008509Y020044D01*
X008536Y020016D01*
X008556Y019982D01*
X008566Y019944D01*
X008566Y019539D01*
X008566Y019540D02*
X008856Y019540D01*
X008856Y019639D02*
X008566Y019639D01*
X008566Y019737D02*
X008856Y019737D01*
X008856Y019836D02*
X008566Y019836D01*
X008566Y019934D02*
X008856Y019934D01*
X008856Y020033D02*
X008520Y020033D01*
X008301Y020033D02*
X008271Y020033D01*
X008271Y019934D02*
X008301Y019934D01*
X008301Y019836D02*
X008271Y019836D01*
X008271Y019737D02*
X008301Y019737D01*
X008301Y019639D02*
X008271Y019639D01*
X008271Y019540D02*
X008301Y019540D01*
X008301Y019442D02*
X008271Y019442D01*
X008271Y019343D02*
X008301Y019343D01*
X008301Y019245D02*
X008271Y019245D01*
X008271Y019146D02*
X008301Y019146D01*
X008301Y019048D02*
X008271Y019048D01*
X008027Y019048D02*
X008024Y019048D01*
X007549Y019048D02*
X007524Y019048D01*
X007049Y019048D02*
X007024Y019048D01*
X006549Y019048D02*
X006524Y019048D01*
X006049Y019048D02*
X006024Y019048D01*
X005549Y019048D02*
X005524Y019048D01*
X005049Y019048D02*
X005024Y019048D01*
X004786Y019524D02*
X004786Y020234D01*
X004458Y020230D02*
X003676Y020230D01*
X003807Y020131D02*
X004474Y020131D01*
X004524Y020033D02*
X004173Y020033D01*
X004300Y019934D02*
X004526Y019934D01*
X004526Y019836D02*
X004349Y019836D01*
X004365Y019737D02*
X004526Y019737D01*
X004526Y019639D02*
X004352Y019639D01*
X004306Y019540D02*
X004526Y019540D01*
X004526Y019442D02*
X004188Y019442D01*
X004036Y019734D02*
X002036Y021234D01*
X001831Y021806D02*
X002856Y021806D01*
X002856Y021904D02*
X001939Y021904D01*
X002002Y022003D02*
X002856Y022003D01*
X002856Y022101D02*
X002040Y022101D01*
X002053Y022298D02*
X002856Y022298D01*
X002856Y022200D02*
X001586Y022200D01*
X002497Y022988D02*
X003106Y022988D01*
X003626Y023579D02*
X002036Y023579D01*
X002017Y023677D02*
X003725Y023677D01*
X003823Y023776D02*
X001736Y023776D01*
X001884Y023874D02*
X003922Y023874D01*
X004786Y022984D02*
X005286Y023484D01*
X005286Y024304D01*
X005786Y024304D02*
X005786Y023234D01*
X005536Y022984D01*
X006286Y022984D02*
X006286Y024304D01*
X006786Y024304D02*
X006786Y023234D01*
X007036Y022984D01*
X007286Y023484D02*
X007286Y024304D01*
X006786Y021944D02*
X006786Y020734D01*
X006786Y020234D02*
X006786Y019524D01*
X006286Y019524D02*
X006286Y020234D01*
X005786Y020234D02*
X005786Y019524D01*
X005286Y019524D02*
X005286Y020234D01*
X005132Y020525D02*
X004941Y020525D01*
X004632Y020525D02*
X003282Y020525D01*
X003413Y020427D02*
X004515Y020427D01*
X004470Y020328D02*
X003544Y020328D01*
X002819Y019540D02*
X001486Y019540D01*
X001486Y019442D02*
X002934Y019442D01*
X003049Y019343D02*
X001486Y019343D01*
X001486Y019245D02*
X003164Y019245D01*
X002705Y019639D02*
X001486Y019639D01*
X001643Y019737D02*
X002590Y019737D01*
X002475Y019836D02*
X001845Y019836D01*
X001944Y019934D02*
X002360Y019934D01*
X002245Y020033D02*
X001994Y020033D01*
X005441Y020525D02*
X005632Y020525D01*
X006487Y021412D02*
X006606Y021412D01*
X007286Y020234D02*
X007286Y019524D01*
X007786Y019524D02*
X007786Y020234D01*
X008115Y020230D02*
X008856Y020230D01*
X008856Y020328D02*
X008103Y020328D01*
X008058Y020427D02*
X008856Y020427D01*
X008856Y020525D02*
X007941Y020525D01*
X008099Y020131D02*
X008856Y020131D01*
X008053Y020033D02*
X008049Y020033D01*
X009786Y018234D02*
X009786Y011984D01*
X011246Y011984D01*
X011246Y011484D02*
X009536Y011484D01*
X008826Y011984D02*
X008036Y011984D01*
X007798Y011759D02*
X005365Y011759D01*
X005361Y011660D02*
X007754Y011660D01*
X007713Y011562D02*
X005603Y011562D01*
X005470Y011562D02*
X005320Y011562D01*
X005301Y011463D02*
X005229Y011463D01*
X005036Y011734D02*
X003536Y011734D01*
X003232Y011857D02*
X003041Y011857D01*
X003041Y011759D02*
X003208Y011759D01*
X003212Y011660D02*
X003041Y011660D01*
X003041Y011562D02*
X003253Y011562D01*
X003343Y011463D02*
X003041Y011463D01*
X003213Y011266D02*
X003814Y011266D01*
X003715Y011168D02*
X003316Y011168D01*
X003036Y010984D02*
X003786Y010984D01*
X004036Y011234D01*
X005536Y011234D01*
X005771Y011463D02*
X007708Y011463D01*
X007710Y012054D02*
X006817Y012054D01*
X006858Y012153D02*
X007751Y012153D01*
X007805Y012251D02*
X006865Y012251D01*
X006844Y012350D02*
X007737Y012350D01*
X007708Y012448D02*
X006786Y012448D01*
X006639Y012547D02*
X007708Y012547D01*
X008036Y012484D02*
X008826Y012484D01*
X008826Y012984D02*
X008036Y012984D01*
X006722Y011956D02*
X006602Y011906D01*
X006471Y011906D01*
X006351Y011956D01*
X006536Y012234D02*
X004536Y012234D01*
X004536Y013569D01*
X003856Y012842D02*
X003012Y012842D01*
X003041Y012744D02*
X003856Y012744D01*
X003856Y012645D02*
X003041Y012645D01*
X003041Y012547D02*
X003856Y012547D01*
X003856Y012448D02*
X003041Y012448D01*
X003041Y012350D02*
X003856Y012350D01*
X003729Y011463D02*
X004843Y011463D01*
X004036Y010734D02*
X003786Y010484D01*
X003036Y010484D01*
X002536Y010984D01*
X002208Y010971D02*
X001486Y010971D01*
X001486Y011069D02*
X002216Y011069D01*
X002257Y011168D02*
X001486Y011168D01*
X001486Y011266D02*
X002360Y011266D01*
X002713Y011266D02*
X002860Y011266D01*
X002425Y010675D02*
X001486Y010675D01*
X001486Y010577D02*
X002689Y010577D01*
X002788Y010478D02*
X002006Y010478D01*
X002283Y010774D02*
X001486Y010774D01*
X001486Y010872D02*
X002228Y010872D01*
X001566Y010478D02*
X001486Y010478D01*
X001486Y010380D02*
X001492Y010380D01*
X001486Y011365D02*
X003912Y011365D01*
X004036Y010734D02*
X006036Y010734D01*
X005809Y010971D02*
X005737Y010971D01*
X004749Y009986D02*
X006835Y009986D01*
X006982Y009887D02*
X004828Y009887D01*
X006264Y009690D02*
X006309Y009690D01*
X006286Y012448D02*
X004716Y012448D01*
X002336Y015305D02*
X002236Y015305D01*
X002236Y015403D02*
X002336Y015403D01*
X002336Y015502D02*
X002236Y015502D01*
X002236Y015600D02*
X002336Y015600D01*
X002336Y015699D02*
X002236Y015699D01*
X002236Y015797D02*
X002336Y015797D01*
X002336Y015896D02*
X002236Y015896D01*
X002236Y015994D02*
X002336Y015994D01*
X002336Y016093D02*
X002236Y016093D01*
X001531Y012054D02*
X001486Y012054D01*
X001486Y011956D02*
X001531Y011956D01*
X001531Y011857D02*
X001486Y011857D01*
X001486Y011759D02*
X001531Y011759D01*
X001531Y011660D02*
X001486Y011660D01*
X001486Y011562D02*
X001531Y011562D01*
X001531Y011463D02*
X001486Y011463D01*
X009786Y018234D02*
X010036Y018234D01*
X010036Y016734D01*
X015036Y016734D01*
X015036Y017484D01*
X017786Y017484D01*
X017786Y018944D01*
X018286Y018944D02*
X018286Y017234D01*
X015286Y017234D01*
X015286Y016234D01*
X011286Y016234D01*
X011062Y015994D02*
X009966Y015994D01*
X009966Y016093D02*
X010990Y016093D01*
X010958Y016191D02*
X009966Y016191D01*
X009966Y016290D02*
X010958Y016290D01*
X010995Y016388D02*
X009966Y016388D01*
X009966Y016487D02*
X011075Y016487D01*
X011371Y015914D02*
X011472Y015956D01*
X011565Y016048D01*
X011567Y016054D01*
X015361Y016054D01*
X015466Y016160D01*
X015466Y017054D01*
X018361Y017054D01*
X018466Y017160D01*
X018466Y018414D01*
X018470Y018414D01*
X018536Y018480D01*
X018603Y018414D01*
X018970Y018414D01*
X019036Y018480D01*
X019103Y018414D01*
X019470Y018414D01*
X019546Y018490D01*
X019546Y018764D01*
X019856Y018764D01*
X019856Y015414D01*
X018871Y015414D01*
X018972Y015456D01*
X019065Y015548D01*
X019115Y015669D01*
X019115Y015799D01*
X019065Y015920D01*
X018980Y016004D01*
X019026Y016050D01*
X019036Y016032D01*
X019064Y016004D01*
X019099Y015984D01*
X019137Y015974D01*
X019271Y015974D01*
X019271Y016509D01*
X019301Y016509D01*
X019301Y015974D01*
X019436Y015974D01*
X019474Y015984D01*
X019509Y016004D01*
X019536Y016032D01*
X019556Y016066D01*
X019566Y016104D01*
X019566Y016509D01*
X019301Y016509D01*
X019301Y016539D01*
X019271Y016539D01*
X019271Y017074D01*
X019137Y017074D01*
X019099Y017064D01*
X019064Y017044D01*
X019036Y017016D01*
X019026Y016998D01*
X018970Y017054D01*
X018603Y017054D01*
X018536Y016988D01*
X018470Y017054D01*
X018103Y017054D01*
X018036Y016988D01*
X017970Y017054D01*
X017603Y017054D01*
X017536Y016988D01*
X017470Y017054D01*
X017103Y017054D01*
X017036Y016988D01*
X016970Y017054D01*
X016603Y017054D01*
X016536Y016988D01*
X016470Y017054D01*
X016103Y017054D01*
X016036Y016988D01*
X015970Y017054D01*
X015603Y017054D01*
X015526Y016978D01*
X015526Y016070D01*
X015592Y016004D01*
X015508Y015920D01*
X015458Y015799D01*
X015458Y015669D01*
X015508Y015548D01*
X015601Y015456D01*
X015702Y015414D01*
X014216Y015414D01*
X014216Y015809D01*
X014111Y015914D01*
X011371Y015914D01*
X011510Y015994D02*
X015582Y015994D01*
X015526Y016093D02*
X015400Y016093D01*
X015466Y016191D02*
X015526Y016191D01*
X015526Y016290D02*
X015466Y016290D01*
X015466Y016388D02*
X015526Y016388D01*
X015526Y016487D02*
X015466Y016487D01*
X015466Y016585D02*
X015526Y016585D01*
X015526Y016684D02*
X015466Y016684D01*
X015466Y016782D02*
X015526Y016782D01*
X015526Y016881D02*
X015466Y016881D01*
X015466Y016979D02*
X015528Y016979D01*
X015786Y016524D02*
X015786Y015734D01*
X015555Y015502D02*
X014216Y015502D01*
X014216Y015600D02*
X015487Y015600D01*
X015458Y015699D02*
X014216Y015699D01*
X014216Y015797D02*
X015458Y015797D01*
X015498Y015896D02*
X014129Y015896D01*
X014036Y015734D02*
X014036Y015234D01*
X020036Y015234D01*
X020036Y018944D01*
X019286Y018944D01*
X019546Y018752D02*
X019856Y018752D01*
X019856Y018654D02*
X019546Y018654D01*
X019546Y018555D02*
X019856Y018555D01*
X019856Y018457D02*
X019513Y018457D01*
X019856Y018358D02*
X018466Y018358D01*
X018466Y018260D02*
X019856Y018260D01*
X019856Y018161D02*
X018466Y018161D01*
X018466Y018063D02*
X019856Y018063D01*
X019856Y017964D02*
X018466Y017964D01*
X018466Y017866D02*
X019856Y017866D01*
X019856Y017767D02*
X018466Y017767D01*
X018466Y017669D02*
X019856Y017669D01*
X019856Y017570D02*
X018466Y017570D01*
X018466Y017472D02*
X019856Y017472D01*
X019856Y017373D02*
X018466Y017373D01*
X018466Y017275D02*
X019856Y017275D01*
X019856Y017176D02*
X018466Y017176D01*
X018385Y017078D02*
X019856Y017078D01*
X019856Y016979D02*
X019557Y016979D01*
X019556Y016982D02*
X019536Y017016D01*
X019509Y017044D01*
X019474Y017064D01*
X019436Y017074D01*
X019301Y017074D01*
X019301Y016539D01*
X019566Y016539D01*
X019566Y016944D01*
X019556Y016982D01*
X019566Y016881D02*
X019856Y016881D01*
X019856Y016782D02*
X019566Y016782D01*
X019566Y016684D02*
X019856Y016684D01*
X019856Y016585D02*
X019566Y016585D01*
X019566Y016487D02*
X019856Y016487D01*
X019856Y016388D02*
X019566Y016388D01*
X019566Y016290D02*
X019856Y016290D01*
X019856Y016191D02*
X019566Y016191D01*
X019563Y016093D02*
X019856Y016093D01*
X019856Y015994D02*
X019491Y015994D01*
X019301Y015994D02*
X019271Y015994D01*
X019271Y016093D02*
X019301Y016093D01*
X019301Y016191D02*
X019271Y016191D01*
X019271Y016290D02*
X019301Y016290D01*
X019301Y016388D02*
X019271Y016388D01*
X019271Y016487D02*
X019301Y016487D01*
X019301Y016585D02*
X019271Y016585D01*
X019271Y016684D02*
X019301Y016684D01*
X019301Y016782D02*
X019271Y016782D01*
X019271Y016881D02*
X019301Y016881D01*
X019301Y016979D02*
X019271Y016979D01*
X018786Y016524D02*
X018786Y015734D01*
X019018Y015502D02*
X019856Y015502D01*
X019856Y015600D02*
X019086Y015600D01*
X019115Y015699D02*
X019856Y015699D01*
X019856Y015797D02*
X019115Y015797D01*
X019075Y015896D02*
X019856Y015896D01*
X019082Y015994D02*
X018990Y015994D01*
X018286Y015734D02*
X018286Y016524D01*
X017786Y016524D02*
X017786Y015734D01*
X017286Y015734D02*
X017286Y016524D01*
X016786Y016524D02*
X016786Y015734D01*
X016286Y015734D02*
X016286Y016524D01*
X016861Y017804D02*
X014716Y017804D01*
X014716Y017410D01*
X014611Y017304D01*
X010712Y017304D01*
X010606Y017410D01*
X010606Y018554D01*
X010121Y018554D01*
X010222Y018512D01*
X010315Y018420D01*
X010365Y018299D01*
X010365Y018169D01*
X010315Y018048D01*
X010222Y017956D01*
X010216Y017954D01*
X010216Y016914D01*
X014856Y016914D01*
X014856Y017559D01*
X014962Y017664D01*
X017606Y017664D01*
X017606Y018414D01*
X017603Y018414D01*
X017547Y018470D01*
X017536Y018452D01*
X017509Y018424D01*
X017474Y018404D01*
X017436Y018394D01*
X017301Y018394D01*
X017301Y018929D01*
X017271Y018929D01*
X017271Y018394D01*
X017137Y018394D01*
X017099Y018404D01*
X017064Y018424D01*
X017036Y018452D01*
X017026Y018470D01*
X016970Y018414D01*
X016966Y018414D01*
X016966Y018059D01*
X016966Y017910D01*
X016861Y017804D01*
X016923Y017866D02*
X017606Y017866D01*
X017606Y017964D02*
X016966Y017964D01*
X016966Y018063D02*
X017606Y018063D01*
X017606Y018161D02*
X016966Y018161D01*
X016966Y018260D02*
X017606Y018260D01*
X017606Y018358D02*
X016966Y018358D01*
X017013Y018457D02*
X017034Y018457D01*
X017271Y018457D02*
X017301Y018457D01*
X017301Y018555D02*
X017271Y018555D01*
X017271Y018654D02*
X017301Y018654D01*
X017301Y018752D02*
X017271Y018752D01*
X017271Y018851D02*
X017301Y018851D01*
X017539Y018457D02*
X017560Y018457D01*
X017606Y017767D02*
X014716Y017767D01*
X014716Y017669D02*
X017606Y017669D01*
X016786Y017984D02*
X014536Y017984D01*
X014536Y017484D01*
X010786Y017484D01*
X010786Y018734D01*
X010606Y018457D02*
X010278Y018457D01*
X010340Y018358D02*
X010606Y018358D01*
X010606Y018260D02*
X010365Y018260D01*
X010361Y018161D02*
X010606Y018161D01*
X010606Y018063D02*
X010321Y018063D01*
X010230Y017964D02*
X010606Y017964D01*
X010606Y017866D02*
X010216Y017866D01*
X010216Y017767D02*
X010606Y017767D01*
X010606Y017669D02*
X010216Y017669D01*
X010216Y017570D02*
X010606Y017570D01*
X010606Y017472D02*
X010216Y017472D01*
X010216Y017373D02*
X010643Y017373D01*
X010216Y017275D02*
X014856Y017275D01*
X014856Y017373D02*
X014680Y017373D01*
X014716Y017472D02*
X014856Y017472D01*
X014868Y017570D02*
X014716Y017570D01*
X014856Y017176D02*
X010216Y017176D01*
X010216Y017078D02*
X014856Y017078D01*
X014856Y016979D02*
X010216Y016979D01*
X010966Y017669D02*
X011210Y017669D01*
X011210Y017767D02*
X010966Y017767D01*
X011536Y018569D02*
X011536Y019734D01*
X011208Y019737D02*
X010753Y019737D01*
X010830Y019836D02*
X011223Y019836D01*
X011272Y019934D02*
X010865Y019934D01*
X010865Y020033D02*
X011400Y020033D01*
X011621Y020054D02*
X012452Y020054D01*
X012351Y020012D01*
X012258Y019920D01*
X012208Y019799D01*
X012208Y019669D01*
X012258Y019548D01*
X012351Y019456D01*
X012356Y019454D01*
X012356Y018915D01*
X012286Y018915D01*
X012210Y018839D01*
X012210Y018298D01*
X012274Y018234D01*
X012210Y018170D01*
X012210Y018080D01*
X011863Y018080D01*
X011863Y018170D01*
X011799Y018234D01*
X011863Y018298D01*
X011863Y018839D01*
X011787Y018915D01*
X011716Y018915D01*
X011716Y019454D01*
X011722Y019456D01*
X011815Y019548D01*
X011865Y019669D01*
X011865Y019799D01*
X011815Y019920D01*
X011722Y020012D01*
X011621Y020054D01*
X011673Y020033D02*
X012400Y020033D01*
X012272Y019934D02*
X011800Y019934D01*
X011849Y019836D02*
X012223Y019836D01*
X012208Y019737D02*
X011865Y019737D01*
X011852Y019639D02*
X012221Y019639D01*
X012266Y019540D02*
X011806Y019540D01*
X011716Y019442D02*
X012356Y019442D01*
X012356Y019343D02*
X011716Y019343D01*
X011716Y019245D02*
X012356Y019245D01*
X012356Y019146D02*
X011716Y019146D01*
X011716Y019048D02*
X012356Y019048D01*
X012356Y018949D02*
X011716Y018949D01*
X011852Y018851D02*
X012221Y018851D01*
X012210Y018752D02*
X011863Y018752D01*
X011863Y018654D02*
X012210Y018654D01*
X012210Y018555D02*
X011863Y018555D01*
X011863Y018457D02*
X012210Y018457D01*
X012210Y018358D02*
X011863Y018358D01*
X011825Y018260D02*
X012248Y018260D01*
X012210Y018161D02*
X011863Y018161D01*
X012536Y018569D02*
X012536Y019734D01*
X013536Y019348D02*
X013536Y018569D01*
X013536Y019348D02*
X013536Y020234D01*
X010786Y020234D01*
X010536Y019984D01*
X010319Y019737D02*
X009966Y019737D01*
X009966Y019639D02*
X010036Y019639D01*
X010036Y019540D02*
X009966Y019540D01*
X009966Y019442D02*
X010036Y019442D01*
X010036Y019343D02*
X009966Y019343D01*
X009966Y019245D02*
X010036Y019245D01*
X010036Y019146D02*
X009966Y019146D01*
X009966Y019048D02*
X010036Y019048D01*
X009966Y018949D02*
X011356Y018949D01*
X011356Y019048D02*
X010907Y019048D01*
X010907Y019146D02*
X011356Y019146D01*
X011356Y019245D02*
X010907Y019245D01*
X010907Y019343D02*
X011356Y019343D01*
X011356Y019442D02*
X010907Y019442D01*
X010907Y019540D02*
X011266Y019540D01*
X011221Y019639D02*
X010907Y019639D01*
X010243Y019836D02*
X009966Y019836D01*
X009966Y019934D02*
X010208Y019934D01*
X010208Y020033D02*
X009966Y020033D01*
X009966Y020131D02*
X010242Y020131D01*
X010318Y020230D02*
X009966Y020230D01*
X009966Y020328D02*
X010626Y020328D01*
X010830Y020734D02*
X010907Y020810D01*
X010907Y021430D01*
X010830Y021506D01*
X010112Y021506D01*
X010036Y021430D01*
X010036Y020810D01*
X010112Y020734D01*
X010830Y020734D01*
X010907Y020821D02*
X013153Y020821D01*
X013156Y020806D02*
X013176Y020772D01*
X013204Y020744D01*
X013238Y020724D01*
X013277Y020714D01*
X013551Y020714D01*
X013551Y021070D01*
X013146Y021070D01*
X013146Y020844D01*
X013156Y020806D01*
X013146Y020919D02*
X010907Y020919D01*
X010907Y021018D02*
X013146Y021018D01*
X013146Y021170D02*
X013146Y021396D01*
X013156Y021434D01*
X013176Y021468D01*
X013204Y021496D01*
X013238Y021516D01*
X013277Y021526D01*
X013551Y021526D01*
X013551Y021170D01*
X013551Y021070D01*
X013651Y021070D01*
X013651Y020714D01*
X013926Y020714D01*
X013964Y020724D01*
X013999Y020744D01*
X014027Y020772D01*
X014046Y020806D01*
X014056Y020844D01*
X014056Y021070D01*
X013651Y021070D01*
X013651Y021170D01*
X013551Y021170D01*
X013146Y021170D01*
X013146Y021215D02*
X010907Y021215D01*
X010907Y021313D02*
X013146Y021313D01*
X013151Y021412D02*
X010907Y021412D01*
X010907Y021116D02*
X013551Y021116D01*
X013551Y021018D02*
X013651Y021018D01*
X013651Y021116D02*
X014106Y021116D01*
X014056Y021170D02*
X014056Y021396D01*
X014046Y021434D01*
X014027Y021468D01*
X013999Y021496D01*
X013964Y021516D01*
X013926Y021526D01*
X013651Y021526D01*
X013651Y021170D01*
X014056Y021170D01*
X014056Y021215D02*
X014106Y021215D01*
X014106Y021313D02*
X014056Y021313D01*
X014052Y021412D02*
X014106Y021412D01*
X014106Y021510D02*
X013974Y021510D01*
X014106Y021609D02*
X009966Y021609D01*
X009966Y021707D02*
X014106Y021707D01*
X014106Y021806D02*
X014036Y021806D01*
X014036Y021904D02*
X014106Y021904D01*
X014106Y022003D02*
X014036Y022003D01*
X014036Y022101D02*
X014106Y022101D01*
X014106Y022200D02*
X014036Y022200D01*
X014036Y022298D02*
X014106Y022298D01*
X014106Y022397D02*
X014036Y022397D01*
X014106Y022495D02*
X013781Y022495D01*
X013781Y022594D02*
X014106Y022594D01*
X014106Y022692D02*
X013781Y022692D01*
X013781Y022791D02*
X014106Y022791D01*
X014106Y022889D02*
X013701Y022889D01*
X013601Y022734D02*
X013601Y022098D01*
X013166Y022101D02*
X010907Y022101D01*
X010907Y022003D02*
X013166Y022003D01*
X013166Y021904D02*
X010907Y021904D01*
X010907Y021806D02*
X013166Y021806D01*
X013229Y021510D02*
X009966Y021510D01*
X009966Y021412D02*
X010036Y021412D01*
X010036Y021313D02*
X009966Y021313D01*
X009966Y021215D02*
X010036Y021215D01*
X010036Y021116D02*
X009966Y021116D01*
X009966Y021018D02*
X010036Y021018D01*
X010036Y020919D02*
X009966Y020919D01*
X009966Y020821D02*
X010036Y020821D01*
X009966Y020722D02*
X013246Y020722D01*
X013551Y020722D02*
X013651Y020722D01*
X013651Y020821D02*
X013551Y020821D01*
X013551Y020919D02*
X013651Y020919D01*
X013651Y021215D02*
X013551Y021215D01*
X013551Y021313D02*
X013651Y021313D01*
X013651Y021412D02*
X013551Y021412D01*
X013551Y021510D02*
X013651Y021510D01*
X014056Y021018D02*
X014106Y021018D01*
X014106Y020919D02*
X014056Y020919D01*
X014050Y020821D02*
X014106Y020821D01*
X014106Y020722D02*
X013957Y020722D01*
X014106Y020624D02*
X009966Y020624D01*
X009966Y020525D02*
X014106Y020525D01*
X014106Y020427D02*
X009966Y020427D01*
X009966Y021806D02*
X010036Y021806D01*
X010036Y021904D02*
X009966Y021904D01*
X009966Y022003D02*
X010036Y022003D01*
X010036Y022101D02*
X009884Y022101D01*
X010036Y022397D02*
X009704Y022397D01*
X009716Y022495D02*
X010311Y022495D01*
X010239Y022594D02*
X009716Y022594D01*
X009716Y022692D02*
X010208Y022692D01*
X010208Y022791D02*
X009716Y022791D01*
X009716Y022889D02*
X010246Y022889D01*
X010326Y022988D02*
X009716Y022988D01*
X010536Y022734D02*
X012536Y022734D01*
X013601Y022734D01*
X013421Y022495D02*
X012761Y022495D01*
X013166Y022397D02*
X010907Y022397D01*
X010907Y022298D02*
X013166Y022298D01*
X013166Y022200D02*
X010907Y022200D01*
X010761Y022495D02*
X012311Y022495D01*
X012747Y022988D02*
X014106Y022988D01*
X014466Y022988D02*
X022356Y022988D01*
X022356Y023086D02*
X014466Y023086D01*
X014466Y023185D02*
X022356Y023185D01*
X022356Y023283D02*
X014466Y023283D01*
X014393Y023382D02*
X022356Y023382D01*
X022363Y023480D02*
X013975Y023480D01*
X014052Y023579D02*
X022461Y023579D01*
X022536Y023400D02*
X022536Y020484D01*
X020286Y020484D01*
X020286Y014484D01*
X018466Y014484D01*
X018466Y013984D02*
X020536Y013984D01*
X020536Y020234D01*
X022786Y020234D01*
X022786Y022569D01*
X023536Y022569D01*
X024536Y022569D01*
X025536Y022569D01*
X026536Y022569D01*
X027536Y022569D01*
X027536Y021900D02*
X027536Y020984D01*
X026536Y020984D02*
X026536Y021900D01*
X025536Y021900D02*
X025536Y020984D01*
X024536Y020984D02*
X024536Y021900D01*
X023536Y021900D02*
X023536Y020984D01*
X024536Y019984D02*
X020786Y019984D01*
X020786Y013484D01*
X018466Y013484D01*
X018001Y013236D02*
X015072Y013236D01*
X015136Y013138D02*
X017936Y013138D01*
X017936Y013039D02*
X015136Y013039D01*
X015136Y012941D02*
X017936Y012941D01*
X017936Y012842D02*
X015136Y012842D01*
X015080Y012744D02*
X017993Y012744D01*
X017936Y012645D02*
X015136Y012645D01*
X015136Y012547D02*
X017936Y012547D01*
X017936Y012448D02*
X015136Y012448D01*
X015136Y012350D02*
X017936Y012350D01*
X017986Y012251D02*
X015087Y012251D01*
X015136Y012153D02*
X017936Y012153D01*
X017936Y012054D02*
X015136Y012054D01*
X015136Y011956D02*
X017936Y011956D01*
X017936Y011857D02*
X015136Y011857D01*
X015095Y011759D02*
X017978Y011759D01*
X017936Y011660D02*
X015136Y011660D01*
X015136Y011562D02*
X017936Y011562D01*
X017936Y011463D02*
X015136Y011463D01*
X015136Y011365D02*
X017936Y011365D01*
X017971Y011266D02*
X015102Y011266D01*
X015136Y011168D02*
X017936Y011168D01*
X017936Y011069D02*
X015136Y011069D01*
X015136Y010971D02*
X017936Y010971D01*
X017936Y010872D02*
X015136Y010872D01*
X015110Y010774D02*
X017963Y010774D01*
X017944Y010675D02*
X015144Y010675D01*
X015156Y010577D02*
X017936Y010577D01*
X017936Y010478D02*
X014621Y010478D01*
X014591Y010478D02*
X013035Y010478D01*
X012937Y010380D02*
X014056Y010380D01*
X014075Y010281D02*
X012838Y010281D01*
X012740Y010183D02*
X020407Y010183D01*
X020666Y010183D02*
X021356Y010183D01*
X021356Y010281D02*
X020797Y010281D01*
X020848Y010380D02*
X021356Y010380D01*
X021356Y010478D02*
X020865Y010478D01*
X020853Y010577D02*
X021356Y010577D01*
X021356Y010675D02*
X020809Y010675D01*
X020695Y010774D02*
X021356Y010774D01*
X021536Y010984D02*
X021536Y009734D01*
X027536Y009734D01*
X027536Y008734D01*
X027349Y009198D02*
X026327Y009198D01*
X026229Y009296D02*
X027356Y009296D01*
X027356Y009395D02*
X026130Y009395D01*
X026036Y009234D02*
X027536Y007734D01*
X027385Y008213D02*
X027312Y008213D01*
X027252Y008311D02*
X027214Y008311D01*
X027154Y008410D02*
X027115Y008410D01*
X027089Y008508D02*
X027017Y008508D01*
X027048Y008607D02*
X026918Y008607D01*
X026820Y008705D02*
X027036Y008705D01*
X027036Y008804D02*
X026721Y008804D01*
X026623Y008902D02*
X027065Y008902D01*
X027106Y009001D02*
X026524Y009001D01*
X026426Y009099D02*
X027194Y009099D01*
X027356Y009493D02*
X024671Y009493D01*
X024216Y009234D02*
X026036Y009234D01*
X025536Y008734D02*
X027536Y006734D01*
X027536Y005734D02*
X025036Y008234D01*
X024216Y008234D01*
X024216Y008734D02*
X025536Y008734D01*
X024536Y007734D02*
X027536Y004734D01*
X026536Y004734D02*
X027536Y003734D01*
X027536Y002734D02*
X026036Y004234D01*
X026036Y005234D01*
X024536Y006734D01*
X024216Y006734D01*
X024216Y007234D02*
X024536Y007234D01*
X026536Y005234D01*
X026536Y004734D01*
X025536Y005234D02*
X025536Y003734D01*
X027536Y001734D01*
X026895Y001121D02*
X025174Y001121D01*
X025230Y001219D02*
X026797Y001219D01*
X026698Y001318D02*
X025287Y001318D01*
X025314Y001416D02*
X026600Y001416D01*
X026501Y001515D02*
X025341Y001515D01*
X025361Y001613D02*
X026403Y001613D01*
X026304Y001712D02*
X025361Y001712D01*
X025361Y001810D02*
X026206Y001810D01*
X026107Y001909D02*
X025353Y001909D01*
X025326Y002007D02*
X026009Y002007D01*
X025910Y002106D02*
X025300Y002106D01*
X025256Y002204D02*
X025812Y002204D01*
X025713Y002303D02*
X025199Y002303D01*
X025140Y002401D02*
X025615Y002401D01*
X025516Y002500D02*
X025041Y002500D01*
X024940Y002598D02*
X025418Y002598D01*
X025319Y002697D02*
X024769Y002697D01*
X024480Y002795D02*
X025221Y002795D01*
X025122Y002894D02*
X016600Y002894D01*
X016501Y002992D02*
X025024Y002992D01*
X024925Y003091D02*
X016403Y003091D01*
X016304Y003189D02*
X024856Y003189D01*
X024856Y003288D02*
X016206Y003288D01*
X016107Y003386D02*
X024856Y003386D01*
X025036Y003234D02*
X027536Y000734D01*
X027036Y000727D02*
X024680Y000727D01*
X024862Y000825D02*
X027036Y000825D01*
X027074Y000924D02*
X024996Y000924D01*
X025095Y001022D02*
X026994Y001022D01*
X025036Y003234D02*
X025036Y005234D01*
X024536Y005734D01*
X024216Y005734D01*
X024216Y006234D02*
X024536Y006234D01*
X025536Y005234D01*
X024856Y005159D02*
X024746Y005159D01*
X024746Y005061D02*
X024856Y005061D01*
X024856Y004962D02*
X023933Y004962D01*
X023686Y005553D02*
X023624Y005553D01*
X023686Y005652D02*
X020886Y005652D01*
X020886Y005750D02*
X023686Y005750D01*
X023686Y005849D02*
X020886Y005849D01*
X020857Y005947D02*
X023716Y005947D01*
X023691Y006046D02*
X020882Y006046D01*
X020886Y006144D02*
X023686Y006144D01*
X023686Y006243D02*
X020886Y006243D01*
X020886Y006341D02*
X023686Y006341D01*
X023708Y006440D02*
X020865Y006440D01*
X020874Y006538D02*
X023699Y006538D01*
X023686Y006637D02*
X020886Y006637D01*
X020886Y006735D02*
X023686Y006735D01*
X023686Y006834D02*
X020886Y006834D01*
X020872Y006932D02*
X023701Y006932D01*
X023706Y007031D02*
X020867Y007031D01*
X020886Y007129D02*
X023686Y007129D01*
X023686Y007228D02*
X020886Y007228D01*
X020886Y007326D02*
X023686Y007326D01*
X023693Y007425D02*
X020880Y007425D01*
X020859Y007523D02*
X023714Y007523D01*
X023686Y007622D02*
X020886Y007622D01*
X020886Y007720D02*
X023686Y007720D01*
X023686Y007819D02*
X020886Y007819D01*
X020886Y007917D02*
X023686Y007917D01*
X023721Y008016D02*
X020852Y008016D01*
X020886Y008114D02*
X023686Y008114D01*
X023686Y008213D02*
X020886Y008213D01*
X020886Y008311D02*
X023686Y008311D01*
X023686Y008410D02*
X020886Y008410D01*
X020844Y008508D02*
X023729Y008508D01*
X023686Y008607D02*
X020886Y008607D01*
X020886Y008705D02*
X023686Y008705D01*
X023686Y008804D02*
X020886Y008804D01*
X020886Y008902D02*
X023686Y008902D01*
X023736Y009001D02*
X020837Y009001D01*
X020886Y009099D02*
X023686Y009099D01*
X023686Y009198D02*
X020886Y009198D01*
X020886Y009296D02*
X023686Y009296D01*
X023686Y009395D02*
X020886Y009395D01*
X020811Y009493D02*
X023762Y009493D01*
X023536Y010484D02*
X023536Y011400D01*
X023536Y012069D02*
X022536Y012069D01*
X022036Y012069D01*
X022036Y011484D01*
X018466Y011484D01*
X018466Y010984D02*
X021536Y010984D01*
X021786Y011984D02*
X018466Y011984D01*
X018466Y012484D02*
X021536Y012484D01*
X021536Y017069D01*
X022536Y017069D01*
X023536Y017069D01*
X024536Y017069D01*
X025536Y017069D01*
X026536Y017069D01*
X027536Y017069D01*
X027536Y016400D02*
X027536Y015484D01*
X027536Y014569D02*
X026536Y014569D01*
X025536Y014569D01*
X024536Y014569D01*
X023536Y014569D01*
X022536Y014569D01*
X021786Y014569D01*
X021786Y011984D01*
X022536Y011400D02*
X022536Y010484D01*
X021356Y010084D02*
X012641Y010084D01*
X012615Y009986D02*
X021356Y009986D01*
X021356Y009887D02*
X012601Y009887D01*
X012555Y009789D02*
X021356Y009789D01*
X021356Y009690D02*
X012434Y009690D01*
X012286Y009984D02*
X013286Y010984D01*
X014606Y010984D01*
X014606Y011484D02*
X013036Y011484D01*
X012286Y010734D01*
X012286Y011484D02*
X012786Y011984D01*
X014606Y011984D01*
X014606Y012484D02*
X012536Y012484D01*
X012286Y012234D01*
X012286Y012984D02*
X014606Y012984D01*
X014606Y013484D02*
X012536Y013484D01*
X012286Y013734D01*
X013061Y014714D02*
X014122Y014714D01*
X013908Y015108D02*
X012667Y015108D01*
X012569Y015206D02*
X013856Y015206D01*
X013856Y015305D02*
X012470Y015305D01*
X012372Y015403D02*
X013856Y015403D01*
X013856Y015502D02*
X010466Y015502D01*
X010286Y015734D02*
X014036Y015734D01*
X012963Y014812D02*
X020106Y014812D01*
X020106Y014714D02*
X018951Y014714D01*
X017982Y014714D02*
X015091Y014714D01*
X015136Y014615D02*
X017936Y014615D01*
X017936Y014517D02*
X015136Y014517D01*
X015136Y014418D02*
X017936Y014418D01*
X017936Y014320D02*
X015136Y014320D01*
X015083Y014221D02*
X017990Y014221D01*
X017936Y014123D02*
X015136Y014123D01*
X015136Y014024D02*
X017936Y014024D01*
X017936Y013926D02*
X015136Y013926D01*
X015136Y013827D02*
X017936Y013827D01*
X017997Y013729D02*
X015076Y013729D01*
X015136Y013630D02*
X017936Y013630D01*
X017936Y013532D02*
X015136Y013532D01*
X015136Y013433D02*
X017936Y013433D01*
X017936Y013335D02*
X015136Y013335D01*
X014103Y010774D02*
X013331Y010774D01*
X013232Y010675D02*
X014068Y010675D01*
X014056Y010577D02*
X013134Y010577D01*
X014591Y010380D02*
X014621Y010380D01*
X014621Y010281D02*
X014591Y010281D01*
X015137Y010281D02*
X017956Y010281D01*
X017936Y010380D02*
X015156Y010380D01*
X015273Y009001D02*
X015311Y009001D01*
X015311Y008902D02*
X015273Y008902D01*
X015273Y008804D02*
X015311Y008804D01*
X015033Y009001D02*
X015013Y009001D01*
X014781Y008734D02*
X014682Y008635D01*
X013536Y008635D01*
X013438Y008734D01*
X012036Y008734D01*
X012234Y009001D02*
X013127Y009001D01*
X013945Y009001D02*
X014548Y009001D01*
X014513Y008902D02*
X013981Y008902D01*
X010737Y012251D02*
X009966Y012251D01*
X009966Y012350D02*
X010696Y012350D01*
X010696Y012448D02*
X009966Y012448D01*
X009966Y012547D02*
X010696Y012547D01*
X010699Y012645D02*
X009966Y012645D01*
X009966Y012744D02*
X010771Y012744D01*
X010174Y012842D02*
X009966Y012842D01*
X009966Y012941D02*
X010106Y012941D01*
X010106Y013039D02*
X009966Y013039D01*
X009966Y013138D02*
X010106Y013138D01*
X010106Y013236D02*
X009966Y013236D01*
X009966Y013335D02*
X010106Y013335D01*
X010106Y013433D02*
X009966Y013433D01*
X009966Y013532D02*
X010106Y013532D01*
X010106Y013630D02*
X009966Y013630D01*
X009966Y013729D02*
X010106Y013729D01*
X010106Y013827D02*
X009966Y013827D01*
X009966Y013926D02*
X010106Y013926D01*
X010106Y014024D02*
X009966Y014024D01*
X009966Y014123D02*
X010106Y014123D01*
X010106Y014221D02*
X009966Y014221D01*
X009966Y014320D02*
X010106Y014320D01*
X010106Y014418D02*
X009966Y014418D01*
X009966Y014517D02*
X010106Y014517D01*
X010106Y014615D02*
X009966Y014615D01*
X009966Y014714D02*
X010106Y014714D01*
X010106Y014812D02*
X009966Y014812D01*
X009966Y014911D02*
X010106Y014911D01*
X010106Y015009D02*
X009966Y015009D01*
X009966Y015108D02*
X010106Y015108D01*
X010106Y015206D02*
X009966Y015206D01*
X009966Y015305D02*
X010106Y015305D01*
X010106Y015403D02*
X009966Y015403D01*
X012766Y015009D02*
X020106Y015009D01*
X020106Y014911D02*
X012864Y014911D01*
X014786Y018234D02*
X014786Y020234D01*
X015286Y020734D01*
X015286Y021304D01*
X015026Y021313D02*
X014466Y021313D01*
X014466Y021215D02*
X015026Y021215D01*
X015026Y021116D02*
X014466Y021116D01*
X014466Y021018D02*
X015026Y021018D01*
X015026Y020919D02*
X014466Y020919D01*
X014466Y020821D02*
X015056Y020821D01*
X015020Y020722D02*
X014466Y020722D01*
X014466Y020624D02*
X014921Y020624D01*
X014823Y020525D02*
X014466Y020525D01*
X014466Y020427D02*
X014724Y020427D01*
X014626Y020328D02*
X014466Y020328D01*
X014466Y020230D02*
X014606Y020230D01*
X014606Y020131D02*
X014466Y020131D01*
X014466Y020033D02*
X014606Y020033D01*
X014606Y019934D02*
X014466Y019934D01*
X014466Y019836D02*
X014606Y019836D01*
X014606Y019737D02*
X014497Y019737D01*
X014578Y019639D02*
X014606Y019639D01*
X014106Y019836D02*
X013716Y019836D01*
X013716Y019934D02*
X014106Y019934D01*
X014106Y020033D02*
X013716Y020033D01*
X013716Y020131D02*
X014106Y020131D01*
X014106Y020230D02*
X013716Y020230D01*
X013697Y020328D02*
X014106Y020328D01*
X014075Y019737D02*
X013716Y019737D01*
X013601Y019348D02*
X013536Y019348D01*
X014786Y018234D02*
X016286Y018234D01*
X016286Y018944D01*
X015786Y018944D02*
X015786Y019484D01*
X015286Y019484D01*
X015286Y019984D02*
X015786Y020484D01*
X015786Y021304D01*
X016286Y021304D02*
X016286Y020234D01*
X016036Y019984D01*
X015786Y019484D02*
X018786Y019484D01*
X018786Y018944D01*
X018560Y018457D02*
X018513Y018457D01*
X019013Y018457D02*
X019060Y018457D01*
X019036Y019984D02*
X018286Y020734D01*
X018286Y021304D01*
X017786Y021304D02*
X017786Y020484D01*
X018286Y019984D01*
X017536Y019984D02*
X017286Y020234D01*
X017286Y021304D01*
X016786Y021304D02*
X016786Y019984D01*
X016786Y018944D02*
X016786Y017984D01*
X019401Y020624D02*
X020171Y020624D01*
X020106Y020525D02*
X019500Y020525D01*
X019598Y020427D02*
X020106Y020427D01*
X020106Y020328D02*
X019697Y020328D01*
X020005Y020230D02*
X020106Y020230D01*
X020106Y020131D02*
X020081Y020131D01*
X019786Y019984D02*
X018786Y020984D01*
X018786Y021304D01*
X019271Y021215D02*
X019301Y021215D01*
X019301Y021313D02*
X022356Y021313D01*
X022356Y021215D02*
X019566Y021215D01*
X019566Y021116D02*
X022356Y021116D01*
X022356Y021018D02*
X019566Y021018D01*
X019566Y020919D02*
X022356Y020919D01*
X022356Y020821D02*
X019541Y020821D01*
X019301Y020821D02*
X019271Y020821D01*
X019271Y020919D02*
X019301Y020919D01*
X019301Y021018D02*
X019271Y021018D01*
X019271Y021116D02*
X019301Y021116D01*
X019301Y021319D02*
X019566Y021319D01*
X019566Y021724D01*
X019556Y021762D01*
X019536Y021796D01*
X019509Y021824D01*
X019474Y021844D01*
X019436Y021854D01*
X019301Y021854D01*
X019301Y021319D01*
X019301Y021412D02*
X019271Y021412D01*
X019271Y021510D02*
X019301Y021510D01*
X019301Y021609D02*
X019271Y021609D01*
X019271Y021707D02*
X019301Y021707D01*
X019301Y021806D02*
X019271Y021806D01*
X019046Y021806D02*
X018999Y021806D01*
X019527Y021806D02*
X022356Y021806D01*
X022356Y021904D02*
X014466Y021904D01*
X014466Y021806D02*
X015074Y021806D01*
X015026Y021707D02*
X014466Y021707D01*
X014466Y021609D02*
X015026Y021609D01*
X015026Y021510D02*
X014466Y021510D01*
X014466Y021412D02*
X015026Y021412D01*
X015499Y021806D02*
X015574Y021806D01*
X015999Y021806D02*
X016074Y021806D01*
X016499Y021806D02*
X016574Y021806D01*
X016999Y021806D02*
X017074Y021806D01*
X017499Y021806D02*
X017574Y021806D01*
X017999Y021806D02*
X018074Y021806D01*
X018499Y021806D02*
X018574Y021806D01*
X019566Y021707D02*
X022356Y021707D01*
X022356Y021609D02*
X019566Y021609D01*
X019566Y021510D02*
X022356Y021510D01*
X022356Y021412D02*
X019566Y021412D01*
X019303Y020722D02*
X022356Y020722D01*
X022536Y019569D02*
X021536Y019569D01*
X021036Y019569D01*
X021036Y012984D01*
X018466Y012984D01*
X017433Y009592D02*
X021424Y009592D01*
X020356Y009234D02*
X017536Y009234D01*
X017536Y006984D01*
X016356Y005159D02*
X016356Y005159D01*
X016356Y005061D02*
X016356Y005061D01*
X016356Y004962D02*
X016356Y004962D01*
X016356Y004864D02*
X016402Y004864D01*
X015826Y004484D02*
X015036Y004484D01*
X015811Y003879D02*
X015841Y003879D01*
X015841Y003780D02*
X015811Y003780D01*
X016698Y002795D02*
X024093Y002795D01*
X023804Y002697D02*
X016797Y002697D01*
X016895Y002598D02*
X023633Y002598D01*
X023532Y002500D02*
X019235Y002500D01*
X019322Y002401D02*
X023433Y002401D01*
X023373Y002303D02*
X019363Y002303D01*
X019365Y002204D02*
X023316Y002204D01*
X023273Y002106D02*
X019338Y002106D01*
X019273Y002007D02*
X023247Y002007D01*
X023220Y001909D02*
X019108Y001909D01*
X018938Y001810D02*
X023211Y001810D01*
X023211Y001712D02*
X018839Y001712D01*
X018741Y001613D02*
X023211Y001613D01*
X023232Y001515D02*
X018642Y001515D01*
X018672Y001219D02*
X019346Y001219D01*
X019486Y001219D02*
X019586Y001219D01*
X019586Y001253D02*
X019586Y000784D01*
X020055Y000784D01*
X020044Y000856D01*
X020018Y000934D01*
X019981Y001007D01*
X019933Y001073D01*
X019875Y001131D01*
X019809Y001179D01*
X019736Y001216D01*
X019658Y001241D01*
X019586Y001253D01*
X019586Y001121D02*
X019486Y001121D01*
X019486Y001022D02*
X019586Y001022D01*
X019586Y000924D02*
X019486Y000924D01*
X019486Y000825D02*
X019586Y000825D01*
X019586Y000727D02*
X020986Y000727D01*
X020986Y000784D02*
X020518Y000784D01*
X020529Y000856D01*
X020555Y000934D01*
X020592Y001007D01*
X020640Y001073D01*
X020698Y001131D01*
X020764Y001179D01*
X020837Y001216D01*
X020915Y001241D01*
X020986Y001253D01*
X020986Y000784D01*
X020986Y000825D02*
X021086Y000825D01*
X021086Y000924D02*
X020986Y000924D01*
X020986Y001022D02*
X021086Y001022D01*
X021086Y001121D02*
X020986Y001121D01*
X020986Y001219D02*
X021086Y001219D01*
X021226Y001219D02*
X021901Y001219D01*
X021716Y001121D02*
X021385Y001121D01*
X021470Y001022D02*
X021617Y001022D01*
X021574Y000924D02*
X021522Y000924D01*
X022172Y001219D02*
X023342Y001219D01*
X023286Y001318D02*
X018304Y001318D01*
X018351Y001416D02*
X023259Y001416D01*
X023399Y001121D02*
X022357Y001121D01*
X022456Y001022D02*
X023478Y001022D01*
X023577Y000924D02*
X022499Y000924D01*
X022536Y000825D02*
X023711Y000825D01*
X023893Y000727D02*
X022536Y000727D01*
X020846Y001219D02*
X019726Y001219D01*
X019885Y001121D02*
X020688Y001121D01*
X020603Y001022D02*
X019970Y001022D01*
X020022Y000924D02*
X020551Y000924D01*
X020524Y000825D02*
X020048Y000825D01*
X020518Y000684D02*
X020518Y000684D01*
X019188Y001121D02*
X018857Y001121D01*
X018956Y001022D02*
X019103Y001022D01*
X019051Y000924D02*
X018999Y000924D01*
X018401Y001219D02*
X018377Y001219D01*
X018351Y002007D02*
X018484Y002007D01*
X018583Y002106D02*
X018349Y002106D01*
X018681Y002204D02*
X017289Y002204D01*
X017191Y002303D02*
X018710Y002303D01*
X018750Y002401D02*
X017092Y002401D01*
X016994Y002500D02*
X018838Y002500D01*
X019539Y004273D02*
X024856Y004273D01*
X024856Y004371D02*
X019595Y004371D01*
X019615Y004470D02*
X024856Y004470D01*
X024856Y004568D02*
X019607Y004568D01*
X019606Y004667D02*
X024856Y004667D01*
X024856Y004765D02*
X019665Y004765D01*
X019724Y004864D02*
X024856Y004864D01*
X024758Y005258D02*
X024746Y005258D01*
X023449Y005553D02*
X020886Y005553D01*
X020877Y005455D02*
X023293Y005455D01*
X023232Y005356D02*
X020906Y005356D01*
X020906Y005258D02*
X023208Y005258D01*
X023212Y005159D02*
X020906Y005159D01*
X020900Y005061D02*
X023253Y005061D01*
X023344Y004962D02*
X020806Y004962D01*
X020371Y004962D02*
X020341Y004962D01*
X020341Y005061D02*
X020371Y005061D01*
X020371Y005159D02*
X020341Y005159D01*
X019907Y004962D02*
X019783Y004962D01*
X019286Y005234D02*
X019536Y005484D01*
X019786Y006234D01*
X020356Y006234D01*
X020356Y005734D02*
X020036Y005734D01*
X019286Y004484D01*
X019286Y005984D02*
X019786Y006734D01*
X020356Y006734D01*
X020356Y007234D02*
X020036Y007234D01*
X019286Y006734D01*
X019286Y007484D02*
X019786Y007734D01*
X020356Y007734D01*
X020356Y008234D02*
X019286Y008234D01*
X019036Y008734D02*
X020356Y008734D01*
X019902Y009493D02*
X017466Y009493D01*
X022536Y012984D02*
X022536Y013900D01*
X023536Y013900D02*
X023536Y012984D01*
X023536Y012069D02*
X024536Y012069D01*
X025536Y012069D01*
X026536Y012069D01*
X027536Y012069D01*
X027536Y011400D02*
X027536Y010484D01*
X026536Y010484D02*
X026536Y011400D01*
X025536Y011400D02*
X025536Y010484D01*
X024536Y010484D02*
X024536Y011400D01*
X024536Y012984D02*
X024536Y013900D01*
X025536Y013900D02*
X025536Y012984D01*
X026536Y012984D02*
X026536Y013900D01*
X027536Y013900D02*
X027536Y012984D01*
X026536Y015484D02*
X026536Y016400D01*
X025536Y016400D02*
X025536Y015484D01*
X024536Y015484D02*
X024536Y016400D01*
X023536Y016400D02*
X023536Y015484D01*
X022536Y015484D02*
X022536Y016400D01*
X022536Y017984D02*
X022536Y018900D01*
X022536Y019569D02*
X023536Y019569D01*
X023536Y018900D02*
X023536Y017984D01*
X024536Y017984D02*
X024536Y018900D01*
X024536Y019569D02*
X024536Y019984D01*
X024536Y019569D02*
X025536Y019569D01*
X026536Y019569D01*
X027536Y019569D01*
X027536Y018900D02*
X027536Y017984D01*
X026536Y017984D02*
X026536Y018900D01*
X025536Y018900D02*
X025536Y017984D01*
X022356Y022003D02*
X014466Y022003D01*
X014466Y022101D02*
X022356Y022101D01*
X022356Y022200D02*
X014466Y022200D01*
X014466Y022298D02*
X022356Y022298D01*
X022356Y022397D02*
X014466Y022397D01*
X014466Y022495D02*
X022356Y022495D01*
X022356Y022594D02*
X014466Y022594D01*
X014466Y022692D02*
X022356Y022692D01*
X022356Y022791D02*
X014466Y022791D01*
X014466Y022889D02*
X022356Y022889D01*
X022536Y023400D02*
X023536Y023400D01*
X024536Y023400D01*
X024863Y023580D02*
X024863Y023670D01*
X024799Y023734D01*
X024863Y023798D01*
X024863Y024339D01*
X024787Y024415D01*
X024716Y024415D01*
X024716Y024518D01*
X024820Y024560D01*
X024960Y024701D01*
X025036Y024885D01*
X025036Y025084D01*
X025036Y024885D01*
X025113Y024701D01*
X025253Y024560D01*
X025356Y024518D01*
X025356Y024415D01*
X025286Y024415D01*
X025210Y024339D01*
X025210Y023798D01*
X025274Y023734D01*
X025210Y023670D01*
X025210Y023580D01*
X024863Y023580D01*
X024856Y023677D02*
X025217Y023677D01*
X025232Y023776D02*
X024841Y023776D01*
X024863Y023874D02*
X025210Y023874D01*
X025210Y023973D02*
X024863Y023973D01*
X024863Y024071D02*
X025210Y024071D01*
X025210Y024170D02*
X024863Y024170D01*
X024863Y024268D02*
X025210Y024268D01*
X025237Y024367D02*
X024836Y024367D01*
X024716Y024465D02*
X025356Y024465D01*
X025250Y024564D02*
X024823Y024564D01*
X024922Y024662D02*
X025151Y024662D01*
X025088Y024761D02*
X024985Y024761D01*
X025026Y024859D02*
X025047Y024859D01*
X025036Y024958D02*
X025036Y024958D01*
X025036Y025056D02*
X025036Y025056D01*
X025007Y025155D02*
X025066Y025155D01*
X025107Y025253D02*
X024966Y025253D01*
X024876Y025352D02*
X025197Y025352D01*
X025355Y025450D02*
X024718Y025450D01*
X025036Y025734D02*
X018786Y025734D01*
X018786Y025164D01*
X019546Y025549D02*
X027586Y025549D01*
X027586Y025647D02*
X025204Y025647D01*
X025216Y025746D02*
X025848Y025746D01*
X025678Y025844D02*
X025216Y025844D01*
X025216Y025943D02*
X025558Y025943D01*
X025459Y026041D02*
X025216Y026041D01*
X025216Y026140D02*
X025388Y026140D01*
X025331Y026238D02*
X025216Y026238D01*
X025216Y026337D02*
X025280Y026337D01*
X025254Y026435D02*
X025216Y026435D01*
X025216Y026534D02*
X025227Y026534D01*
X024856Y026534D02*
X024716Y026534D01*
X024716Y026632D02*
X024856Y026632D01*
X024856Y026731D02*
X024716Y026731D01*
X024716Y026829D02*
X024856Y026829D01*
X024856Y026435D02*
X024716Y026435D01*
X024716Y026337D02*
X024856Y026337D01*
X024856Y026238D02*
X024716Y026238D01*
X024716Y026140D02*
X024856Y026140D01*
X024856Y026041D02*
X024716Y026041D01*
X024716Y025943D02*
X024856Y025943D01*
X025036Y025734D02*
X025036Y028734D01*
X025202Y028734D01*
X025202Y029734D01*
X025202Y030734D01*
X025382Y030375D02*
X026438Y030375D01*
X026353Y030474D02*
X026208Y030474D01*
X026584Y030277D02*
X025382Y030277D01*
X025382Y030178D02*
X026552Y030178D01*
X026425Y030080D02*
X025382Y030080D01*
X025871Y029734D02*
X026786Y029734D01*
X026423Y029390D02*
X025382Y029390D01*
X025382Y029292D02*
X026548Y029292D01*
X026588Y029193D02*
X025382Y029193D01*
X025382Y029095D02*
X026440Y029095D01*
X026354Y028996D02*
X026206Y028996D01*
X025871Y028734D02*
X026786Y028734D01*
X026985Y029193D02*
X027586Y029193D01*
X027586Y029095D02*
X027133Y029095D01*
X027219Y028996D02*
X027586Y028996D01*
X027586Y028898D02*
X027260Y028898D01*
X027286Y028799D02*
X027586Y028799D01*
X027586Y028701D02*
X027286Y028701D01*
X027273Y028602D02*
X027586Y028602D01*
X027586Y028504D02*
X027232Y028504D01*
X027165Y028405D02*
X027586Y028405D01*
X027586Y028307D02*
X027061Y028307D01*
X026512Y028307D02*
X025216Y028307D01*
X025216Y028405D02*
X026408Y028405D01*
X026341Y028504D02*
X026218Y028504D01*
X027025Y029292D02*
X027586Y029292D01*
X027586Y029390D02*
X027150Y029390D01*
X027226Y029489D02*
X027586Y029489D01*
X027586Y029587D02*
X027267Y029587D01*
X027286Y029686D02*
X027586Y029686D01*
X027586Y029784D02*
X027286Y029784D01*
X027266Y029883D02*
X027586Y029883D01*
X027586Y029981D02*
X027225Y029981D01*
X027148Y030080D02*
X027586Y030080D01*
X027586Y030178D02*
X027021Y030178D01*
X026989Y030277D02*
X027586Y030277D01*
X027586Y030375D02*
X027135Y030375D01*
X027220Y030474D02*
X027586Y030474D01*
X027586Y030572D02*
X027261Y030572D01*
X027286Y030671D02*
X027586Y030671D01*
X027586Y030769D02*
X027286Y030769D01*
X027272Y030868D02*
X027586Y030868D01*
X027586Y030966D02*
X027231Y030966D01*
X027163Y031065D02*
X027586Y031065D01*
X027586Y031163D02*
X027057Y031163D01*
X026952Y031262D02*
X027586Y031262D01*
X027586Y031360D02*
X027120Y031360D01*
X027214Y031459D02*
X027586Y031459D01*
X027586Y031557D02*
X027254Y031557D01*
X027286Y031656D02*
X027586Y031656D01*
X027586Y031754D02*
X027286Y031754D01*
X027278Y031853D02*
X027586Y031853D01*
X027586Y031951D02*
X027238Y031951D01*
X027178Y032050D02*
X027586Y032050D01*
X027586Y032148D02*
X027079Y032148D01*
X026916Y032247D02*
X027586Y032247D01*
X027586Y032345D02*
X027105Y032345D01*
X027203Y032444D02*
X027586Y032444D01*
X027586Y032542D02*
X027248Y032542D01*
X027286Y032641D02*
X027586Y032641D01*
X027586Y032739D02*
X027286Y032739D01*
X027285Y032838D02*
X027586Y032838D01*
X027586Y032936D02*
X027244Y032936D01*
X027193Y033035D02*
X027586Y033035D01*
X027586Y033133D02*
X027094Y033133D01*
X027090Y033330D02*
X027586Y033330D01*
X027586Y033232D02*
X026892Y033232D01*
X026681Y033232D02*
X025382Y033232D01*
X025382Y033330D02*
X026483Y033330D01*
X026385Y033429D02*
X026163Y033429D01*
X026218Y033527D02*
X026331Y033527D01*
X026323Y033921D02*
X026218Y033921D01*
X026183Y034020D02*
X026365Y034020D01*
X026463Y034118D02*
X025382Y034118D01*
X025382Y034217D02*
X026645Y034217D01*
X026928Y034217D02*
X027586Y034217D01*
X027586Y034315D02*
X027286Y034315D01*
X027286Y034414D02*
X027586Y034414D01*
X027586Y034512D02*
X027286Y034512D01*
X027286Y034611D02*
X027586Y034611D01*
X027586Y034709D02*
X027286Y034709D01*
X026786Y034734D02*
X025871Y034734D01*
X026218Y034512D02*
X026286Y034512D01*
X026286Y034414D02*
X026148Y034414D01*
X026286Y034315D02*
X025382Y034315D01*
X025479Y034414D02*
X025594Y034414D01*
X025559Y034020D02*
X025513Y034020D01*
X025202Y033734D02*
X025202Y034734D01*
X025202Y033734D02*
X025202Y032734D01*
X025202Y031734D01*
X025483Y032050D02*
X025589Y032050D01*
X025382Y032148D02*
X026493Y032148D01*
X026395Y032050D02*
X026153Y032050D01*
X026218Y031951D02*
X026335Y031951D01*
X026468Y032345D02*
X025382Y032345D01*
X025382Y032247D02*
X026657Y032247D01*
X026370Y032444D02*
X026178Y032444D01*
X026218Y032542D02*
X026325Y032542D01*
X025871Y032734D02*
X026786Y032734D01*
X026329Y032936D02*
X026218Y032936D01*
X026168Y033035D02*
X026380Y033035D01*
X026478Y033133D02*
X025382Y033133D01*
X025498Y033035D02*
X025574Y033035D01*
X025579Y033429D02*
X025494Y033429D01*
X025871Y033734D02*
X026786Y033734D01*
X027109Y034118D02*
X027586Y034118D01*
X027586Y034020D02*
X027208Y034020D01*
X027250Y033921D02*
X027586Y033921D01*
X027586Y033823D02*
X027286Y033823D01*
X027286Y033724D02*
X027586Y033724D01*
X027586Y033626D02*
X027283Y033626D01*
X027242Y033527D02*
X027586Y033527D01*
X027586Y033429D02*
X027188Y033429D01*
X026786Y031734D02*
X025871Y031734D01*
X025549Y031459D02*
X025524Y031459D01*
X026193Y031459D02*
X026359Y031459D01*
X026786Y030734D02*
X025871Y030734D01*
X026218Y029981D02*
X026348Y029981D01*
X026347Y029489D02*
X026218Y029489D01*
X025216Y028208D02*
X027586Y028208D01*
X027586Y028110D02*
X025216Y028110D01*
X025216Y028011D02*
X027586Y028011D01*
X027586Y027913D02*
X025216Y027913D01*
X023786Y027734D02*
X022871Y027734D01*
X022871Y026734D02*
X023786Y026734D01*
X023536Y024984D02*
X023536Y024069D01*
X023232Y023776D02*
X014056Y023776D01*
X014056Y023677D02*
X023217Y023677D01*
X024536Y024069D02*
X024536Y024984D01*
X025536Y024984D02*
X025536Y024069D01*
X025863Y024071D02*
X026210Y024071D01*
X026210Y023973D02*
X025863Y023973D01*
X025863Y023874D02*
X026210Y023874D01*
X026210Y023798D02*
X026274Y023734D01*
X026210Y023670D01*
X026210Y023580D01*
X025863Y023580D01*
X025863Y023670D01*
X025799Y023734D01*
X025863Y023798D01*
X025863Y024339D01*
X025787Y024415D01*
X025716Y024415D01*
X025716Y024518D01*
X025820Y024560D01*
X025960Y024701D01*
X026036Y024885D01*
X026036Y025084D01*
X026036Y024885D01*
X026113Y024701D01*
X026253Y024560D01*
X026356Y024518D01*
X026356Y024415D01*
X026286Y024415D01*
X026210Y024339D01*
X026210Y023798D01*
X026232Y023776D02*
X025841Y023776D01*
X025856Y023677D02*
X026217Y023677D01*
X026210Y024170D02*
X025863Y024170D01*
X025863Y024268D02*
X026210Y024268D01*
X026237Y024367D02*
X025836Y024367D01*
X025716Y024465D02*
X026356Y024465D01*
X026250Y024564D02*
X025823Y024564D01*
X025922Y024662D02*
X026151Y024662D01*
X026088Y024761D02*
X025985Y024761D01*
X026026Y024859D02*
X026047Y024859D01*
X026036Y024958D02*
X026036Y024958D01*
X026036Y025056D02*
X026036Y025056D01*
X026007Y025155D02*
X026066Y025155D01*
X026107Y025253D02*
X025966Y025253D01*
X025876Y025352D02*
X026197Y025352D01*
X026355Y025450D02*
X025718Y025450D01*
X026536Y024984D02*
X026536Y024069D01*
X027536Y024069D02*
X027536Y024984D01*
X023786Y028734D02*
X022871Y028734D01*
X022202Y030734D02*
X022202Y031734D01*
X022202Y032734D01*
X022202Y033734D01*
X022202Y034734D01*
X022871Y034734D02*
X023786Y034734D01*
X023786Y033734D02*
X022871Y033734D01*
X022871Y032734D02*
X023786Y032734D01*
X023786Y031734D02*
X022871Y031734D01*
X020786Y028734D02*
X019871Y028734D01*
X019871Y027734D02*
X020786Y027734D01*
X019803Y024465D02*
X019570Y024465D01*
X019123Y024268D02*
X013955Y024268D01*
X014050Y024170D02*
X019126Y024170D01*
X019193Y024071D02*
X014056Y024071D01*
X014056Y023973D02*
X019834Y023973D01*
X021536Y018900D02*
X021536Y017984D01*
X013651Y023480D02*
X013551Y023480D01*
X013551Y023579D02*
X013651Y023579D01*
X013651Y023677D02*
X013551Y023677D01*
X013551Y023776D02*
X013651Y023776D01*
X013651Y024071D02*
X013551Y024071D01*
X013551Y024170D02*
X013651Y024170D01*
X013651Y024268D02*
X013551Y024268D01*
X013248Y024268D02*
X011784Y024268D01*
X011635Y024170D02*
X013153Y024170D01*
X013146Y024071D02*
X010907Y024071D01*
X010907Y023973D02*
X013146Y023973D01*
X013485Y027420D02*
X013588Y027420D01*
X006286Y028164D02*
X006286Y029484D01*
X003786Y032234D02*
X003121Y032234D01*
X003121Y033234D01*
X003121Y034234D01*
X002452Y034234D02*
X001536Y034234D01*
X001536Y033234D02*
X002452Y033234D01*
X002452Y032234D02*
X001536Y032234D01*
X001536Y025234D02*
X002452Y025234D01*
X002452Y024234D02*
X001536Y024234D01*
X001969Y023973D02*
X002116Y023973D01*
X010844Y002992D02*
X011494Y002992D01*
X011501Y002894D02*
X010907Y002894D01*
X010036Y002401D02*
X009966Y002401D01*
X009966Y002303D02*
X010044Y002303D01*
X010071Y002204D02*
X016639Y002204D01*
X016519Y002106D02*
X015566Y002106D01*
X015576Y002007D02*
X016517Y002007D01*
X016517Y001909D02*
X015576Y001909D01*
X015576Y001810D02*
X016517Y001810D01*
X016517Y001712D02*
X014689Y001712D01*
X014689Y001810D02*
X014589Y001810D01*
X014589Y001909D02*
X014689Y001909D01*
X014689Y002007D02*
X014589Y002007D01*
X014589Y002106D02*
X014689Y002106D01*
X015576Y001613D02*
X016517Y001613D01*
X016517Y001515D02*
X015576Y001515D01*
X015576Y001416D02*
X016517Y001416D01*
X016564Y001318D02*
X015537Y001318D01*
X013166Y000727D02*
X010927Y000727D01*
X010069Y001219D02*
X010026Y001219D01*
X009521Y001712D02*
X009190Y001712D01*
X007205Y001712D02*
X007190Y001712D01*
X005571Y001416D02*
X005524Y001416D01*
X005501Y001515D02*
X005475Y001515D01*
X005403Y001613D02*
X005393Y001613D01*
X004828Y001712D02*
X004245Y001712D01*
X004086Y001712D02*
X003986Y001712D01*
X003986Y001753D02*
X003915Y001741D01*
X003837Y001716D01*
X003764Y001679D01*
X003698Y001631D01*
X003640Y001573D01*
X003592Y001507D01*
X003555Y001434D01*
X003529Y001356D01*
X003518Y001284D01*
X003986Y001284D01*
X003986Y001753D01*
X003986Y001613D02*
X004086Y001613D01*
X004086Y001515D02*
X003986Y001515D01*
X003986Y001416D02*
X004086Y001416D01*
X004086Y001318D02*
X003986Y001318D01*
X003986Y001219D02*
X003328Y001219D01*
X003302Y001121D02*
X003528Y001121D01*
X003561Y001022D02*
X003261Y001022D01*
X003204Y000924D02*
X003619Y000924D01*
X003715Y000825D02*
X003147Y000825D01*
X003049Y000727D02*
X003917Y000727D01*
X003986Y000727D02*
X004086Y000727D01*
X004156Y000727D02*
X004917Y000727D01*
X004715Y000825D02*
X004358Y000825D01*
X004454Y000924D02*
X004619Y000924D01*
X004561Y001022D02*
X004512Y001022D01*
X004086Y001022D02*
X003986Y001022D01*
X003986Y000924D02*
X004086Y000924D01*
X004086Y000825D02*
X003986Y000825D01*
X003986Y001121D02*
X004086Y001121D01*
X004524Y001416D02*
X004549Y001416D01*
X004597Y001515D02*
X004475Y001515D01*
X004393Y001613D02*
X004680Y001613D01*
X005512Y001022D02*
X005583Y001022D01*
X005640Y000924D02*
X005454Y000924D01*
X005358Y000825D02*
X005738Y000825D01*
X003828Y001712D02*
X003338Y001712D01*
X003361Y001613D02*
X003680Y001613D01*
X003597Y001515D02*
X003361Y001515D01*
X003361Y001416D02*
X003549Y001416D01*
X003523Y001318D02*
X003355Y001318D01*
X024216Y007734D02*
X024536Y007734D01*
X027437Y008234D02*
X027586Y008234D01*
X027586Y008234D01*
X027437Y008234D01*
X025564Y032444D02*
X025509Y032444D01*
D30*
X020036Y024234D03*
X021536Y021734D03*
X019786Y019984D03*
X019036Y019984D03*
X018286Y019984D03*
X017536Y019984D03*
X016786Y019984D03*
X016036Y019984D03*
X015286Y019984D03*
X015286Y019484D03*
X014286Y019484D03*
X012536Y019734D03*
X012036Y019234D03*
X011536Y019734D03*
X010536Y019984D03*
X009286Y020984D03*
X007786Y020234D03*
X007286Y020234D03*
X006786Y020234D03*
X006286Y020234D03*
X005786Y020234D03*
X005286Y020234D03*
X004786Y020234D03*
X004036Y020484D03*
X004036Y019734D03*
X004536Y018734D03*
X005286Y018484D03*
X004536Y017234D03*
X004536Y015734D03*
X006036Y016234D03*
X007036Y016484D03*
X008286Y015984D03*
X008036Y013984D03*
X008036Y013484D03*
X008036Y012984D03*
X008036Y012484D03*
X008036Y011984D03*
X008036Y011484D03*
X008036Y010984D03*
X006536Y012234D03*
X005536Y011234D03*
X005036Y011734D03*
X006036Y010734D03*
X004536Y009734D03*
X003036Y010984D03*
X002536Y010984D03*
X001786Y010234D03*
X003536Y011734D03*
X006286Y014234D03*
X009036Y018234D03*
X010036Y018234D03*
X010536Y017134D03*
X010536Y016234D03*
X011286Y016234D03*
X011536Y014734D03*
X012286Y014484D03*
X012286Y013734D03*
X012286Y012984D03*
X012286Y012234D03*
X012286Y011484D03*
X012286Y010734D03*
X012286Y009984D03*
X012036Y008734D03*
X010536Y008734D03*
X010036Y009984D03*
X008286Y008984D03*
X007786Y008484D03*
X007536Y007234D03*
X008036Y007234D03*
X007286Y006234D03*
X007286Y005734D03*
X007036Y005234D03*
X006036Y005734D03*
X006036Y006734D03*
X004536Y006234D03*
X004036Y004984D03*
X009286Y006234D03*
X009286Y007484D03*
X011536Y007234D03*
X012036Y006234D03*
X011536Y004484D03*
X014286Y006984D03*
X015036Y006984D03*
X015036Y006484D03*
X015036Y005984D03*
X015036Y005484D03*
X015036Y004984D03*
X015036Y004484D03*
X017536Y002734D03*
X016036Y001734D03*
X019036Y002234D03*
X019286Y004484D03*
X019286Y005234D03*
X019286Y005984D03*
X019286Y006734D03*
X019286Y007484D03*
X019286Y008234D03*
X019036Y008734D03*
X018286Y007984D03*
X016536Y008734D03*
X015036Y007484D03*
X019536Y009734D03*
X020536Y010484D03*
X023536Y008234D03*
X023536Y005234D03*
X018786Y015734D03*
X018286Y015734D03*
X017786Y015734D03*
X017286Y015734D03*
X016786Y015734D03*
X016286Y015734D03*
X015786Y015734D03*
X013786Y017134D03*
X012036Y021734D03*
X012536Y022734D03*
X011536Y024484D03*
X010536Y022734D03*
X008536Y022984D03*
X007786Y022984D03*
X007036Y022984D03*
X006286Y022984D03*
X005536Y022984D03*
X004786Y022984D03*
X004036Y022984D03*
X002286Y022734D03*
X008536Y025734D03*
X014536Y023734D03*
X019286Y017734D03*
D31*
X019356Y024234D02*
X019286Y025164D01*
X019356Y024234D02*
X020036Y024234D01*
X008536Y025734D02*
X008356Y028164D01*
X008286Y028164D01*
X018466Y010484D02*
X020536Y010484D01*
X023536Y005234D02*
X023716Y005164D01*
X024216Y005234D01*
X019036Y002234D02*
X018536Y001734D01*
X017434Y001734D01*
X015934Y003234D01*
X014286Y003234D01*
X013536Y003234D01*
X013036Y003734D01*
X017434Y001734D02*
X017536Y001734D01*
X018536Y000734D01*
M02*
