G75*
G70*
%OFA0B0*%
%FSLAX24Y24*%
%IPPOS*%
%LPD*%
%AMOC8*
5,1,8,0,0,1.08239X$1,22.5*
%
%ADD10R,0.0200X0.0580*%
%ADD11R,0.0580X0.0200*%
%ADD12R,0.0394X0.0433*%
%ADD13R,0.0315X0.0315*%
%ADD14R,0.0276X0.0669*%
%ADD15R,0.0276X0.0354*%
%ADD16R,0.0630X0.0551*%
%ADD17R,0.0610X0.0512*%
%ADD18R,0.0354X0.0276*%
%ADD19R,0.0260X0.0800*%
%ADD20R,0.0800X0.0260*%
%ADD21R,0.0433X0.0394*%
%ADD22R,0.0240X0.0870*%
%ADD23R,0.1560X0.1560*%
%ADD24R,0.1250X0.1250*%
%ADD25R,0.0750X0.0500*%
%ADD26R,0.1575X0.0630*%
D10*
X005936Y004614D03*
X006246Y004614D03*
X006566Y004614D03*
X006876Y004614D03*
X007196Y004614D03*
X007506Y004614D03*
X007826Y004614D03*
X008136Y004614D03*
X008136Y007854D03*
X007826Y007854D03*
X007506Y007854D03*
X007196Y007854D03*
X006876Y007854D03*
X006566Y007854D03*
X006246Y007854D03*
X005936Y007854D03*
D11*
X005416Y005134D03*
X005416Y005444D03*
X005416Y005764D03*
X005416Y006074D03*
X005416Y006394D03*
X005416Y006704D03*
X005416Y007024D03*
X005416Y007334D03*
X008656Y007334D03*
X008656Y007024D03*
X008656Y006704D03*
X008656Y006394D03*
X008656Y006074D03*
X008656Y005764D03*
X008656Y005444D03*
X008656Y005134D03*
D12*
X010952Y003734D03*
X011621Y003734D03*
X012036Y004900D03*
X012036Y005569D03*
X006036Y012900D03*
X006036Y013569D03*
X005286Y013569D03*
X005286Y012900D03*
X003371Y009734D03*
X002702Y009734D03*
X011536Y017900D03*
X011536Y018569D03*
X012536Y018569D03*
X012536Y017900D03*
X013536Y017900D03*
X013536Y018569D03*
X021536Y018900D03*
X021536Y019569D03*
X022536Y019569D03*
X022536Y018900D03*
X023536Y018900D03*
X023536Y019569D03*
X024536Y019569D03*
X024536Y018900D03*
X025536Y018900D03*
X025536Y019569D03*
X026536Y019569D03*
X026536Y018900D03*
X027536Y018900D03*
X027536Y019569D03*
X027536Y021900D03*
X027536Y022569D03*
X027536Y023400D03*
X027536Y024069D03*
X026536Y024069D03*
X026536Y023400D03*
X026536Y022569D03*
X026536Y021900D03*
X025536Y021900D03*
X025536Y022569D03*
X025536Y023400D03*
X025536Y024069D03*
X024536Y024069D03*
X024536Y023400D03*
X024536Y022569D03*
X024536Y021900D03*
X023536Y021900D03*
X023536Y022569D03*
X023536Y023400D03*
X023536Y024069D03*
X023536Y017069D03*
X023536Y016400D03*
X022536Y016400D03*
X022536Y017069D03*
X024536Y017069D03*
X024536Y016400D03*
X025536Y016400D03*
X025536Y017069D03*
X026536Y017069D03*
X026536Y016400D03*
X027536Y016400D03*
X027536Y017069D03*
X027536Y014569D03*
X027536Y013900D03*
X026536Y013900D03*
X026536Y014569D03*
X025536Y014569D03*
X025536Y013900D03*
X024536Y013900D03*
X024536Y014569D03*
X023536Y014569D03*
X023536Y013900D03*
X022536Y013900D03*
X022536Y014569D03*
X022536Y012069D03*
X022536Y011400D03*
X023536Y011400D03*
X023536Y012069D03*
X024536Y012069D03*
X024536Y011400D03*
X025536Y011400D03*
X025536Y012069D03*
X026536Y012069D03*
X026536Y011400D03*
X027536Y011400D03*
X027536Y012069D03*
X010536Y030150D03*
X010536Y030819D03*
X009536Y030819D03*
X009536Y030150D03*
X008536Y030150D03*
X008536Y030819D03*
X007536Y030819D03*
X007536Y030150D03*
X006536Y030150D03*
X006536Y030819D03*
X005536Y030819D03*
X005536Y030150D03*
X006286Y033150D03*
X006286Y033819D03*
X007286Y033819D03*
X007286Y033150D03*
X008286Y033150D03*
X008286Y033819D03*
X009286Y033819D03*
X009286Y033150D03*
X010286Y033150D03*
X010286Y033819D03*
X011286Y033819D03*
X011286Y033150D03*
X012286Y033150D03*
X012286Y033819D03*
D13*
X001786Y009529D03*
X001786Y008939D03*
D14*
X005564Y009234D03*
X006036Y009234D03*
X006509Y009234D03*
D15*
X006281Y003234D03*
X006792Y003234D03*
X014781Y008734D03*
X015292Y008734D03*
D16*
X013536Y008635D03*
X013536Y007533D03*
D17*
X013601Y002620D03*
X013601Y000848D03*
X010471Y000848D03*
X010471Y002620D03*
X010471Y019348D03*
X010471Y021120D03*
X010471Y022098D03*
X010471Y023870D03*
X010471Y024848D03*
X010471Y026620D03*
X013601Y026620D03*
X013601Y024848D03*
X013601Y023870D03*
X013601Y022098D03*
X013601Y021120D03*
X013601Y019348D03*
D18*
X009786Y001990D03*
X009786Y001478D03*
D19*
X015786Y016524D03*
X016286Y016524D03*
X016786Y016524D03*
X017286Y016524D03*
X017786Y016524D03*
X018286Y016524D03*
X018786Y016524D03*
X019286Y016524D03*
X019286Y018944D03*
X018786Y018944D03*
X018286Y018944D03*
X017786Y018944D03*
X017286Y018944D03*
X016786Y018944D03*
X016286Y018944D03*
X015786Y018944D03*
X015786Y021304D03*
X016286Y021304D03*
X016786Y021304D03*
X017286Y021304D03*
X017786Y021304D03*
X018286Y021304D03*
X018786Y021304D03*
X019286Y021304D03*
X019286Y025164D03*
X018786Y025164D03*
X018286Y025164D03*
X017786Y025164D03*
X017286Y025164D03*
X016786Y025164D03*
X016286Y025164D03*
X015786Y025164D03*
X015286Y025164D03*
X015286Y021304D03*
X008286Y021944D03*
X007786Y021944D03*
X007286Y021944D03*
X006786Y021944D03*
X006286Y021944D03*
X005786Y021944D03*
X005286Y021944D03*
X004786Y021944D03*
X004786Y024304D03*
X004286Y024304D03*
X005286Y024304D03*
X005786Y024304D03*
X006286Y024304D03*
X006786Y024304D03*
X007286Y024304D03*
X007786Y024304D03*
X008286Y024304D03*
X008286Y028164D03*
X007786Y028164D03*
X007286Y028164D03*
X006786Y028164D03*
X006286Y028164D03*
X005786Y028164D03*
X005286Y028164D03*
X004786Y028164D03*
X004286Y028164D03*
X004786Y019524D03*
X005286Y019524D03*
X005786Y019524D03*
X006286Y019524D03*
X006786Y019524D03*
X007286Y019524D03*
X007786Y019524D03*
X008286Y019524D03*
D20*
X008826Y013984D03*
X008826Y013484D03*
X008826Y012984D03*
X008826Y012484D03*
X008826Y011984D03*
X008826Y011484D03*
X008826Y010984D03*
X008826Y010484D03*
X011246Y010484D03*
X011246Y010984D03*
X011246Y011484D03*
X011246Y011984D03*
X011246Y012484D03*
X011246Y012984D03*
X011246Y013484D03*
X011246Y013984D03*
X014606Y013984D03*
X014606Y013484D03*
X014606Y012984D03*
X014606Y012484D03*
X014606Y011984D03*
X014606Y011484D03*
X014606Y010984D03*
X014606Y010484D03*
X015826Y007484D03*
X015826Y006984D03*
X015826Y006484D03*
X015826Y005984D03*
X015826Y005484D03*
X015826Y004984D03*
X015826Y004484D03*
X015826Y003984D03*
X018246Y003984D03*
X018246Y004484D03*
X018246Y004984D03*
X018246Y005484D03*
X018246Y005984D03*
X018246Y006484D03*
X018246Y006984D03*
X018246Y007484D03*
X020356Y007234D03*
X020356Y006734D03*
X020356Y006234D03*
X020356Y005734D03*
X020356Y005234D03*
X020356Y007734D03*
X020356Y008234D03*
X020356Y008734D03*
X020356Y009234D03*
X018466Y010484D03*
X018466Y010984D03*
X018466Y011484D03*
X018466Y011984D03*
X018466Y012484D03*
X018466Y012984D03*
X018466Y013484D03*
X018466Y013984D03*
X018466Y014484D03*
X014606Y014484D03*
X024216Y009234D03*
X024216Y008734D03*
X024216Y008234D03*
X024216Y007734D03*
X024216Y007234D03*
X024216Y006734D03*
X024216Y006234D03*
X024216Y005734D03*
X024216Y005234D03*
D21*
X022871Y026734D03*
X022202Y026734D03*
X022202Y027734D03*
X022871Y027734D03*
X022871Y028734D03*
X022202Y028734D03*
X022202Y029734D03*
X022202Y030734D03*
X022871Y030734D03*
X022871Y029734D03*
X022871Y031734D03*
X022202Y031734D03*
X022202Y032734D03*
X022871Y032734D03*
X022871Y033734D03*
X022202Y033734D03*
X022202Y034734D03*
X022871Y034734D03*
X025202Y034734D03*
X025871Y034734D03*
X025871Y033734D03*
X025202Y033734D03*
X025202Y032734D03*
X025871Y032734D03*
X025871Y031734D03*
X025202Y031734D03*
X025202Y030734D03*
X025871Y030734D03*
X025871Y029734D03*
X025202Y029734D03*
X025202Y028734D03*
X025871Y028734D03*
X019871Y028734D03*
X019202Y028734D03*
X019202Y027734D03*
X019871Y027734D03*
X019871Y029734D03*
X019202Y029734D03*
X019202Y030734D03*
X019871Y030734D03*
X019871Y031734D03*
X019202Y031734D03*
X019202Y032734D03*
X019871Y032734D03*
X019871Y033734D03*
X019202Y033734D03*
X019202Y034734D03*
X019871Y034734D03*
X017871Y034734D03*
X017202Y034734D03*
X017202Y033734D03*
X017871Y033734D03*
X017871Y032734D03*
X017202Y032734D03*
X017202Y031734D03*
X017871Y031734D03*
X017871Y030734D03*
X017202Y030734D03*
X017202Y029734D03*
X017871Y029734D03*
X017871Y028734D03*
X017202Y028734D03*
X013871Y028734D03*
X013202Y028734D03*
X013202Y027734D03*
X013871Y027734D03*
X013871Y029734D03*
X013202Y029734D03*
X013202Y030734D03*
X013871Y030734D03*
X013871Y031734D03*
X013202Y031734D03*
X013202Y032734D03*
X013871Y032734D03*
X013871Y033734D03*
X013202Y033734D03*
X013202Y034734D03*
X013871Y034734D03*
X003121Y034234D03*
X002452Y034234D03*
X002452Y033234D03*
X003121Y033234D03*
X003121Y032234D03*
X002452Y032234D03*
X002452Y031234D03*
X003121Y031234D03*
X003121Y030234D03*
X002452Y030234D03*
X002452Y029234D03*
X003121Y029234D03*
X003121Y028234D03*
X002452Y028234D03*
X002452Y027234D03*
X003121Y027234D03*
X003121Y026234D03*
X002452Y026234D03*
X002452Y025234D03*
X003121Y025234D03*
X003121Y024234D03*
X002452Y024234D03*
X003452Y007734D03*
X004121Y007734D03*
X004121Y006484D03*
X003452Y006484D03*
D22*
X005286Y015204D03*
X005786Y015204D03*
X006286Y015204D03*
X006786Y015204D03*
X006786Y017264D03*
X006286Y017264D03*
X005786Y017264D03*
X005286Y017264D03*
D23*
X002286Y015234D03*
D24*
X002286Y018334D03*
X002286Y012134D03*
D25*
X007661Y015134D03*
X008911Y015134D03*
X008911Y017334D03*
X007661Y017334D03*
D26*
X014639Y001734D03*
X017434Y001734D03*
M02*
